<?xml version="1.0" encoding="UTF-8" standalone="no"?>
<!DOCTYPE svg PUBLIC "-//W3C//DTD SVG 1.1//EN" 
  "http://www.w3.org/Graphics/SVG/1.1/DTD/svg11.dtd">
<svg
   version="1.1"
   width="235.00002pt"
   height="103pt"
   viewBox="0 0 235.00002 103"
   preserveAspectRatio="xMidYMid"
   id="svg3"
   xmlns="http://www.w3.org/2000/svg"
   xmlns:svg="http://www.w3.org/2000/svg">
  <defs
     id="defs3" />
  <g
     transform="matrix(0.1,0,0,-0.1,0,103)"
     fill="#000000"
     stroke="none"
     id="g3">
    <path
       d="m 467,664 c -15,-14 -42,-59 -62,-100 -32,-68 -37,-74 -65,-74 -47,0 -90,-27 -106,-67 -13,-31 -13,-38 1,-59 11,-18 25,-24 51,-24 41,0 77,31 100,85 15,36 22,39 62,29 24,-7 24,-9 5,-91 -4,-18 -1,-23 15,-23 21,0 26,10 38,72 5,32 11,39 41,47 36,10 73,37 73,53 0,4 -17,-1 -37,-12 -44,-23 -67,-26 -60,-6 13,32 28,134 25,161 -4,42 -44,46 -81,9 z m 53,-16 c 0,-7 -4,-29 -9,-48 -6,-19 -15,-54 -21,-77 -10,-38 -14,-43 -40,-43 -22,0 -30,5 -30,18 0,22 46,121 67,144 19,21 33,23 33,6 z M 338,418 c -24,-44 -54,-60 -69,-37 -9,15 14,65 33,72 7,3 23,6 36,6 l 23,1 z"
       id="path1" />
    <path
       d="m 1332,673 c -5,-10 -17,-42 -26,-70 -16,-48 -20,-53 -48,-53 -47,0 -84,-28 -124,-97 -21,-35 -47,-71 -58,-79 -19,-13 -21,-13 -24,5 -3,17 19,116 34,156 4,10 0,15 -15,15 -16,0 -23,-11 -35,-51 -27,-90 -59,-129 -107,-129 -25,0 -25,35 1,78 26,43 25,64 -4,91 -14,13 -26,33 -28,45 -2,11 -10,21 -18,21 -11,0 -15,-12 -16,-40 -1,-51 -47,-155 -85,-191 -16,-15 -31,-25 -35,-22 -3,4 2,33 11,67 28,98 4,121 -35,33 -26,-58 -47,-82 -73,-82 -17,0 -19,5 -14,46 3,34 13,55 36,77 29,30 56,36 113,25 35,-6 21,18 -18,31 -38,13 -44,13 -87,-8 -38,-18 -51,-33 -73,-77 -22,-45 -25,-60 -18,-87 8,-27 15,-33 43,-35 24,-3 40,3 59,20 21,19 24,20 19,5 -4,-10 -7,-23 -7,-28 0,-5 -17,-17 -37,-28 -50,-25 -75,-54 -71,-82 8,-56 77,-50 108,11 11,21 20,45 20,53 0,7 17,25 37,38 44,29 83,84 110,158 19,50 21,53 32,34 9,-17 6,-31 -13,-73 -23,-51 -24,-71 -3,-97 14,-19 65,-16 97,7 28,20 28,20 33,0 7,-28 49,-26 84,4 l 27,24 11,-22 c 16,-32 65,-33 94,-2 l 24,26 11,-23 c 17,-32 44,-33 77,-1 16,15 30,26 31,23 2,-2 8,-13 14,-24 14,-26 85,-33 116,-11 12,9 32,16 43,16 11,0 31,8 45,17 19,13 25,14 28,4 10,-31 43,-51 83,-51 44,0 72,11 107,43 12,11 22,15 22,9 0,-7 9,-21 20,-32 31,-31 109,-28 150,6 34,29 65,82 54,92 -4,4 -9,2 -11,-5 -10,-28 -49,-66 -80,-80 -42,-17 -86,0 -91,35 -3,20 1,22 40,22 46,1 68,12 86,47 17,31 0,69 -33,77 -48,12 -96,-21 -133,-92 -18,-34 -44,-69 -57,-78 -29,-19 -79,-21 -100,-4 -19,16 -19,63 0,100 28,53 83,64 71,14 -7,-28 14,-33 34,-10 19,24 8,58 -22,69 -47,15 -97,-17 -134,-87 -31,-57 -48,-76 -71,-76 -9,0 -8,9 3,35 21,50 17,82 -12,112 -45,44 -115,15 -155,-65 -37,-72 -59,-102 -76,-102 -23,0 -12,81 26,201 17,53 31,101 31,108 0,17 -28,13 -38,-6 z m 188,-158 c 14,-17 6,-77 -13,-97 -7,-7 -16,-21 -20,-31 -9,-25 -60,-19 -65,6 -7,36 9,85 35,111 29,30 45,32 63,11 z m 440,0 c 20,-24 -17,-65 -57,-65 -30,0 -29,24 2,55 28,29 38,31 55,10 z m -686,-17 c -25,-83 -55,-128 -86,-128 -13,0 -18,7 -18,29 0,62 42,121 88,121 20,0 22,-4 16,-22 z M 680,276 c 0,-8 -9,-24 -19,-37 -15,-19 -22,-21 -32,-12 -9,9 -6,17 14,37 30,30 37,32 37,12 z"
       id="path2" />
    <path
       d="m 1071,631 c -19,-12 -6,-43 16,-39 10,2 18,12 18,22 0,22 -14,29 -34,17 z"
       id="path3" />
  </g>
  <path
     style="fill:#000080;stroke-width:0.176162"
     d="m 26.02187,68.55738 c -1.125906,-0.402363 -1.637672,-0.850801 -2.530295,-2.217185 -1.02244,-1.565102 -1.13293,-2.166747 -0.67741,-3.688688 1.054619,-3.523594 2.874527,-5.779719 5.824036,-7.220007 1.786243,-0.872248 3.691858,-1.349131 5.397663,-1.350774 2.609637,-0.0025 3.084599,-0.492057 5.895592,-6.076603 4.39018,-8.721894 6.583181,-11.796267 9.425641,-13.213826 1.385185,-0.690802 3.024263,-0.734388 3.90823,-0.103926 0.98866,0.705129 1.429198,1.913652 1.431228,3.926256 0.0033,3.309089 -1.159213,10.684065 -2.225538,14.118362 -0.570804,1.838373 -0.491802,2.115656 0.626276,2.198135 0.977817,0.07213 2.051328,-0.300709 5.095464,-1.769705 2.300483,-1.110134 3.728157,-1.605677 3.728157,-1.294035 0,0.385635 -0.654464,1.243797 -1.603618,2.10273 -1.264502,1.144311 -3.50788,2.350837 -5.578623,3.000279 -2.511813,0.787773 -3.311854,1.352434 -3.725449,2.629383 -0.10003,0.308836 -0.422261,1.724468 -0.716066,3.14585 -0.703117,3.401545 -1.149448,4.800052 -1.744461,5.465989 -0.409017,0.457769 -0.649219,0.560973 -1.462608,0.628426 -1.102089,0.09139 -1.677361,-0.133573 -1.821974,-0.712503 -0.05375,-0.215205 0.222829,-1.818192 0.614634,-3.562195 1.296031,-5.768889 1.222735,-6.3264 -0.919676,-6.995432 -0.906698,-0.283143 -1.715873,-0.398887 -2.801681,-0.400749 -1.384622,-0.0024 -1.571591,0.03839 -2.008275,0.437786 -0.264832,0.242222 -0.954718,1.431315 -1.533079,2.642428 -2.186007,4.577594 -4.281121,6.945496 -7.178814,8.113509 -1.383774,0.557777 -4.129792,0.657341 -5.419354,0.196495 z m 3.925656,-2.913544 c 0.927467,-0.435342 2.368742,-1.83563 3.1291,-3.040116 0.586307,-0.92877 3.124648,-5.509021 3.124648,-5.638196 0,-0.141807 -3.604384,0.09746 -4.756371,0.315733 -0.53289,0.100971 -1.257138,0.343542 -1.60944,0.539045 -1.491835,0.827867 -3.146932,3.977971 -3.146932,5.989471 0,1.049526 0.201062,1.459209 0.936093,1.907391 0.732699,0.446758 1.249661,0.430439 2.322902,-0.07333 z M 46.41367,54.97136 c 1.530987,-0.295369 1.721272,-0.714201 3.805661,-8.376532 2.105487,-7.739892 2.294653,-9.600825 0.975939,-9.600825 -1.023323,0 -2.791936,1.718114 -4.145784,4.027411 -1.91852,3.272474 -4.669912,9.526496 -5.023321,11.418207 -0.186267,0.99704 0.05247,1.92106 0.568686,2.201117 0.831833,0.451281 2.46191,0.592407 3.818819,0.330622 z"
     id="path5" />
  <path
     style="fill:#000080;stroke-width:0.176162"
     d="m 61.655161,83.53569 c -1.498647,-0.704498 -2.489846,-2.54343 -2.340651,-4.342523 0.193953,-2.338822 2.234549,-4.5391 6.305805,-6.799243 0.920445,-0.510983 2.247994,-1.32234 2.950107,-1.803016 1.093794,-0.748825 1.304553,-0.978061 1.47201,-1.601062 0.107493,-0.399906 0.345584,-1.254683 0.529091,-1.899502 0.364968,-1.282448 0.421737,-1.910434 0.172701,-1.910434 -0.08852,0 -0.54434,0.318146 -1.012931,0.706992 -3.142083,2.607366 -3.793686,2.888434 -6.460896,2.786906 -2.466107,-0.09387 -3.246348,-0.472087 -3.97276,-1.925768 -1.055286,-2.111815 -1.153542,-4.467784 -0.28213,-6.764907 0.67268,-1.773249 2.396816,-5.178579 3.341099,-6.598983 1.411724,-2.123535 3.180673,-3.441962 6.718511,-5.007416 2.853923,-1.26283 3.864263,-1.321582 6.649338,-0.386662 2.328555,0.781671 4.341135,2.01882 4.341135,2.66853 0,0.538656 -0.676163,0.643612 -2.349788,0.36474 -5.414643,-0.902229 -7.729663,-0.379794 -10.622172,2.397129 -1.726385,1.657398 -2.606894,2.915875 -3.167004,4.526472 -0.49269,1.416728 -1.009117,5.167888 -0.908085,6.596033 0.09745,1.377529 0.358809,1.574991 1.943563,1.468413 2.468405,-0.166008 3.901346,-1.738109 6.722033,-7.374837 2.447223,-4.890417 3.299416,-6.1403 4.186568,-6.1403 1.00347,0 0.894165,3.194186 -0.26826,7.839205 -1.266946,5.062695 -1.612733,7.303832 -1.169209,7.577945 0.363649,0.224748 1.813106,-0.695013 3.272922,-2.076852 2.777962,-2.629572 5.592614,-7.59907 7.464405,-13.179024 0.80508,-2.399996 1.064774,-3.647363 1.327057,-6.374064 0.270705,-2.814255 0.555637,-3.530595 1.439032,-3.617851 0.444053,-0.04386 0.640635,0.06454 1.076888,0.593788 0.29352,0.356092 0.625987,1.01442 0.738802,1.462949 0.344858,1.371002 1.218555,2.773747 2.787465,4.475325 1.74327,1.890691 2.137973,2.63682 2.143358,4.051668 0.0053,1.311252 -0.441563,2.558545 -1.708875,4.77325 -2.186573,3.821174 -2.625885,6.987844 -1.0803,7.787098 0.985928,0.509844 3.322688,0.149666 4.855005,-0.748333 1.743473,-1.02174 3.479605,-3.240522 4.847125,-6.194633 0.38853,-0.839309 1.20314,-3.036054 1.81025,-4.881652 0.60711,-1.8456 1.31422,-3.770825 1.57137,-4.278279 0.71359,-1.408203 1.8827,-1.933816 3.19315,-1.435584 0.58298,0.221646 0.56131,0.41047 -0.41453,3.613026 -1.27875,4.196663 -2.69604,10.992502 -2.65821,12.745968 0.04,1.853403 0.4599,2.260455 1.66977,1.61862 1.44984,-0.769135 3.51616,-3.341736 6.30913,-7.854944 3.01331,-4.869251 4.84593,-7.074487 7.11065,-8.556424 1.70889,-1.118231 3.14888,-1.574084 5.4683,-1.731093 2.24647,-0.152072 2.83395,-0.409139 3.48885,-1.526631 0.25975,-0.443226 1.04586,-2.444424 1.74691,-4.447108 2.21569,-6.329466 2.57764,-7.060011 3.81932,-7.708694 0.76018,-0.397132 1.6707,-0.321025 1.99002,0.166338 0.25044,0.382212 0.23104,0.572798 -0.24664,2.422227 -0.28517,1.104054 -1.05004,3.711739 -1.69974,5.794854 -3.47806,11.151693 -4.65767,16.282309 -4.65778,20.25862 -3e-5,1.55668 0.0574,1.943845 0.36227,2.443993 0.33289,0.546021 0.41767,0.586867 1.04391,0.502872 1.69284,-0.227059 3.49716,-2.621429 7.12968,-9.461288 1.62165,-3.053472 2.54723,-4.386204 4.13825,-5.958603 3.02101,-2.985659 6.72661,-3.978751 9.60591,-2.574363 2.10049,1.024525 3.90361,3.433631 4.33474,5.791548 0.32028,1.751676 0.008,3.484266 -1.18211,6.553758 -1.27489,3.288801 -1.21435,3.918326 0.35413,3.683118 1.92932,-0.289319 3.55741,-2.119076 6.35906,-7.146702 1.64675,-2.955151 2.67634,-4.383076 4.39379,-6.093722 1.29265,-1.287529 1.90061,-1.745974 3.10038,-2.337876 1.91014,-0.942358 3.32308,-1.20394 4.94116,-0.914774 3.87666,0.692799 5.471,4.714795 2.8915,7.294299 -1.80589,1.805893 -3.39589,1.26919 -2.91283,-0.983231 0.36261,-1.690754 0.10569,-3.096054 -0.61669,-3.373259 -0.59977,-0.230151 -1.87434,-0.09597 -2.6805,0.282188 -1.26813,0.594859 -3.0003,2.4384 -3.87551,4.124697 -1.06195,2.046071 -1.51321,4.077337 -1.40353,6.317645 0.13082,2.672225 0.78775,3.828772 2.55776,4.503047 1.3715,0.522465 3.75215,0.640462 5.49775,0.272495 2.13546,-0.45015 3.71335,-1.331271 4.86849,-2.718653 1.33013,-1.597545 2.77186,-3.753187 4.20338,-6.284775 2.31457,-4.09324 4.32719,-6.537582 6.57299,-7.982932 3.05552,-1.966469 6.63258,-2.038755 8.7479,-0.176779 1.23714,1.088972 1.7574,2.224472 1.76284,3.847449 0.004,1.14799 -0.0732,1.482599 -0.57686,2.505715 -0.31972,0.649438 -0.98427,1.621706 -1.47679,2.160595 -1.71025,1.871293 -3.02775,2.336888 -7.19041,2.541053 -1.69237,0.08301 -3.10783,0.236848 -3.38819,0.368253 -0.59682,0.279732 -0.75857,0.991402 -0.49358,2.171611 0.27178,1.210435 0.58257,1.732891 1.5235,2.561129 1.92447,1.693981 5.50457,1.90044 8.30928,0.479181 2.71935,-1.377991 6.18907,-4.91728 7.25229,-7.397684 0.38697,-0.902763 0.63011,-1.101854 0.98545,-0.806944 0.45475,0.37741 0.28542,1.309887 -0.5314,2.926401 -1.57653,3.120012 -4.1948,6.016895 -6.54181,7.237942 -3.68275,1.915979 -8.26072,2.144516 -11.46176,0.572184 -1.61753,-0.794525 -3.12028,-2.55554 -3.65885,-4.287666 -0.08,-0.257413 -0.20437,-0.301339 -0.58447,-0.206487 -0.49927,0.124592 -0.59664,0.194816 -2.94906,2.126976 -1.54091,1.265614 -3.63486,2.384729 -5.28486,2.82449 -1.60769,0.428484 -5.02092,0.524921 -6.47396,0.182911 -2.6494,-0.623606 -4.51699,-2.00638 -5.5165,-4.08445 -0.33717,-0.700998 -0.73459,-1.32119 -0.88317,-1.378203 -0.34311,-0.131663 -1.13074,0.198258 -2.37347,0.994197 -1.4525,0.930295 -2.99221,1.521027 -4.51734,1.733154 -1.63705,0.227691 -2.69196,0.611094 -4.25228,1.545473 -1.98379,1.187962 -4.19993,1.602728 -6.71996,1.257688 -2.99775,-0.410448 -4.16583,-1.117965 -5.34031,-3.234675 -0.46453,-0.837202 -0.92793,-1.522186 -1.02977,-1.522186 -0.28091,0 -1.13511,0.64607 -2.84853,2.154488 -1.7687,1.557067 -2.67864,2.136044 -3.84558,2.446866 -1.66063,0.442319 -3.11477,-0.6145 -4.33795,-3.152669 -0.36064,-0.748332 -0.67891,-1.396505 -0.70728,-1.440381 -0.0284,-0.04387 -0.86126,0.755136 -1.85087,1.775585 -2.22329,2.292578 -3.1779,2.816574 -5.34857,2.935883 -1.2546,0.06896 -1.55409,0.02407 -2.37819,-0.356478 -1.24825,-0.576398 -1.81315,-1.180578 -2.63846,-2.821878 -0.37757,-0.75089 -0.71769,-1.365255 -0.75582,-1.365255 -0.0381,0 -0.88942,0.717665 -1.89178,1.594812 -4.41179,3.860724 -8.1672,4.239814 -9.20619,0.929319 -0.50517,-1.609633 -0.57015,-1.608828 -3.083922,0.03822 -2.7159,1.779481 -5.515755,2.503108 -7.827848,2.02312 -1.294717,-0.268783 -2.186422,-1.035147 -2.925607,-2.514385 -0.97242,-1.945989 -0.741705,-3.486488 1.21488,-8.111801 1.975387,-4.669763 2.155387,-5.696451 1.28904,-7.352673 -0.616755,-1.179058 -0.957623,-1.412421 -1.43373,-0.981547 -0.19434,0.175872 -1.000043,1.95618 -1.79046,3.956238 -3.409545,8.627489 -6.21303,12.583585 -11.73912,16.565487 -1.665852,1.20035 -2.819233,2.496099 -3.049951,3.426415 -0.324903,1.310105 -1.254883,3.69557 -2.000513,5.131475 -0.923162,1.777792 -2.765684,3.702802 -4.215312,4.40403 -1.350078,0.653077 -3.075208,0.781312 -4.090456,0.30405 z m 3.264624,-3.032625 c 0.694995,-0.49488 2.06163,-2.346803 2.662828,-3.608385 0.546155,-1.146083 0.643335,-2.120254 0.263348,-2.639918 -0.218072,-0.298231 -0.29649,-0.306453 -0.836769,-0.08773 -0.327882,0.132735 -1.436242,1.078212 -2.463023,2.101062 -2.014096,2.006378 -2.479685,2.802525 -2.086966,3.568673 0.52058,1.015582 1.570707,1.299945 2.460582,0.6663 z M 120.16363,65.798974 c 1.67518,-0.69994 3.11698,-2.466456 4.74676,-5.815841 1.22194,-2.511221 2.94637,-7.430844 2.86094,-8.162006 -0.0808,-0.691478 -0.71326,-0.939825 -2.18752,-0.858945 -3.59769,0.197373 -6.87841,3.599667 -8.189,8.492466 -0.50416,1.882171 -0.56795,5.020514 -0.11872,5.841467 0.16752,0.306136 0.40534,0.597152 0.52849,0.646701 0.4645,0.186892 1.75595,0.108148 2.35905,-0.143842 z m 27.58617,-0.318318 c 0.48906,-0.268114 0.79952,-0.650295 1.22763,-1.511204 0.31516,-0.633783 0.95923,-1.631434 1.43127,-2.217001 0.47204,-0.58557 1.00827,-1.356141 1.1916,-1.712382 1.13797,-2.211111 1.52041,-6.491176 0.72441,-8.107229 -0.27014,-0.548462 -0.68145,-1.009003 -1.21929,-1.365255 -1.56111,-1.034033 -2.85277,-0.604514 -5.1489,1.712168 -1.66839,1.68332 -2.649,3.321684 -3.34191,5.583515 -0.82537,2.694269 -0.87873,5.528794 -0.12513,6.647074 0.96354,1.429794 3.55146,1.90716 5.26032,0.970314 z m 45.00107,-7.901962 c 2.3788,-0.890021 4.18762,-3.234404 3.85667,-4.99854 -0.12583,-0.670743 -0.8563,-1.660806 -1.6072,-2.178384 -1.16225,-0.80111 -2.16323,-0.359771 -4.41399,1.946173 -2.26338,2.318862 -3.00655,3.974751 -2.26137,5.038653 0.56598,0.808043 2.54953,0.894135 4.42589,0.192098 z"
     id="path6" />
  <path
     style="fill:#000040;fill-opacity:1;stroke-width:0.176162"
     d="m 107.16708,43.290916 c -0.87511,-0.739758 -1.13004,-1.947946 -0.57748,-2.736836 0.37805,-0.539741 1.52072,-1.09381 2.25578,-1.09381 1.76048,0 2.10387,2.966391 0.45607,3.939766 -0.69115,0.408272 -1.57582,0.363044 -2.13437,-0.10912 z"
     id="path7" />
  <path
     style="fill:#000040;fill-opacity:1;stroke-width:0.176162"
     d="m 61.744753,83.490127 c -1.289627,-0.543914 -2.286663,-2.26752 -2.286663,-3.953017 0,-2.232773 1.670856,-4.304123 5.186693,-6.429914 2.756248,-1.666521 4.909631,-3.073902 5.142282,-3.360829 0.26175,-0.322814 1.117817,-3.448516 1.117981,-4.082012 7.1e-5,-0.27161 -0.09662,-0.483267 -0.220076,-0.481764 -0.121111,0.0015 -0.933658,0.568053 -1.80566,1.259067 -2.308135,1.829066 -2.935261,2.081499 -5.176338,2.083608 -2.286986,0.0022 -3.049563,-0.217029 -3.798239,-1.091688 -1.211499,-1.415364 -1.693686,-4.480527 -1.049235,-6.669783 0.648279,-2.202262 3.212225,-7.055715 4.500495,-8.519268 1.741271,-1.978187 6.374977,-4.456022 8.930616,-4.775571 1.115757,-0.13951 3.224936,0.423858 5.224638,1.395517 1.654965,0.804153 2.378183,1.349861 2.378183,1.79447 0,0.456744 -0.51558,0.491961 -2.807603,0.191774 -3.710785,-0.486002 -5.504222,-0.353324 -7.354743,0.544102 -1.991602,0.965844 -4.517229,3.579453 -5.509841,5.701779 -0.99953,2.137116 -1.61896,7.639122 -0.965125,8.5726 0.394197,0.562796 2.107239,0.550617 3.340659,-0.02375 1.682326,-0.78341 2.709952,-2.223801 5.704244,-7.995462 1.913192,-3.687782 2.722284,-4.864452 3.399399,-4.943774 0.602025,-0.07053 0.752722,0.356275 0.716047,2.028013 -0.0348,1.586179 -0.216742,2.618876 -1.21965,6.922447 -0.913422,3.919575 -1.178547,6.341829 -0.694139,6.341829 0.457525,0 1.509104,-0.603945 2.531752,-1.45404 2.659965,-2.211149 5.38428,-6.518908 7.409782,-11.716539 1.196325,-3.069903 1.719855,-5.115239 2.10816,-8.23629 0.385935,-3.102 0.59592,-3.673327 1.378118,-3.749649 0.697155,-0.06802 1.31766,0.622347 1.745212,1.941717 0.461108,1.422906 1.165598,2.551215 2.731073,4.374097 1.828072,2.128649 2.130547,2.711508 2.128567,4.101706 -0.0022,1.344533 -0.18675,1.86961 -1.746742,4.962011 -1.459208,2.892603 -1.79697,3.944191 -1.79697,5.594624 0,1.118878 0.0423,1.257045 0.536602,1.751312 0.527333,0.527334 0.561698,0.535282 1.989818,0.460325 2.674897,-0.140395 4.667107,-1.451743 6.5854,-4.334749 1.19767,-1.800002 1.93562,-3.489287 3.47882,-7.963641 0.65163,-1.889337 1.37188,-3.760821 1.60057,-4.158855 0.65816,-1.145544 1.55064,-1.578331 2.63652,-1.278507 0.78309,0.216224 0.78221,0.366176 -0.0185,3.14766 -2.08849,7.254341 -3.11654,13.192837 -2.54441,14.697649 0.57967,1.524676 3.30087,-0.733145 6.23095,-5.169933 0.80541,-1.219569 2.24772,-3.406492 3.20513,-4.859828 2.71904,-4.127501 5.18311,-6.402015 8.01982,-7.402865 0.40926,-0.144392 1.7212,-0.37687 2.91544,-0.516617 2.41405,-0.282487 2.6825,-0.379878 3.30573,-1.199263 0.50341,-0.661849 0.76336,-1.295578 2.43628,-5.939319 0.67988,-1.887257 1.41408,-3.833691 1.63154,-4.32541 0.81306,-1.838479 2.20391,-2.82907 3.25145,-2.315749 0.38847,0.190363 0.44827,0.326468 0.42025,0.956491 -0.0334,0.749648 -0.90401,3.866136 -2.96515,10.613422 -2.53032,8.283217 -3.60825,13.347046 -3.60825,16.950481 0,2.534107 0.2275,3.131978 1.19178,3.131978 1.68807,0 3.35202,-2.046502 6.85417,-8.429982 2.12893,-3.880448 3.08896,-5.320142 4.49734,-6.744358 2.14263,-2.166708 4.52311,-3.336049 6.80604,-3.343265 0.6552,-0.0021 1.4251,0.05269 1.71088,0.121701 1.82488,0.440633 3.74528,2.151903 4.79146,4.269684 0.64708,1.309878 0.66041,1.377541 0.64697,3.283739 -0.0134,1.901809 -0.0368,2.011945 -1.02345,4.817572 -0.62921,1.78925 -0.98916,3.083767 -0.95517,3.435157 0.0487,0.503162 0.12096,0.570201 0.67113,0.622493 0.96594,0.09181 1.82768,-0.258114 2.80948,-1.140839 1.17059,-1.05246 2.06894,-2.325883 4.15109,-5.884267 2.02082,-3.453558 3.21503,-5.06034 4.94732,-6.656541 2.60046,-2.396161 5.57535,-3.33942 8.13482,-2.579337 2.42165,0.719154 3.96376,3.278835 3.20082,5.312913 -0.33518,0.893626 -1.09714,1.831586 -1.84297,2.268672 -0.88138,0.516524 -1.33839,0.541166 -1.74309,0.09398 -0.26248,-0.290047 -0.28683,-0.561266 -0.18046,-2.01033 0.19567,-2.665572 -0.0444,-3.115407 -1.66265,-3.115407 -1.43316,0 -2.55361,0.606471 -3.99331,2.16148 -2.18426,2.359197 -3.17199,5.133043 -3.02544,8.496316 0.0967,2.21871 0.34258,3.041071 1.15909,3.876143 0.80787,0.826261 1.90251,1.167321 4.08576,1.273032 3.23871,0.156813 5.75073,-0.744037 7.55501,-2.709342 0.99142,-1.079902 2.90343,-3.872768 4.32355,-6.315396 1.71942,-2.957415 3.099,-4.865035 4.60285,-6.364617 3.47954,-3.469651 7.95657,-4.234765 10.69752,-1.828179 1.08509,0.952718 1.56855,1.957802 1.66505,3.461534 0.0791,1.232405 0.0465,1.385005 -0.55659,2.605266 -1.10784,2.241548 -2.65213,3.680409 -4.53836,4.228506 -0.7004,0.203524 -5.90017,0.779182 -7.24357,0.801925 -0.38058,0.0065 -0.83677,0.758555 -0.83677,1.379559 0,1.936236 1.07339,3.528077 2.96869,4.40255 1.318,0.608121 3.86128,0.750444 5.4189,0.303244 2.98097,-0.855856 6.88318,-4.264475 8.73769,-7.632457 0.73095,-1.327491 1.06503,-1.515947 1.16568,-0.65757 0.076,0.648331 -0.37378,1.804402 -1.33846,3.440044 -1.66611,2.824946 -4.00097,5.144371 -6.29899,6.257349 -3.2942,1.595444 -7.84894,1.766366 -10.78081,0.404563 -1.19927,-0.557039 -2.87393,-2.294782 -3.40382,-3.532031 -0.63716,-1.487736 -0.80115,-1.446447 -3.85925,0.971713 -1.59096,1.258025 -3.25911,2.211391 -4.89628,2.798265 -0.76615,0.274642 -1.61008,0.385566 -3.45713,0.454401 -2.75914,0.102826 -3.83382,-0.06324 -5.5007,-0.850007 -1.4926,-0.70451 -2.43052,-1.600645 -3.3966,-3.245257 -0.53724,-0.914578 -0.95128,-1.427308 -1.17946,-1.46061 -0.19338,-0.02822 -0.78489,0.192517 -1.31445,0.490534 -2.34871,1.321762 -3.81477,1.911733 -5.63113,2.26609 -1.48913,0.290516 -2.21755,0.551546 -3.73676,1.339067 -2.42691,1.258059 -3.72923,1.570723 -6.04023,1.450154 -2.23909,-0.116816 -3.91707,-0.625935 -4.85461,-1.472944 -0.3809,-0.34412 -1.03522,-1.19157 -1.45403,-1.883224 -0.46703,-0.77126 -0.89316,-1.275678 -1.10199,-1.304424 -0.21667,-0.02983 -1.10921,0.601358 -2.45444,1.735734 -3.65301,3.08044 -5.36358,3.521212 -6.99634,1.802782 -0.4149,-0.436669 -1.95486,-2.952089 -2.13125,-3.481236 -0.0341,-0.102469 -0.92752,0.634455 -1.98524,1.637607 -2.46088,2.333901 -3.16746,2.708074 -5.30423,2.808868 -1.40027,0.06605 -1.72659,0.02453 -2.41102,-0.306798 -0.99162,-0.480036 -1.88234,-1.455557 -2.56648,-2.810827 -0.29134,-0.577142 -0.61107,-1.099633 -0.71051,-1.16109 -0.0994,-0.06146 -0.9817,0.556203 -1.96058,1.372578 -3.02904,2.526198 -5.58126,3.60283 -7.22294,3.046929 -0.91399,-0.309495 -1.47652,-0.939931 -1.99736,-2.238482 -0.25652,-0.639575 -0.49319,-0.966452 -0.72445,-1.00057 -0.1889,-0.02787 -0.858208,0.272836 -1.48736,0.668232 -1.552418,0.97563 -4.134068,2.202637 -5.14152,2.443658 -0.454688,0.108777 -1.445595,0.196036 -2.20203,0.193909 -2.151008,-0.0061 -3.229755,-0.666486 -4.165928,-2.55048 -0.969562,-1.951173 -0.773272,-3.153687 1.400603,-8.580611 1.80849,-4.514782 1.91703,-5.769579 0.648232,-7.494164 -0.231667,-0.314889 -0.574117,-0.572526 -0.760995,-0.572526 -0.422977,0 -0.6771,0.490171 -2.295907,4.42861 -1.62633,3.956725 -3.57825,7.758834 -5.006685,9.752424 -1.42836,1.993485 -3.539445,4.153691 -5.61687,5.747549 -1.869259,1.434145 -3.398339,2.873331 -3.719629,3.500952 -0.123998,0.242223 -0.481799,1.189963 -0.795113,2.106093 -1.457345,4.261267 -3.256278,6.79602 -5.725703,8.067713 -0.984846,0.507172 -3.170844,0.719662 -3.963642,0.385289 z m 3.541764,-3.286065 c 0.810225,-0.731992 1.947648,-2.329627 2.456449,-3.45036 0.408347,-0.89946 0.451925,-2.280344 0.08166,-2.587635 -0.471192,-0.391055 -1.109334,-0.02542 -2.844649,1.629878 -2.824107,2.693895 -3.221291,3.51795 -2.191804,4.547437 0.754477,0.754478 1.558651,0.709635 2.498344,-0.13932 z M 120.51919,65.696563 c 1.57104,-0.760527 3.46254,-3.350644 4.98547,-6.826863 0.97433,-2.223965 2.30081,-6.177339 2.30081,-6.857193 0,-0.794193 -0.52847,-1.101713 -1.8933,-1.101713 -3.30158,0 -6.47184,2.733149 -8.07123,6.958397 -1.12617,2.975066 -1.28133,6.800089 -0.31897,7.863478 0.42082,0.465004 2.0014,0.445963 2.99722,-0.03611 z m 27.14611,-0.119029 c 0.48567,-0.252038 0.88675,-0.724247 1.54776,-1.822246 0.49072,-0.815127 1.25882,-1.977397 1.70688,-2.582822 1.30404,-1.762016 2.0207,-4.563589 1.86323,-7.28375 -0.12741,-2.20094 -1.18723,-3.625597 -2.83533,-3.811362 -1.34831,-0.151974 -1.98506,0.195633 -3.91623,2.137886 -2.31323,2.326513 -3.38046,4.375524 -3.94804,7.580045 -0.4224,2.384801 -0.15512,4.221017 0.75268,5.171037 1.0356,1.083763 3.35322,1.377102 4.82905,0.611212 z m 44.35822,-7.717504 c 1.30916,-0.340905 2.24341,-0.882163 3.2101,-1.859773 1.86576,-1.886826 1.92567,-3.851154 0.16349,-5.359521 -1.05701,-0.90476 -1.86879,-0.860221 -3.25037,0.178332 -1.17869,0.886034 -2.71206,2.561499 -3.54148,3.869656 -0.94243,1.486384 -0.66977,3.013213 0.59264,3.318607 0.72165,0.174578 1.80674,0.118013 2.82562,-0.147301 z"
     id="path8" />
  <path
     style="fill:#000040;fill-opacity:1;stroke-width:0.176162"
     d="m 25.983883,68.482828 c -1.260315,-0.413443 -3.347076,-3.149118 -3.347076,-4.387903 0,-0.254848 0.166367,-1.006802 0.369705,-1.671008 1.166656,-3.810908 3.613057,-6.303585 7.512893,-7.655006 0.557468,-0.19318 2.012245,-0.456736 3.232839,-0.585676 1.482438,-0.156603 2.374295,-0.336024 2.686216,-0.540402 0.795578,-0.521282 1.593287,-1.79565 3.863156,-6.17152 3.531733,-6.808498 5.198908,-9.426665 7.121588,-11.183888 1.348805,-1.23273 2.512957,-1.793147 3.927995,-1.890913 0.989218,-0.06835 1.227667,-0.02276 1.752094,0.334937 0.834354,0.569095 1.227539,1.317843 1.385615,2.638652 0.33983,2.839448 -0.603544,9.751881 -2.095581,15.355061 -0.494752,1.857992 -0.406567,2.121886 0.737432,2.20675 1.019564,0.07563 1.731922,-0.149681 4.474189,-1.415158 3.000585,-1.384684 4.139805,-1.788001 4.139805,-1.465616 0,0.450499 -1.786855,2.197437 -3.05329,2.985085 -0.694472,0.431919 -1.857224,1.015216 -2.583892,1.296215 -0.726668,0.281 -1.876124,0.724329 -2.554348,0.985173 -2.219932,0.853791 -2.353403,1.072469 -3.357509,5.500945 -0.849511,3.746658 -1.368843,5.155176 -2.070191,5.614718 -0.601512,0.394125 -2.381714,0.311496 -2.654547,-0.123215 -0.145688,-0.232129 -0.01193,-1.200276 0.559758,-4.051724 0.798811,-3.984248 0.903466,-5.285006 0.47449,-5.897456 -0.630282,-0.899854 -4.595513,-1.648551 -5.890387,-1.112196 -0.590408,0.244555 -1.246193,1.225614 -2.475478,3.703341 -1.802988,3.634076 -3.785641,5.895849 -6.161803,7.029267 -1.259911,0.600973 -1.425456,0.633972 -3.351244,0.668003 -1.153574,0.02039 -2.291341,-0.05129 -2.642429,-0.166466 z m 3.973671,-2.779287 c 0.879569,-0.425793 2.259433,-1.714549 3.012648,-2.813736 0.643949,-0.939732 3.231072,-5.64934 3.231072,-5.881856 0,-0.243802 -3.974703,0.01175 -5.189907,0.333689 -0.577556,0.153007 -1.319382,0.483586 -1.648503,0.734619 -0.789222,0.601969 -1.850764,2.267076 -2.307456,3.619415 -0.407652,1.20712 -0.482462,3.059099 -0.141072,3.492322 0.724273,0.919104 1.824543,1.105499 3.043218,0.515547 z M 46.942229,54.908536 c 1.053493,-0.362151 1.547102,-1.596624 3.429929,-8.577951 1.582963,-5.869459 2.019903,-8.57758 1.472295,-9.125188 -0.704613,-0.704612 -2.299725,0.237676 -3.817066,2.254873 -1.617086,2.149801 -4.42079,7.911648 -5.692955,11.699496 -0.770777,2.294981 -0.526686,3.385124 0.85035,3.797783 0.743694,0.222866 3.054227,0.192727 3.757447,-0.04901 z"
     id="path9" />
</svg>
