<?xml version="1.0" encoding="UTF-8" standalone="no"?>
<!DOCTYPE svg PUBLIC "-//W3C//DTD SVG 1.1//EN" 
  "http://www.w3.org/Graphics/SVG/1.1/DTD/svg11.dtd">
<svg
   version="1.0"
   width="398.00003pt"
   height="323pt"
   viewBox="0 0 398.00003 323"
   preserveAspectRatio="xMidYMid"
   id="svg85"
   sodipodi:docname="logo-batedeira_1.svg"
   inkscape:version="1.3 (0e150ed6c4, 2023-07-21)"
   xmlns:inkscape="http://www.inkscape.org/namespaces/inkscape"
   xmlns:sodipodi="http://sodipodi.sourceforge.net/DTD/sodipodi-0.dtd"
   xmlns="http://www.w3.org/2000/svg"
   xmlns:svg="http://www.w3.org/2000/svg">
  <defs
     id="defs85" />
  <sodipodi:namedview
     id="namedview85"
     pagecolor="#ffffff"
     bordercolor="#000000"
     borderopacity="0.25"
     inkscape:showpageshadow="2"
     inkscape:pageopacity="0.0"
     inkscape:pagecheckerboard="0"
     inkscape:deskcolor="#d1d1d1"
     inkscape:document-units="pt"
     inkscape:zoom="1.4142136"
     inkscape:cx="272.94322"
     inkscape:cy="112.07642"
     inkscape:window-width="1920"
     inkscape:window-height="1009"
     inkscape:window-x="-8"
     inkscape:window-y="-8"
     inkscape:window-maximized="1"
     inkscape:current-layer="svg85" />
  <g
     transform="matrix(0.1,0,0,-0.1,0,323)"
     fill="#000000"
     stroke="none"
     id="g85">
    <path
       d="m 1705,2771 c -476,-6 -481,-6 -508,-28 -101,-79 -150,-199 -163,-402 -10,-140 -3,-165 51,-197 25,-14 74,-35 110,-45 53,-16 68,-26 81,-50 8,-17 18,-29 20,-26 9,9 -15,55 -36,70 -18,13 -21,21 -15,47 4,18 16,47 27,65 l 19,33 -21,-5 c -21,-6 -21,-4 -19,118 2,107 6,131 26,172 29,59 44,97 38,97 -3,0 -18,-26 -34,-57 l -29,-58 2,52 c 1,29 -2,54 -7,56 -4,1 -1,19 8,39 13,33 13,37 0,32 -17,-7 -20,13 -6,35 8,12 89,15 500,19 502,5 550,2 664,-34 55,-18 136,-92 167,-155 13,-25 24,-75 30,-137 15,-150 13,-207 -7,-223 -15,-12 -16,-12 -9,6 6,18 6,19 -9,4 -19,-19 -10,-49 16,-49 10,0 19,-4 19,-10 0,-6 -88,-10 -242,-11 -441,-2 -530,-5 -586,-22 -69,-20 -112,-46 -137,-83 -18,-27 -24,-29 -50,-22 -28,8 -302,5 -310,-4 -2,-2 -16,-107 -30,-233 -33,-299 -44,-364 -66,-401 -11,-18 -16,-41 -13,-58 8,-44 -13,-135 -47,-204 -16,-34 -34,-62 -39,-62 -10,0 -44,40 -93,111 l -38,55 16,98 c 9,58 13,116 9,143 l -7,45 33,-17 c 18,-9 29,-12 26,-6 -9,14 0,14 26,0 13,-7 18,-7 14,-1 -9,15 -111,52 -143,52 -21,0 -24,2 -13,15 7,8 26,15 43,15 28,0 29,1 13,13 -17,12 -17,14 -1,27 15,12 22,12 56,-7 21,-12 39,-17 39,-12 0,5 -4,9 -8,9 -5,0 -17,7 -28,16 -18,15 -18,15 11,9 22,-4 26,-3 15,5 -34,22 -67,10 -135,-50 -38,-33 -73,-59 -79,-57 -10,3 -65,214 -66,250 0,10 20,39 44,65 24,26 55,70 69,97 34,68 69,189 60,211 -4,12 -3,15 5,10 8,-5 12,3 11,26 -1,23 -3,26 -6,11 -2,-13 -9,-23 -14,-23 -5,0 -9,-17 -9,-38 0,-51 -26,-127 -62,-180 -16,-23 -27,-46 -24,-50 2,-4 -2,-16 -10,-27 -8,-10 -14,-14 -14,-9 0,6 5,15 12,22 7,7 8,12 2,12 -5,0 -18,-14 -29,-30 -23,-35 -35,-38 -35,-11 0,11 -5,23 -12,27 -11,7 -9,-10 7,-48 4,-11 3,-18 -3,-18 -6,0 -22,25 -37,55 -22,48 -25,65 -21,129 5,79 17,111 90,224 24,37 50,83 59,103 8,20 20,40 26,43 10,6 30,-28 45,-76 3,-10 10,-18 15,-18 14,0 -9,64 -34,97 l -23,28 -19,-34 c -10,-19 -53,-87 -96,-152 -44,-65 -76,-122 -73,-127 3,-5 1,-45 -3,-88 -7,-58 -6,-81 2,-86 9,-5 8,-8 -2,-8 -11,0 -10,-4 5,-16 10,-8 13,-13 7,-9 -20,10 -16,-3 17,-51 26,-39 67,-180 56,-191 -2,-3 -17,22 -32,53 -55,110 -171,196 -343,255 -62,22 -61,22 -80,10 -35,-23 145,-282 199,-286 14,-1 41,-5 60,-9 30,-5 29,-4 -8,8 -24,8 -59,25 -78,38 -50,33 -191,236 -167,239 33,5 74,-10 181,-63 89,-45 131,-72 151,-98 43,-56 94,-140 88,-146 -3,-3 -13,8 -23,25 -10,17 -25,31 -33,31 -10,0 -7,-8 10,-26 l 24,-26 -55,6 c -42,6 -51,4 -40,-4 11,-9 4,-10 -30,-4 -25,3 -53,10 -62,16 -10,5 -18,6 -18,3 0,-17 77,-35 147,-35 97,0 118,-12 131,-77 9,-42 8,-50 -9,-66 -40,-37 -22,-82 71,-176 39,-40 87,-101 106,-135 19,-35 43,-71 54,-81 33,-30 22,-35 -23,-10 -23,13 -76,36 -117,51 -41,15 -91,39 -110,54 -44,34 -80,53 -87,46 -8,-8 -93,82 -93,98 0,8 -8,20 -18,27 -15,13 -16,12 -3,-4 8,-9 11,-20 8,-23 -3,-3 -12,3 -19,15 -7,12 -17,21 -21,21 -5,0 8,-20 29,-45 l 36,-45 h -30 c -24,0 -42,13 -97,73 l -67,72 61,-75 c 60,-72 61,-75 39,-83 -42,-16 -56,-16 -63,1 -5,13 -8,14 -15,3 -4,-8 -6,-20 -4,-26 6,-15 -66,-47 -154,-70 -66,-17 -102,-34 -102,-48 0,-11 37,-43 73,-63 41,-22 30,6 -12,31 -62,36 -50,48 75,79 33,8 87,27 120,42 32,15 81,29 109,32 37,4 45,7 30,13 -17,6 -16,8 8,8 17,1 26,-3 22,-9 -4,-7 2,-9 19,-4 17,4 26,2 26,-6 0,-6 5,-8 10,-5 6,3 10,2 10,-4 0,-5 27,-24 60,-42 33,-17 60,-35 60,-38 0,-3 -30,-17 -68,-30 -37,-14 -87,-37 -112,-52 -58,-35 -99,-46 -185,-52 -38,-3 -59,-3 -46,0 21,4 16,8 -30,24 -30,10 -55,18 -56,19 -2,0 -3,-6 -3,-14 0,-44 177,-61 256,-26 24,11 58,23 76,27 25,5 28,8 14,13 -16,5 -12,9 19,24 21,10 50,20 64,21 14,1 35,6 46,12 48,26 90,16 220,-51 73,-38 77,-41 50,-45 -26,-3 -28,-4 -10,-11 19,-8 19,-9 -2,-9 -12,-1 -24,-7 -27,-13 -3,-7 -3,-3 0,9 4,18 2,22 -10,17 -9,-3 -13,-11 -9,-17 3,-6 1,-7 -5,-3 -18,11 -83,-38 -151,-114 -34,-39 -87,-86 -117,-105 -30,-19 -54,-40 -54,-47 0,-20 33,-36 110,-54 101,-23 163,-8 223,51 29,30 36,50 13,42 -13,-5 -13,0 0,41 7,26 14,48 14,50 0,2 5,0 11,-3 6,-4 13,2 16,14 3,11 9,18 14,16 4,-3 16,6 25,21 13,19 14,28 5,33 -9,6 -7,14 8,32 10,13 23,20 28,16 4,-5 0,-15 -11,-22 -10,-8 -15,-18 -12,-24 4,-6 2,-20 -4,-32 -19,-34 -6,-32 32,5 27,26 35,30 31,15 -3,-10 -1,-19 5,-19 6,0 8,-9 5,-20 -5,-17 -14,-20 -61,-20 -30,0 -53,-2 -51,-4 9,-8 159,-13 159,-5 0,5 -6,9 -14,9 -8,0 -18,5 -22,12 -4,7 -3,8 4,4 9,-5 11,7 10,41 -1,26 2,57 7,67 6,14 5,17 -3,12 -14,-9 -15,-1 -3,22 4,9 11,31 15,47 l 6,30 -15,-25 c -11,-19 -14,-21 -15,-7 0,16 37,217 46,246 7,23 39,-14 95,-108 27,-47 47,-75 43,-61 -11,40 -31,74 -83,144 l -50,66 15,82 c 22,122 26,151 26,170 -1,10 4,20 9,23 13,8 6,-124 -8,-150 -5,-11 -13,-45 -17,-75 l -7,-55 20,30 c 11,16 23,50 27,75 4,25 12,56 19,70 7,14 18,43 24,65 l 11,40 -26,-30 -25,-30 25,52 c 24,47 34,129 15,117 -5,-3 -2,11 6,30 8,20 15,43 15,53 0,16 -1,15 -13,-2 -38,-56 -51,-78 -39,-72 17,11 15,1 -5,-31 l -17,-27 22,19 c 29,25 28,18 -3,-25 l -26,-34 5,55 c 2,30 8,93 12,140 4,47 6,93 5,103 -1,9 2,17 8,17 6,0 8,-7 5,-15 -4,-8 -2,-15 4,-15 6,0 8,-10 6,-22 -3,-17 -1,-16 10,6 11,25 11,32 1,43 -8,7 -18,13 -24,13 -6,0 -11,5 -11,10 0,6 35,10 88,9 48,-1 80,-3 70,-6 -9,-2 -19,-11 -22,-20 -5,-11 -2,-14 10,-9 8,3 22,6 31,6 9,0 13,6 9,15 -4,12 4,15 42,15 26,0 57,-3 68,-6 21,-5 21,-8 8,-51 -20,-65 -17,-188 6,-333 44,-269 110,-407 247,-521 34,-28 63,-44 74,-42 9,3 27,-4 39,-14 67,-56 63,-49 45,-77 -19,-29 -10,-36 11,-8 11,14 13,15 14,1 0,-8 -5,-20 -12,-27 -6,-6 -9,-15 -5,-18 3,-4 12,5 18,20 14,29 31,36 23,8 -5,-16 -5,-16 9,1 14,17 52,14 41,-4 -3,-5 0,-9 5,-9 6,0 11,5 11,10 0,6 5,10 11,10 5,0 7,-5 3,-12 -5,-8 -2,-9 10,-5 10,4 37,2 60,-4 22,-6 96,-11 164,-10 102,1 135,5 195,25 65,22 74,23 95,10 25,-16 30,-65 9,-83 -7,-6 -38,-17 -68,-25 -30,-8 -49,-15 -44,-16 6,0 -12,-10 -39,-20 -27,-11 -53,-17 -58,-14 -4,3 -8,-1 -8,-8 0,-9 -3,-9 -10,2 -8,13 -10,12 -10,-2 0,-26 -28,-22 -33,4 -3,17 -5,14 -6,-9 0,-18 -5,-33 -10,-33 -6,0 -12,15 -14,33 -3,28 -4,26 -5,-10 -2,-35 1,-43 16,-43 10,0 22,4 27,9 6,4 33,17 60,27 28,10 64,26 80,36 41,24 45,23 45,-14 0,-23 3,-29 9,-19 5,7 6,22 3,33 -3,15 -1,19 9,16 9,-3 13,-17 11,-39 l -3,-34 20,24 c 10,14 17,31 14,38 -3,7 0,13 6,13 6,0 11,-5 11,-11 0,-6 6,-9 14,-6 14,6 75,-38 66,-46 -3,-2 -43,-13 -90,-25 -115,-28 -270,-49 -420,-57 -141,-8 -752,13 -787,26 -13,5 -23,16 -23,25 0,10 5,14 15,10 11,-4 15,2 14,22 0,24 -1,25 -9,7 l -9,-20 v 20 c -1,11 -6,27 -11,35 -7,12 -11,10 -19,-10 -9,-23 -10,-22 -12,15 -1,22 0,45 1,50 7,30 1,90 -9,93 -6,2 -11,8 -11,13 0,6 4,8 9,4 6,-3 8,5 6,17 -2,13 -6,44 -10,70 -3,26 -10,50 -14,53 -5,2 -4,-16 0,-42 5,-26 5,-70 0,-102 -8,-50 -2,-134 14,-211 4,-16 -7,-6 -29,30 -43,67 -52,102 -36,141 15,36 25,32 11,-5 -12,-31 -6,-35 9,-6 6,11 7,32 4,46 l -7,27 -19,-34 -19,-34 6,45 c 4,34 3,41 -6,30 -8,-12 -10,-10 -6,10 2,14 1,36 -3,50 -7,22 -8,19 -9,-15 -1,-22 -10,-55 -21,-73 -21,-34 -25,-52 -12,-52 5,0 13,12 20,28 11,27 10,11 -4,-38 -6,-23 -5,-23 7,-8 13,16 17,11 41,-48 l 27,-66 -27,23 -27,24 20,-25 c 11,-14 28,-31 39,-39 14,-11 15,-15 5,-22 -11,-7 -11,-9 1,-10 8,0 4,-5 -10,-10 -20,-7 -17,-8 16,-5 23,2 48,-1 55,-6 9,-6 -17,-8 -76,-4 -266,16 -350,18 -340,8 13,-14 210,-41 354,-49 l 113,-6 60,-44 c 67,-49 151,-103 162,-103 4,0 -29,27 -73,61 -44,33 -83,64 -86,69 -3,5 137,6 332,3 435,-7 666,11 856,68 l 69,20 57,-54 c 31,-30 72,-62 91,-72 45,-23 159,-31 232,-16 53,11 108,42 108,61 0,5 -33,32 -72,61 -40,28 -92,70 -116,91 -77,70 -161,93 -282,76 -48,-6 -28,30 42,74 36,24 91,65 121,91 l 55,48 40,-14 c 22,-8 77,-41 123,-74 154,-111 229,-121 383,-53 93,41 156,81 156,101 0,13 -38,30 -104,46 -34,8 -106,35 -161,61 -99,46 -101,47 -200,45 -55,-1 -113,-6 -129,-12 -16,-7 -30,-10 -32,-8 -2,1 16,30 39,64 23,34 49,75 59,91 9,17 31,38 48,47 32,17 33,16 60,-13 43,-47 87,-66 155,-66 78,0 128,18 178,63 93,84 87,194 -14,246 -101,53 -309,-38 -340,-148 -11,-37 -46,-84 -55,-74 -2,2 18,55 46,118 56,130 82,157 197,205 38,15 83,38 102,50 75,50 152,171 167,262 8,51 10,50 -105,16 -112,-34 -153,-56 -212,-111 -27,-25 -49,-40 -49,-33 0,7 -20,57 -45,112 -25,55 -45,106 -45,114 0,8 -12,41 -27,74 -21,48 -31,60 -49,60 -18,0 -25,-9 -38,-47 -70,-217 -63,-298 33,-425 22,-30 52,-80 66,-112 l 26,-58 -21,-63 c -34,-103 -162,-336 -176,-322 -3,2 4,25 15,50 54,126 55,194 5,370 -20,73 -44,140 -52,150 -15,16 -16,16 -38,-4 -36,-34 -77,-137 -82,-206 -4,-57 -1,-70 42,-161 32,-68 46,-112 47,-143 0,-34 2,-39 9,-24 6,13 9,15 9,5 1,-8 4,-26 7,-40 5,-20 4,-22 -6,-10 -9,12 -10,8 -5,-18 6,-30 1,-38 -66,-107 -65,-68 -204,-175 -226,-175 -17,0 -31,22 -26,40 3,12 18,19 45,23 37,5 89,37 61,37 -7,0 -15,-4 -18,-10 -3,-5 -14,-10 -23,-9 -11,0 -9,4 8,10 19,8 22,12 10,19 -8,5 -19,6 -25,3 -5,-3 2,7 18,24 31,34 37,55 7,28 -11,-10 -20,-15 -20,-10 0,4 -9,-3 -20,-16 -34,-42 -23,1 26,102 26,52 52,110 59,129 l 12,35 16,-30 c 9,-17 16,-25 16,-20 0,6 -6,21 -14,35 -16,29 -18,40 -7,40 31,0 58,-128 33,-153 -6,-6 -11,-19 -11,-29 0,-26 -27,-77 -57,-109 -21,-23 -22,-27 -8,-33 38,-14 105,114 105,200 0,47 -20,107 -46,135 -14,15 -14,25 -4,71 7,29 14,121 17,203 l 6,150 45,50 c 56,63 87,126 67,138 -8,4 -137,1 -287,-8 -150,-8 -291,-14 -313,-14 l -40,1 43,9 c 53,10 97,36 113,65 6,13 21,24 33,26 15,2 22,11 24,31 2,19 9,27 23,27 20,0 20,5 17,131 l -3,131 29,-6 c 15,-3 52,-3 82,0 l 54,7 v 61 c 0,71 -22,124 -60,144 -16,8 -44,10 -80,6 l -56,-5 -46,58 c -61,78 -108,109 -198,132 -106,27 -140,28 -675,22 z m -480,-166 c 0,-38 -4,-60 -13,-62 -7,-3 -10,1 -6,11 3,9 1,16 -5,16 -7,0 -7,8 1,26 9,19 9,30 1,44 -12,19 -6,33 11,27 6,-2 11,-30 11,-62 z m -9,-113 c -22,-23 -29,-10 -9,18 11,16 18,19 21,11 2,-7 -3,-20 -12,-29 z m -98,-16 c -2,-1 -12,-8 -22,-16 -18,-14 -18,-14 -6,7 8,12 18,19 23,16 4,-3 7,-6 5,-7 z m 112,-6 c 0,-5 -5,-10 -11,-10 -5,0 -7,5 -4,10 3,6 8,10 11,10 2,0 4,-4 4,-10 z m 0,-169 c 0,-115 -3,-140 -15,-145 -13,-4 -14,-2 -5,14 9,16 8,18 -6,13 -14,-5 -15,-3 -4,17 11,20 10,22 -5,16 -16,-6 -16,-5 0,21 12,18 14,28 6,31 -6,2 -8,8 -5,14 3,5 -2,15 -12,23 -11,7 -16,17 -11,21 4,4 7,2 7,-4 0,-6 7,-9 15,-6 8,4 15,13 15,21 0,9 -5,11 -12,7 -8,-5 -8,-1 1,10 13,15 13,19 0,27 -12,7 -12,9 0,9 8,0 11,3 8,6 -6,7 9,44 18,44 3,0 5,-63 5,-139 z m -141,87 c -17,-33 -21,-36 -17,-13 2,17 16,34 26,35 1,0 -3,-10 -9,-22 z m 1658,-4 c -3,-3 -12,-4 -19,-1 -8,3 -5,6 6,6 11,1 17,-2 13,-5 z m 534,-284 c 17,-41 42,-111 55,-155 13,-44 22,-66 20,-50 -3,17 -7,39 -11,50 -4,14 -2,12 9,-5 24,-40 38,-123 27,-162 -9,-31 -9,-29 -12,27 -2,58 -2,57 -9,-25 -7,-87 -25,-160 -40,-160 -5,0 -18,30 -30,68 -13,37 -38,92 -56,123 -19,31 -43,76 -54,100 -11,24 -20,38 -20,31 0,-21 27,-79 59,-126 17,-25 31,-48 31,-52 0,-15 -43,33 -68,76 -24,40 -27,54 -24,127 2,75 28,187 54,237 10,18 11,18 24,-5 7,-13 28,-58 45,-99 z m -1241,-36 c 0,-17 6,-28 20,-31 11,-3 20,-11 20,-17 0,-15 35,-49 67,-65 12,-6 50,-15 85,-19 l 63,-7 -95,-6 c -52,-4 -189,-7 -304,-8 -168,-1 -207,-3 -197,-13 9,-10 84,-13 307,-13 161,0 294,-3 294,-7 0,-4 -10,-8 -22,-10 -19,-2 -24,-10 -26,-45 l -3,-42 40,-3 41,-3 -30,-45 c -39,-58 -85,-186 -105,-291 -8,-45 -16,-83 -18,-84 -7,-6 -47,-25 -51,-25 -3,0 -6,24 -6,53 0,115 56,249 138,331 25,25 40,46 33,46 -23,0 -119,-101 -149,-158 -41,-77 -53,-129 -53,-220 0,-74 -1,-78 -32,-106 -28,-25 -29,-26 -5,-12 48,28 65,13 31,-28 -10,-12 -11,-15 -3,-8 32,28 43,-7 13,-41 -17,-19 -17,-20 4,-8 28,15 33,14 33,-4 0,-9 -7,-18 -15,-21 -8,-4 -15,-11 -15,-16 0,-6 7,-4 16,3 14,11 18,11 28,-3 106,-150 155,-198 205,-198 56,0 122,64 177,173 13,26 26,47 29,47 2,0 15,-19 29,-42 24,-40 24,-43 8,-62 -16,-18 -16,-18 5,-7 19,10 24,8 39,-14 9,-14 19,-24 21,-21 3,2 -3,16 -12,30 -9,14 -15,31 -13,38 7,20 40,-51 33,-71 -8,-25 -103,-66 -196,-85 -72,-15 -79,-15 -180,8 -242,55 -383,163 -478,367 -74,159 -92,233 -107,446 -3,57 -10,100 -15,97 -14,-8 -10,-242 5,-314 15,-71 86,-255 119,-310 46,-77 47,-83 8,-40 -88,97 -147,258 -177,485 -22,163 -14,303 18,340 49,57 138,83 286,84 l 92,1 z m 440,11 c 0,-13 -28,-15 -195,-15 -107,0 -195,3 -195,8 0,4 30,9 67,10 38,2 70,5 72,8 2,2 60,4 128,4 103,0 123,-2 123,-15 z m 40,0 c 0,-8 -4,-15 -10,-15 -5,0 -10,7 -10,15 0,8 5,15 10,15 6,0 10,-7 10,-15 z m 1219,-93 c -5,-24 -19,-62 -30,-83 -30,-61 -118,-142 -175,-163 -27,-10 -74,-32 -104,-49 -57,-31 -57,-30 -6,33 12,14 1,6 -23,-18 -24,-24 -41,-36 -37,-25 4,10 16,48 26,85 34,125 102,196 211,224 35,9 80,24 99,33 19,10 38,15 42,12 4,-3 3,-26 -3,-49 z m -1299,29 c 0,-6 -4,-13 -10,-16 -5,-3 -10,0 -10,7 0,9 -3,9 -10,-2 -7,-11 -10,-11 -10,-2 0,7 -4,10 -10,7 -5,-3 -10,-1 -10,4 0,6 14,11 30,11 17,0 30,-4 30,-9 z m 560,-102 c 0,-6 -22,-41 -49,-78 l -49,-67 -11,-145 c -18,-233 -19,-239 -51,-239 -15,0 -44,-11 -64,-25 -20,-14 -38,-25 -40,-25 -2,0 -22,54 -46,120 -46,133 -61,146 -96,85 l -20,-34 -52,77 c -28,42 -72,105 -97,140 l -46,62 h 28 c 22,0 25,2 13,11 -10,7 -11,12 -4,15 7,3 10,14 7,24 -7,27 -47,20 -51,-8 -3,-16 1,-20 12,-16 9,3 16,1 16,-5 0,-7 -20,-11 -49,-11 -47,0 -49,1 -53,30 -6,38 -4,40 48,40 33,0 42,3 38,14 -7,18 50,24 330,31 l 209,5 -15,-22 c -13,-19 -13,-25 -2,-35 10,-10 17,-6 35,20 32,45 59,61 59,36 z m -60,-18 c -10,-20 -30,-37 -30,-26 0,11 25,45 33,45 4,0 3,-9 -3,-19 z m -615,-11 c 3,-5 1,-10 -4,-10 -6,0 -11,5 -11,10 0,6 2,10 4,10 3,0 8,-4 11,-10 z m 45,0 c 0,-5 -7,-10 -16,-10 -8,0 -12,5 -9,10 3,6 10,10 16,10 5,0 9,-4 9,-10 z m -93,-50 c -2,-35 -17,-41 -17,-7 0,21 7,37 16,37 2,0 2,-13 1,-30 z m 92,-88 c 0,-24 -1,-25 -9,-7 -12,28 -12,47 0,40 6,-3 10,-18 9,-33 z m 741,-78 c 32,-91 34,-108 34,-214 -1,-97 -4,-124 -25,-175 -19,-49 -24,-56 -27,-35 -2,14 -8,29 -13,34 -5,6 -9,21 -9,35 0,13 -6,32 -14,40 -44,52 -81,260 -56,323 21,54 51,99 64,95 6,-2 27,-48 46,-103 z m -735,-105 c 25,-128 27,-156 22,-288 -5,-147 -29,-270 -53,-278 -7,-2 -21,30 -35,79 -21,74 -24,103 -24,263 1,154 4,194 24,273 12,50 26,92 30,92 4,0 20,-64 36,-141 z m 93,34 c 78,-119 86,-145 72,-215 -7,-32 -10,-80 -7,-106 4,-35 1,-59 -13,-90 -11,-23 -20,-42 -22,-42 -2,0 -1,38 1,85 3,93 -13,190 -58,348 -16,53 -28,97 -26,97 1,0 25,-35 53,-77 z m 1072,-13 c 0,-5 6,-7 14,-4 17,6 76,-22 76,-37 0,-5 -13,-3 -30,6 -16,8 -42,15 -57,15 -27,0 -113,-34 -113,-44 0,-6 24,2 60,21 30,15 69,17 90,3 8,-5 11,-10 5,-11 -5,0 8,-6 30,-13 22,-7 41,-12 43,-11 7,6 -35,65 -53,74 -15,7 -16,10 -4,10 29,2 83,-43 93,-76 12,-45 -5,-82 -65,-138 -55,-51 -49,-61 8,-13 l 38,32 -32,-34 c -31,-33 -34,-34 -123,-37 -74,-3 -100,1 -136,16 -24,11 -44,25 -44,32 0,8 4,8 13,1 9,-7 23,-8 43,-3 16,6 21,10 11,10 -10,1 -16,5 -13,10 3,4 -5,6 -18,4 -29,-6 -40,10 -26,37 7,14 8,20 0,20 -6,0 -13,-7 -16,-15 -4,-8 -10,-15 -16,-15 -5,0 4,24 19,53 20,37 34,52 48,50 10,-1 28,5 39,13 11,8 15,14 9,14 -7,0 -15,-4 -18,-10 -3,-5 -12,-10 -18,-9 -16,0 29,31 67,46 39,14 76,16 76,3 z m -546,-119 c -8,-8 -24,52 -23,87 1,32 3,30 14,-23 7,-33 12,-62 9,-64 z m -297,-82 c 28,-90 53,-180 53,-199 1,-29 3,-31 10,-15 7,16 9,14 9,-15 1,-26 -2,-31 -9,-20 -7,12 -10,8 -10,-15 -1,-33 -49,-99 -57,-77 -3,7 -12,19 -20,27 -8,9 -12,22 -9,30 3,8 1,15 -4,15 -5,0 0,16 12,35 11,20 18,38 15,41 -3,3 -13,-8 -21,-24 -24,-46 -32,-46 -61,3 -26,44 -26,47 -14,124 9,56 9,93 2,130 -8,42 -7,57 8,92 11,22 24,39 31,37 7,-3 36,-78 65,-169 z M 975,1481 c 15,-47 1,-218 -19,-239 -4,-3 -31,19 -62,49 -55,53 -94,113 -94,144 0,16 58,57 71,49 4,-2 10,0 14,6 3,5 24,10 45,10 29,0 40,-5 45,-19 z m 1261,-139 c -14,-13 -17,12 -10,70 l 9,63 3,-64 c 2,-35 1,-66 -2,-69 z m -944,93 c -2,-14 -6,-25 -8,-25 -2,0 -4,11 -4,25 0,14 4,25 9,25 4,0 6,-11 3,-25 z m 1172,-174 c 1,-79 -4,-119 -17,-158 -32,-90 -45,-82 -25,15 10,48 18,132 18,187 1,78 3,96 12,81 6,-11 11,-67 12,-125 z m 93,57 c -2,-13 -4,-5 -4,17 -1,22 1,32 4,23 2,-10 2,-28 0,-40 z m 297,4 c -11,-46 -56,-152 -67,-159 -7,-4 -8,9 -4,40 5,36 4,45 -7,41 -23,-9 -25,32 -4,68 l 20,33 -21,-19 c -11,-11 -21,-15 -21,-10 0,20 21,30 65,32 45,2 45,1 39,-26 z m -674,4 c 0,-8 -10,-22 -22,-31 -21,-14 -23,-14 -26,0 -2,9 5,23 15,30 23,18 33,18 33,1 z m 60,-20 c 0,-16 -18,-31 -27,-22 -8,8 5,36 17,36 5,0 10,-6 10,-14 z m -76,-63 c -17,-12 -19,-12 -23,3 -2,10 5,24 15,31 17,12 19,12 23,-3 2,-10 -5,-24 -15,-31 z m 81,-35 c 4,-34 11,-75 16,-91 11,-37 5,-46 -11,-17 -15,27 -41,151 -34,162 13,21 23,3 29,-54 z m -61,0 c -7,-10 -34,-10 -34,0 0,4 5,13 12,20 9,9 14,9 19,0 4,-7 5,-16 3,-20 z m 14,-57 c 17,-55 15,-61 -8,-23 -21,34 -26,62 -12,62 5,0 14,-17 20,-39 z m 411,-13 c 13,-21 18,-38 12,-38 -13,0 -51,59 -51,80 0,17 10,7 39,-42 z m 721,17 c 27,-4 30,-3 15,4 -19,9 -18,10 5,10 14,0 32,-4 40,-9 12,-8 12,-10 -5,-10 -20,-1 153,-62 268,-95 44,-13 57,-21 55,-33 -4,-22 -93,-66 -183,-92 -132,-38 -204,-23 -312,65 -31,25 -70,54 -87,63 l -31,16 47,8 c 40,7 56,4 104,-17 77,-34 83,-30 9,6 -53,26 -56,29 -25,25 28,-5 31,-3 17,5 -10,6 -32,7 -49,4 -23,-6 -29,-4 -23,5 6,10 -2,11 -36,6 -55,-9 -43,6 27,34 33,14 62,18 89,15 22,-3 56,-8 75,-10 z m -419,-82 c -12,-20 -14,-14 -5,12 4,9 9,14 11,11 3,-2 0,-13 -6,-23 z m 246,21 c -3,-3 -12,-4 -19,-1 -8,3 -5,6 6,6 11,1 17,-2 13,-5 z m -1981,-58 c -8,-50 -15,-59 -36,-46 -11,7 -9,17 10,54 14,25 26,43 28,41 3,-2 1,-24 -2,-49 z m 1581,-18 c -3,-8 -6,-5 -6,6 -1,11 2,17 5,13 3,-3 4,-12 1,-19 z m -25,-37 c -3,-20 -8,-28 -18,-24 -17,6 -18,25 -2,41 19,19 25,14 20,-17 z M 1030,935 C 989,875 970,819 970,756 v -52 l -44,-16 c -27,-10 -69,-16 -108,-14 -63,2 -138,26 -138,45 0,6 19,21 43,35 23,14 78,62 122,106 75,77 119,110 145,110 6,0 8,-5 5,-10 -4,-6 8,-4 27,4 18,8 34,15 36,15 2,1 -11,-19 -28,-44 z m 1050,25 c 8,-5 11,-10 5,-10 -5,0 -17,5 -25,10 -8,5 -10,10 -5,10 6,0 17,-5 25,-10 z m -673,-82 c -3,-7 -5,-2 -5,12 0,14 2,19 5,13 2,-7 2,-19 0,-25 z m 1332,1 c -16,-10 -23,-4 -14,10 3,6 11,8 17,5 6,-4 5,-9 -3,-15 z m 31,-28 c 0,-5 -16,-11 -35,-13 -42,-5 -43,-3 -8,16 28,14 43,13 43,-3 z m 177,-16 c 20,-8 79,-46 132,-84 53,-37 115,-81 139,-96 72,-47 59,-56 -107,-66 -149,-9 -161,-5 -242,77 -42,43 -54,62 -54,87 -1,18 4,36 10,40 7,6 6,10 -2,14 -21,8 -15,31 10,36 46,9 79,7 114,-8 z m 81,-14 c 20,-11 57,-38 82,-61 55,-50 40,-44 -58,27 -78,56 -85,66 -24,34 z M 1437,718 c -3,-8 -6,-5 -6,6 -1,11 2,17 5,13 3,-3 4,-12 1,-19 z"
       id="path1"
       style="fill:#ffd42a" />
    <path
       d="m 3270,1785 c 0,-5 5,-17 10,-25 5,-8 10,-10 10,-5 0,6 -5,17 -10,25 -5,8 -10,11 -10,5 z"
       id="path2"
       style="fill:#ffd42a" />
    <path
       d="m 3291,1733 c 0,-5 9,-26 19,-48 17,-35 19,-36 14,-10 -10,51 -15,65 -25,65 -5,0 -9,-3 -8,-7 z"
       id="path3"
       style="fill:#ffd42a" />
    <path
       d="m 1763,1710 c 0,-30 2,-43 4,-27 2,15 2,39 0,55 -2,15 -4,2 -4,-28 z"
       id="path4"
       style="fill:#ffd42a" />
    <path
       d="m 1791,1670 c -1,-36 17,-115 24,-108 3,2 -2,35 -9,74 -10,50 -14,60 -15,34 z"
       id="path5"
       style="fill:#ffd42a" />
    <path
       d="m 2822,1865 c 0,-16 3,-39 8,-50 8,-18 9,-18 8,5 0,14 -4,36 -8,50 -8,24 -8,24 -8,-5 z"
       id="path6"
       style="fill:#ffd42a" />
    <path
       d="m 2795,1599 c -18,-7 -19,-8 -1,-8 16,-1 17,-6 11,-38 -9,-51 -11,-53 -53,-54 l -37,-1 33,-11 c 29,-9 33,-14 27,-36 -5,-24 -4,-24 14,6 11,17 30,33 43,36 l 23,4 -23,2 c -21,1 -22,4 -16,39 3,20 14,44 25,53 18,16 17,16 -4,16 -12,0 -31,-3 -42,-8 z"
       id="path7"
       style="fill:#ffd42a" />
    <path
       d="m 3051,1403 c 0,-29 2,-33 8,-18 7,18 4,55 -5,55 -2,0 -4,-17 -3,-37 z"
       id="path8"
       style="fill:#ffd42a" />
    <path
       d="m 3483,1393 c 9,-2 23,-2 30,0 6,3 -1,5 -18,5 -16,0 -22,-2 -12,-5 z"
       id="path9"
       style="fill:#ffd42a" />
    <path
       d="m 3516,1363 c -20,-10 -46,-14 -83,-11 -30,3 -48,1 -41,-3 32,-21 158,-3 158,23 0,10 1,10 -34,-9 z"
       id="path10"
       style="fill:#ffd42a" />
    <path
       d="m 3555,1350 c -3,-6 1,-7 9,-4 18,7 21,14 7,14 -6,0 -13,-4 -16,-10 z"
       id="path11"
       style="fill:#ffd42a" />
    <path
       d="m 837,1420 c 3,-11 9,-22 13,-25 5,-3 6,4 3,15 -3,11 -9,22 -13,25 -5,3 -6,-4 -3,-15 z"
       id="path12"
       style="fill:#ffd42a" />
    <path
       d="m 860,1373 c 0,-6 8,-17 18,-24 16,-13 16,-13 2,6 -8,11 -16,22 -17,24 -2,2 -3,0 -3,-6 z"
       id="path13"
       style="fill:#ffd42a" />
    <path
       d="m 909,1352 c 6,-11 16,-33 21,-48 6,-15 13,-24 16,-21 7,7 -21,73 -36,82 -9,6 -9,3 -1,-13 z"
       id="path14"
       style="fill:#ffd42a" />
    <path
       d="m 2803,1307 c -35,-39 -37,-53 -2,-20 18,18 31,35 28,38 -3,3 -15,-5 -26,-18 z"
       id="path15"
       style="fill:#ffd42a" />
    <path
       d="m 3300,1074 c 0,-7 71,-36 76,-31 2,2 -14,11 -36,20 -22,8 -40,13 -40,11 z"
       id="path16"
       style="fill:#ffd42a" />
    <path
       d="m 3227,1049 c 7,-7 15,-10 18,-7 3,3 -2,9 -12,12 -14,6 -15,5 -6,-5 z"
       id="path17"
       style="fill:#ffd42a" />
    <path
       d="m 3280,1020 c 8,-5 20,-10 25,-10 6,0 3,5 -5,10 -8,5 -19,10 -25,10 -5,0 -3,-5 5,-10 z"
       id="path18"
       style="fill:#ffd42a" />
    <path
       d="m 899,863 c -13,-16 -12,-17 4,-4 9,7 17,15 17,17 0,8 -8,3 -21,-13 z"
       id="path19"
       style="fill:#ffd42a" />
    <path
       d="m 2886,781 c -3,-5 10,-18 30,-30 44,-26 52,-27 29,-1 -9,10 -20,19 -24,18 -19,-2 -31,3 -26,12 3,6 4,10 1,10 -3,0 -7,-4 -10,-9 z"
       id="path20"
       style="fill:#ffd42a" />
    <path
       d="m 2865,728 c 16,-15 34,-28 39,-28 5,0 -4,10 -20,22 -44,33 -53,36 -19,6 z"
       id="path21"
       style="fill:#ffd42a" />
    <path
       d="m 2838,714 c 39,-56 133,-125 169,-123 10,0 3,5 -15,10 -18,5 -65,40 -104,77 -42,39 -63,54 -50,36 z"
       id="path22"
       style="fill:#ffd42a" />
    <path
       d="m 2920,686 c 0,-2 7,-7 16,-10 8,-3 12,-2 9,4 -6,10 -25,14 -25,6 z"
       id="path23"
       style="fill:#ffd42a" />
    <path
       d="m 2360,2683 c 8,-3 17,-9 20,-12 3,-3 32,-28 64,-56 50,-42 56,-45 41,-20 l -19,30 29,-25 c 26,-23 27,-23 14,-3 -29,42 -115,94 -151,92 -9,0 -8,-3 2,-6 z"
       id="path24"
       style="fill:#ffd42a" />
    <path
       d="m 1287,2666 c -9,-10 -17,-20 -18,-24 -1,-4 -2,-25 -4,-47 l -3,-40 25,53 c 27,58 27,85 0,58 z"
       id="path25"
       style="fill:#ffd42a" />
    <path
       d="m 1501,2583 c 1,-57 3,-70 9,-48 11,45 11,125 0,125 -6,0 -10,-32 -9,-77 z"
       id="path26"
       style="fill:#ffd42a" />
    <path
       d="m 1621,2578 c 0,-40 4,-82 9,-93 6,-13 8,13 7,72 -1,51 -5,93 -9,93 -5,0 -8,-33 -7,-72 z"
       id="path27"
       style="fill:#ffd42a" />
    <path
       d="m 1338,2520 c -26,-55 -45,-100 -43,-100 13,0 101,187 92,196 -2,2 -24,-41 -49,-96 z"
       id="path28"
       style="fill:#ffd42a" />
    <path
       d="m 1340,2584 c 0,-6 -7,-19 -15,-30 -13,-16 -14,-16 -9,-1 12,35 -6,15 -31,-33 -28,-56 -32,-74 -8,-45 l 16,20 -8,-20 c -4,-11 -9,-27 -12,-35 -3,-8 2,-5 11,7 25,33 69,133 62,140 -3,4 -6,2 -6,-3 z"
       id="path29"
       style="fill:#ffd42a" />
    <path
       d="m 1406,2513 c -21,-43 -45,-103 -41,-103 5,0 42,70 55,105 13,33 4,32 -14,-2 z"
       id="path30"
       style="fill:#ffd42a" />
    <path
       d="m 1431,2496 c -6,-14 -18,-40 -26,-56 -9,-17 -13,-30 -10,-30 8,0 57,102 51,107 -3,3 -10,-6 -15,-21 z"
       id="path31"
       style="fill:#ffd42a" />
    <path
       d="m 1339,2449 c -16,-34 -28,-63 -25,-66 5,-5 39,57 56,102 17,45 1,26 -31,-36 z"
       id="path32"
       style="fill:#ffd42a" />
    <path
       d="m 1435,2449 c -15,-29 -23,-49 -16,-45 13,9 54,86 48,92 -2,2 -16,-19 -32,-47 z"
       id="path33"
       style="fill:#ffd42a" />
    <path
       d="m 1459,2438 c -16,-31 -17,-39 -6,-30 14,12 41,72 32,72 -3,0 -14,-19 -26,-42 z"
       id="path34"
       style="fill:#ffd42a" />
    <path
       d="m 1498,2454 c -3,-10 -9,-28 -14,-39 -7,-17 -5,-18 8,-8 8,7 17,10 20,7 12,-12 16,25 4,42 -12,16 -13,16 -18,-2 z"
       id="path35"
       style="fill:#ffd42a" />
    <path
       d="m 1577,2347 c 121,-6 283,-6 440,0 l 248,10 h -440 c -406,0 -425,-1 -248,-10 z"
       id="path36"
       style="fill:#ffd42a" />
    <path
       d="m 2565,2250 c -4,-6 -10,-8 -15,-5 -4,3 -10,-2 -14,-10 -3,-8 2,-18 11,-23 11,-6 12,-11 4,-16 -6,-4 -11,-12 -11,-19 0,-24 33,23 36,52 4,32 0,39 -11,21 z"
       id="path37"
       style="fill:#ffd42a" />
    <path
       d="m 951,2203 c 1,-53 6,-49 11,10 2,20 0,37 -4,37 -4,0 -8,-21 -7,-47 z"
       id="path38"
       style="fill:#ffd42a" />
    <path
       d="m 1408,2243 c 7,-3 16,-2 19,1 4,3 -2,6 -13,5 -11,0 -14,-3 -6,-6 z"
       id="path39"
       style="fill:#ffd42a" />
    <path
       d="m 2363,2243 c 15,-2 37,-2 50,0 12,2 0,4 -28,4 -27,0 -38,-2 -22,-4 z"
       id="path40"
       style="fill:#ffd42a" />
    <path
       d="m 1743,2233 c 103,-2 271,-2 375,0 103,1 18,2 -188,2 -206,0 -291,-1 -187,-2 z"
       id="path41"
       style="fill:#ffd42a" />
    <path
       d="m 1279,2198 c -7,-12 -13,-35 -14,-50 -1,-23 1,-26 12,-16 18,15 58,93 44,83 -6,-3 -18,-20 -27,-37 -8,-16 -18,-28 -21,-25 -2,3 3,17 13,31 9,15 14,29 11,32 -3,3 -11,-5 -18,-18 z"
       id="path42"
       style="fill:#ffd42a" />
    <path
       d="m 1319,2178 c -7,-12 -19,-34 -28,-48 -15,-24 -15,-24 2,-11 21,17 51,70 44,78 -3,2 -11,-6 -18,-19 z"
       id="path43"
       style="fill:#ffd42a" />
    <path
       d="m 1332,2144 c -15,-30 -19,-50 -14,-61 7,-12 13,-9 29,18 12,19 24,45 28,59 7,24 7,25 -9,5 -17,-20 -17,-20 -11,3 10,35 1,26 -23,-24 z m 1,-39 c -3,-9 -8,-14 -10,-11 -3,3 -2,9 2,15 9,16 15,13 8,-4 z"
       id="path44"
       style="fill:#ffd42a" />
    <path
       d="m 1376,2120 c -29,-62 -34,-89 -12,-71 17,15 49,97 43,114 -3,6 -16,-13 -31,-43 z"
       id="path45"
       style="fill:#ffd42a" />
    <path
       d="m 1411,2112 c -16,-30 -31,-72 -26,-72 8,0 47,82 42,87 -3,3 -10,-4 -16,-15 z"
       id="path46"
       style="fill:#ffd42a" />
    <path
       d="m 1423,2083 c -3,-10 -8,-22 -10,-28 -3,-5 3,-1 11,9 16,20 21,36 11,36 -3,0 -8,-8 -12,-17 z"
       id="path47"
       style="fill:#ffd42a" />
    <path
       d="m 1470,2080 c -7,-14 -7,-20 0,-20 5,0 10,8 11,18 0,15 1,15 8,-2 7,-18 8,-18 14,-2 10,24 9,26 -8,26 -8,0 -19,-9 -25,-20 z"
       id="path48"
       style="fill:#ffd42a" />
    <path
       d="m 1447,2083 c -4,-3 -7,-13 -7,-22 1,-13 3,-13 11,2 11,19 8,33 -4,20 z"
       id="path49"
       style="fill:#ffd42a" />
    <path
       d="m 692,2005 c 0,-16 2,-22 5,-12 2,9 2,23 0,30 -3,6 -5,-1 -5,-18 z"
       id="path50"
       style="fill:#ffd42a" />
    <path
       d="m 1397,1935 c -28,-30 -28,-30 -23,-5 3,14 -4,5 -15,-19 -11,-24 -22,-57 -24,-75 -4,-30 -4,-30 11,-11 9,11 23,35 31,54 8,19 24,42 35,51 12,9 19,21 17,26 -2,5 -17,-4 -32,-21 z"
       id="path51"
       style="fill:#ffd42a" />
    <path
       d="m 650,1746 c 0,-2 8,-10 18,-17 15,-13 16,-12 3,4 -13,16 -21,21 -21,13 z"
       id="path52"
       style="fill:#ffd42a" />
    <path
       d="m 1130,1545 c 13,-14 26,-25 28,-25 3,0 -5,11 -18,25 -13,14 -26,25 -28,25 -3,0 5,-11 18,-25 z"
       id="path53"
       style="fill:#ffd42a" />
    <path
       d="m 240,1549 c 0,-6 15,-37 34,-68 18,-31 48,-84 66,-118 18,-35 39,-63 46,-63 7,0 20,-10 28,-22 9,-12 16,-19 16,-15 0,5 -18,29 -39,55 -21,26 -49,67 -61,92 -13,25 -36,64 -51,87 -16,23 -29,44 -29,47 0,2 12,7 28,9 25,4 25,4 -5,6 -19,0 -33,-4 -33,-10 z"
       id="path54"
       style="fill:#ffd42a" />
    <path
       d="m 1018,1543 c 7,-3 16,-2 19,1 4,3 -2,6 -13,5 -11,0 -14,-3 -6,-6 z"
       id="path55"
       style="fill:#ffd42a" />
    <path
       d="m 343,1530 c 25,-16 87,-41 87,-35 0,6 -50,31 -80,39 -21,6 -22,5 -7,-4 z"
       id="path56"
       style="fill:#ffd42a" />
    <path
       d="m 440,1485 c 0,-10 57,-62 74,-68 9,-4 13,-1 10,6 -5,14 -84,72 -84,62 z"
       id="path57"
       style="fill:#ffd42a" />
    <path
       d="m 1162,1452 c 2,-10 -3,-16 -10,-14 -8,1 -11,-2 -7,-8 8,-13 -10,-13 -38,1 -21,10 -21,10 -3,-5 33,-26 86,-18 86,14 0,10 -7,21 -15,24 -11,4 -15,0 -13,-12 z"
       id="path58"
       style="fill:#ffd42a" />
    <path
       d="m 437,1324 c 2,-12 19,-35 36,-50 l 31,-29 -25,31 c -13,17 -29,40 -36,50 -11,18 -11,18 -6,-2 z"
       id="path59"
       style="fill:#ffd42a" />
    <path
       d="m 588,1183 c 6,-2 18,-2 25,0 6,3 1,5 -13,5 -14,0 -19,-2 -12,-5 z"
       id="path60"
       style="fill:#ffd42a" />
    <path
       d="m 690,1160 c 0,-5 14,-10 32,-10 36,0 35,4 -4,14 -17,4 -28,2 -28,-4 z"
       id="path61"
       style="fill:#ffd42a" />
    <path
       d="m 2891,1134 c 0,-11 3,-14 6,-6 3,7 2,16 -1,19 -3,4 -6,-2 -5,-13 z"
       id="path62"
       style="fill:#ffd42a" />
    <path
       d="m 1292,1110 c 0,-19 2,-27 5,-17 2,9 2,25 0,35 -3,9 -5,1 -5,-18 z"
       id="path63"
       style="fill:#ffd42a" />
    <path
       d="m 1764,1081 c 11,-12 37,-32 58,-43 21,-12 38,-25 38,-30 0,-4 6,-7 13,-5 6,1 11,-6 11,-16 -2,-15 1,-16 14,-5 13,11 15,10 9,-4 -3,-10 -2,-18 3,-18 6,0 10,5 10,10 0,6 5,10 11,10 5,0 8,-4 5,-9 -4,-5 3,-7 15,-4 20,5 20,4 9,-18 -13,-24 -13,-24 9,-5 28,26 37,15 16,-21 -15,-24 -13,-23 13,7 27,31 34,59 11,45 -5,-4 -9,0 -9,7 0,8 -22,22 -50,32 -27,10 -68,31 -91,48 -22,16 -43,27 -46,25 -2,-3 10,-15 27,-27 55,-39 23,-35 -37,5 -38,24 -51,30 -39,16 z"
       id="path64"
       style="fill:#ffd42a" />
    <path
       d="m 705,1070 c -3,-6 1,-7 9,-4 18,7 21,14 7,14 -6,0 -13,-4 -16,-10 z"
       id="path65"
       style="fill:#ffd42a" />
    <path
       d="m 1221,981 c -12,-29 -20,-55 -18,-57 7,-7 49,86 44,99 -2,6 -13,-13 -26,-42 z"
       id="path66"
       style="fill:#ffd42a" />
    <path
       d="m 1250,973 c -7,-18 -16,-33 -20,-33 -4,0 -10,-13 -12,-30 -3,-16 -1,-30 4,-30 4,0 8,-6 8,-13 0,-7 7,-22 15,-33 14,-18 14,-17 5,9 -14,40 -12,69 6,106 8,17 13,37 11,44 -3,6 -10,-3 -17,-20 z"
       id="path67"
       style="fill:#ffd42a" />
    <path
       d="m 1146,883 c -6,-14 -5,-15 5,-6 7,7 10,15 7,18 -3,3 -9,-2 -12,-12 z"
       id="path68"
       style="fill:#ffd42a" />
    <path
       d="m 1194,832 c 6,-10 -6,-11 -57,-6 -60,6 -64,5 -70,-15 -7,-27 -25,-27 -29,0 -3,19 -5,17 -15,-9 -6,-17 -8,-31 -5,-30 21,2 32,-4 32,-16 0,-34 20,-24 26,14 4,22 10,43 15,46 5,3 6,-10 3,-28 -4,-25 -3,-29 5,-18 6,8 11,22 11,30 0,12 10,14 45,12 36,-3 49,-10 68,-35 14,-18 39,-40 56,-50 43,-25 39,-14 -5,13 -19,12 -33,28 -31,34 5,13 -8,34 -37,56 -13,10 -17,10 -12,2 z m 37,-39 c 13,-16 12,-17 -3,-4 -10,7 -18,15 -18,17 0,8 8,3 21,-13 z"
       id="path69"
       style="fill:#ffd42a" />
    <path
       d="m 2268,803 c 7,-3 16,-2 19,1 4,3 -2,6 -13,5 -11,0 -14,-3 -6,-6 z"
       id="path70"
       style="fill:#ffd42a" />
    <path
       d="m 1122,780 c 0,-14 2,-19 5,-12 2,6 2,18 0,25 -3,6 -5,1 -5,-13 z"
       id="path71"
       style="fill:#ffd42a" />
    <path
       d="m 1502,795 c 2,-3 23,-6 46,-7 23,-1 42,-6 42,-11 0,-6 5,-5 13,1 8,7 71,8 180,5 l 167,-6 v -24 c 0,-14 4,-22 10,-18 6,4 8,15 5,25 -6,19 8,21 210,33 28,2 -114,4 -314,5 -200,1 -362,0 -359,-3 z"
       id="path72"
       style="fill:#ffd42a" />
    <path
       d="m 1142,760 c 0,-19 2,-27 5,-17 2,9 2,25 0,35 -3,9 -5,1 -5,-18 z"
       id="path73"
       style="fill:#ffd42a" />
    <path
       d="m 1492,750 c 0,-19 2,-27 5,-17 2,9 2,25 0,35 -3,9 -5,1 -5,-18 z"
       id="path74"
       style="fill:#ffd42a" />
    <path
       d="m 1520,755 c 0,-13 6,-22 15,-22 9,0 15,9 15,22 0,13 -6,22 -15,22 -9,0 -15,-9 -15,-22 z"
       id="path75"
       style="fill:#ffd42a" />
    <path
       d="m 1562,745 c 0,-16 2,-22 5,-12 2,9 2,23 0,30 -3,6 -5,-1 -5,-18 z"
       id="path76"
       style="fill:#ffd42a" />
    <path
       d="m 1780,760 c 0,-5 5,-10 11,-10 5,0 7,5 4,10 -3,6 -8,10 -11,10 -2,0 -4,-4 -4,-10 z"
       id="path77"
       style="fill:#ffd42a" />
    <path
       d="m 1820,743 c 0,-21 3,-24 9,-14 5,8 7,20 4,28 -8,21 -13,15 -13,-14 z"
       id="path78"
       style="fill:#ffd42a" />
    <path
       d="m 1932,740 c 0,-19 2,-27 5,-17 2,9 2,25 0,35 -3,9 -5,1 -5,-18 z"
       id="path79"
       style="fill:#ffd42a" />
    <path
       d="m 1981,754 c 0,-11 3,-14 6,-6 3,7 2,16 -1,19 -3,4 -6,-2 -5,-13 z"
       id="path80"
       style="fill:#ffd42a" />
    <path
       d="m 1852,735 c 0,-16 2,-22 5,-12 2,9 2,23 0,30 -3,6 -5,-1 -5,-18 z"
       id="path81"
       style="fill:#ffd42a" />
    <path
       d="m 1880,720 c 0,-16 5,-30 10,-30 6,0 10,14 10,30 0,17 -4,30 -10,30 -5,0 -10,-13 -10,-30 z"
       id="path82"
       style="fill:#ffd42a" />
    <path
       d="m 2000,739 c 0,-5 5,-7 10,-4 6,3 10,8 10,11 0,2 -4,4 -10,4 -5,0 -10,-5 -10,-11 z"
       id="path83"
       style="fill:#ffd42a" />
    <path
       d="m 2032,720 c 0,-19 2,-27 5,-17 2,9 2,25 0,35 -3,9 -5,1 -5,-18 z"
       id="path84"
       style="fill:#ffd42a" />
    <path
       d="m 2062,725 c 0,-16 2,-22 5,-12 2,9 2,23 0,30 -3,6 -5,-1 -5,-18 z"
       id="path85"
       style="fill:#ffd42a" />
  </g>
  <path
     style="fill:#ffd42a;stroke-width:0.75"
     d="m 161.0746,268.13339 c -3.26222,-2.20714 -7.45095,-5.13539 -9.30831,-6.50723 l -3.37699,-2.49426 -8.34317,-0.46435 c -16.12729,-0.89759 -35.65695,-3.39179 -37.91994,-4.84288 -0.84167,-0.53971 13.16144,-0.21097 28.50287,0.66912 8.9874,0.51558 12.15118,0.57615 12.48827,0.23906 0.77592,-0.77592 -0.0445,-1.05593 -3.52049,-1.20152 -3.01968,-0.12649 -3.29025,-0.20006 -2.64885,-0.72023 0.54203,-0.43957 0.5887,-0.63118 0.19347,-0.79423 -0.40478,-0.16699 -0.36752,-0.38439 0.16709,-0.97513 0.65773,-0.72679 0.63695,-0.81359 -0.47233,-1.97327 -0.63818,-0.66717 -1.10814,-1.53594 -1.04433,-1.93061 0.0638,-0.39466 -0.33847,-1.74517 -0.89391,-3.00113 -1.51462,-3.42481 -1.20658,-3.55925 0.59256,-0.2586 2.65162,4.86454 5.15485,8.15254 5.14937,6.76369 -10e-4,-0.2999 -0.3776,-3.04821 -0.8365,-6.10738 -0.84102,-5.60657 -0.84724,-6.19531 -0.2227,-21.05658 0.0184,-0.43703 -0.0867,-2.49302 -0.23351,-4.56888 -0.36453,-5.15489 0.3001,-3.39223 1.30862,3.47056 0.42945,2.92242 0.78084,5.39307 0.78084,5.49034 0,0.0973 -0.35757,0.17686 -0.79459,0.17686 -1.05525,0 -1.02524,1.09381 0.0618,2.25088 1.18784,1.2644 1.4515,3.61148 1.22017,10.86156 -0.21331,6.68514 0.0843,7.85997 1.30534,5.15226 0.39146,-0.8681 0.85708,-1.57836 1.03472,-1.57836 0.59616,0 1.26721,1.75008 1.51963,3.96313 l 0.25035,2.19494 0.87872,-1.58919 0.87872,-1.58917 -0.0984,1.58917 c -0.0911,1.47161 -0.1921,1.59825 -1.36497,1.71184 -1.38087,0.13373 -1.79764,0.91848 -1.21221,2.28252 0.85689,1.99656 2.69636,2.27967 20.37636,3.13616 27.75749,1.34468 54.35352,1.75758 64.73957,1.00509 12.40137,-0.89852 23.91176,-2.46297 33.76999,-4.58991 6.55918,-1.41517 12.76713,-3.0697 13.2211,-3.52366 0.88266,-0.88267 -4.36705,-4.74983 -6.44794,-4.74983 -1.03971,0 -1.45433,-0.21898 -1.7838,-0.94206 -0.68243,-1.49778 -1.77057,-0.97851 -2.03139,0.96939 -0.18504,1.38189 -2.0049,4.89912 -2.53487,4.89912 -0.0889,0 -0.13102,-1.26573 -0.0937,-2.81274 0.0575,-2.38198 -0.0514,-2.89997 -0.71064,-3.38235 -1.15579,-0.84566 -1.61534,-0.46173 -1.52029,1.27015 0.0467,0.85136 -0.0184,1.99489 -0.14485,2.54117 -0.21559,0.93183 -0.24981,0.94412 -0.55364,0.19865 -0.17812,-0.43703 -0.33642,-1.55441 -0.35177,-2.48309 -0.0254,-1.53722 -0.11859,-1.6885 -1.03987,-1.6885 -0.55658,0 -2.2997,0.70252 -3.87362,1.56117 -1.57392,0.85864 -4.72914,2.30139 -7.01161,3.20611 -2.28247,0.90473 -5.14298,2.16843 -6.3567,2.80822 -3.49322,1.8414 -4.41422,1.46192 -4.35605,-1.79488 l 0.0359,-2.00633 0.39256,1.39053 c 0.21591,0.76479 0.56939,1.56932 0.7855,1.78782 0.63406,0.64109 1.52946,-0.95479 1.54724,-2.75767 l 0.0159,-1.61256 0.56804,1.04545 c 0.31242,0.575 0.85455,1.1554 1.20475,1.28978 1.02919,0.39494 2.16618,-0.46407 2.18917,-1.65394 l 0.0208,-1.07858 0.62356,0.89391 c 0.7573,1.08564 1.1663,1.13199 1.42023,0.16098 0.14139,-0.54068 0.70068,-0.79406 2.13213,-0.96593 2.10942,-0.25327 7.37358,-2.25451 8.43304,-3.20591 0.36229,-0.32534 2.34049,-1.07414 4.396,-1.66399 7.14253,-2.04962 8.16478,-2.89925 7.90232,-6.56792 -0.20024,-2.79904 -1.37431,-4.55039 -3.47178,-5.1788 -1.33159,-0.39895 -1.9996,-0.31628 -5.24419,0.64903 -11.24301,3.34493 -9.58167,3.11969 -23.18563,3.14358 -10.44898,0.0184 -12.90446,-0.0911 -16.19696,-0.72184 -2.13447,-0.40891 -4.41394,-0.63686 -5.0655,-0.50655 -0.96528,0.19305 -1.18465,0.10389 -1.18465,-0.48151 0,-0.39515 -0.11291,-0.83134 -0.25088,-0.96932 -0.3929,-0.39289 -1.73559,0.47796 -1.73559,1.12566 0,0.32008 -0.28023,0.58197 -0.62272,0.58197 -0.43539,0 -0.54916,-0.23175 -0.3782,-0.7704 0.52103,-1.6416 -2.59866,-2.02769 -4.26323,-0.52761 -0.64491,0.58119 -0.69526,0.55017 -0.69526,-0.42824 0,-1.36717 -0.88567,-1.37078 -1.95764,-0.008 l -0.82342,1.04682 v -1.44411 c 0,-0.79426 -0.12558,-1.44411 -0.27906,-1.44411 -0.15348,0 -0.86861,0.57141 -1.58917,1.26981 -1.55621,1.50834 -1.69914,1.07631 -0.31689,-0.95786 0.54628,-0.80392 0.99324,-1.8154 0.99324,-2.24773 0,-0.48684 -1.17204,-1.79829 -3.07903,-3.44527 -3.22267,-2.78328 -4.94782,-3.75671 -6.65774,-3.75671 -3.63995,0 -13.31966,-8.64874 -18.69467,-16.70352 -4.45872,-6.68168 -7.58289,-14.27244 -10.23612,-24.87061 -2.98433,-11.92068 -4.70914,-24.97684 -4.71617,-35.69955 -0.005,-6.43453 0.099,-7.54859 1.03023,-11.11512 0.56921,-2.18011 1.03493,-4.27451 1.03493,-4.65422 0,-1.3323 -1.54598,-1.6901 -7.34994,-1.70108 l -5.56212,-0.0105 -0.11868,1.21325 c -0.1105,1.12959 -0.273,1.24562 -2.35652,1.68264 -1.23081,0.25817 -2.30927,0.39795 -2.39659,0.31063 -0.33325,-0.33325 0.73517,-1.77355 1.49437,-2.01451 1.05257,-0.33407 1.00838,-0.84351 -0.0989,-1.14025 -1.20305,-0.3224 -12.96022,-0.24101 -14.17381,0.0981 -1.58541,0.44304 -1.38787,1.15829 0.57466,2.08079 2.47484,1.16331 2.88223,2.12445 1.852,4.36934 l -0.79998,1.74316 -0.0335,-1.2487 c -0.0184,-0.68678 -0.27312,-1.34066 -0.56601,-1.45305 -0.33974,-0.13037 -0.46975,-0.63214 -0.3591,-1.38599 0.20219,-1.37765 -0.58827,-2.1087 -1.2708,-1.17528 -0.249,0.34052 -0.49699,2.37913 -0.5511,4.53025 -0.0541,2.15112 -0.54001,8.98991 -1.07977,15.1973 -0.87837,10.10144 -0.95156,12.09418 -0.42324,11.52512 0.97074,-1.04562 4.61384,-6.54227 4.61384,-6.96129 0,-0.72614 -0.57121,-0.70612 -1.19188,0.0418 -0.95874,1.15521 -1.19847,0.5772 -0.40537,-0.9774 0.95809,-1.87803 1.00303,-2.39959 0.20672,-2.39959 -0.32777,0 -0.59594,-0.10668 -0.59594,-0.23706 0,-0.13037 1.02242,-1.78411 2.27205,-3.67496 2.53657,-3.83817 3.15961,-3.6392 1.67532,0.53502 -1.35443,3.80899 -1.57016,4.96617 -0.92583,4.96617 0.30476,0 0.57811,0.31287 0.60746,0.69527 0.2504,3.26302 -0.85331,7.49071 -3.37094,12.91205 -0.78644,1.69346 -1.2645,3.07903 -1.06236,3.07903 0.20214,0 0.51049,-0.24062 0.68524,-0.5347 0.17473,-0.29408 1.00985,-1.32208 1.8558,-2.28444 l 1.5381,-1.74974 -0.27825,1.58917 c -0.15305,0.87405 -1.05045,3.55578 -1.99425,5.95941 -0.94379,2.40363 -2.02294,5.88989 -2.39812,7.74723 -0.79669,3.94412 -1.7907,6.63317 -3.20525,8.67102 l -1.01343,1.45998 0.26033,-2.18511 c 0.14317,-1.20182 0.4912,-3.34721 0.7734,-4.76754 l 0.51307,-2.5824 0.0473,2.06234 c 0.0582,2.53502 0.65639,3.04035 1.21554,1.02685 0.58993,-2.12433 0.52026,-3.5901 -0.18953,-3.98732 -0.54844,-0.30692 -0.54671,-0.58164 0.0169,-2.70147 0.71228,-2.67855 1.25398,-11.39033 0.8163,-13.12804 l -0.2898,-1.15059 -0.70013,0.86267 c -0.45268,0.55777 -0.78872,1.89173 -0.95078,3.77429 -0.13785,1.60139 -0.98197,7.02362 -1.87582,12.04938 -0.89384,5.02577 -1.71459,9.67412 -1.82388,10.32965 -0.17128,1.0274 0.33455,1.90461 3.66548,6.3567 4.60017,6.14856 7.08442,9.90765 8.1711,12.36425 1.47525,3.33507 0.45317,2.21217 -2.64861,-2.90987 -3.61575,-5.97077 -7.00195,-10.63284 -8.18142,-11.26407 -1.10611,-0.59197 -1.46823,-0.17958 -2.14998,2.44846 -0.75691,2.91778 -4.16586,21.58281 -4.16586,22.80934 0,1.30598 0.84231,1.25246 1.68523,-0.10709 1.07421,-1.73259 0.85764,-0.16088 -0.4846,3.51697 -1.19433,3.27253 -1.22312,4.17839 -0.11933,3.75482 0.47384,-0.18182 0.54278,-0.0382 0.32063,0.66819 -0.15564,0.4949 -0.37882,3.02322 -0.49594,5.61849 -0.19018,4.21439 -0.29417,4.73991 -0.973,4.91743 -1.36903,0.35801 -0.52486,1.24271 2.25212,2.36024 1.11821,0.45 -7.62221,0.64601 -11.32287,0.25392 l -2.97971,-0.31569 4.70386,-0.20652 c 4.33723,-0.19044 4.763,-0.27963 5.46279,-1.14446 0.90682,-1.12068 0.99388,-2.77114 0.163,-3.08998 -0.36771,-0.14111 -0.59595,-0.74497 -0.59595,-1.57671 0,-0.74142 -0.15652,-1.34802 -0.34783,-1.34802 -0.19132,0 -1.64383,1.16208 -3.22781,2.5824 -1.58398,1.42033 -3.02644,2.58242 -3.20547,2.58242 -0.17902,0 0.04,-0.82629 0.48674,-1.8362 0.50683,-1.14576 0.7278,-2.25837 0.58768,-2.95896 -0.17724,-0.8862 0.0616,-1.46529 1.13346,-2.74823 1.32967,-1.5915 1.48348,-2.78626 0.3587,-2.78626 -0.30463,0 -1.26881,0.73669 -2.14261,1.63708 -1.66087,1.71143 -2.01139,3.07968 -1.00326,3.91635 0.5146,0.42708 0.50897,0.6374 -0.0465,1.73715 -0.89255,1.76723 -2.14339,3.03907 -2.98889,3.03907 -0.44315,0 -0.99723,0.57566 -1.43398,1.48985 -0.57757,1.20896 -0.90202,1.47036 -1.72092,1.38647 -0.96427,-0.0988 -1.06528,0.0972 -2.27107,4.40509 -0.694047,2.47967 -1.26191,4.62688 -1.26191,4.77159 0,0.14471 0.536348,0.26311 1.19189,0.26311 0.65553,0 1.19188,0.16186 1.19188,0.35971 0,0.47184 -2.668747,3.6584 -3.624652,4.32794 -0.716183,0.50164 -0.745583,0.34369 -0.745583,-4.00563 0,-7.33862 1.455968,-11.7608 6.355865,-19.3046 1.33038,-2.04822 2.34648,-3.79644 2.25799,-3.88492 -0.0885,-0.0885 -1.48176,0.36982 -3.09616,1.01845 -2.892102,1.16199 -2.939712,1.16738 -3.23612,0.36626 -0.770422,-2.08227 -5.201677,0.74928 -13.16316,8.41119 -7.795552,7.50223 -11.199577,10.44913 -15.146368,13.1124 -1.661385,1.12109 -3.12815,2.31836 -3.259479,2.66059 -0.559076,1.45694 1.680317,2.91174 6.34625,4.12281 6.282587,1.63068 13.896392,1.36935 19.293797,-0.66222 2.920403,-1.09924 3.797483,-1.20471 2.654145,-0.31916 -3.331245,2.58017 -8.461942,3.97757 -13.2363,3.60506 -4.05804,-0.31662 -11.860426,-2.32282 -14.467603,-3.72 -3.512025,-1.88208 -2.963289,-2.86523 4.49814,-8.05914 1.400565,-0.97493 5.675173,-4.92907 9.499123,-8.787 9.329963,-9.41281 12.667763,-12.0436 15.189293,-11.97191 0.82617,0.0235 1.099762,-0.15632 1.099762,-0.72277 0,-0.41472 0.383655,-0.95936 0.852563,-1.21032 0.823177,-0.44055 0.843557,-0.39994 0.591237,1.17791 -0.16141,1.00949 -0.10764,1.63418 0.14068,1.63418 0.22109,0 0.40199,-0.15009 0.40199,-0.33352 0,-0.47922 1.85406,-1.25565 2.9984,-1.25565 1.17322,0 1.28938,-0.64112 0.17995,-0.99324 -1.18927,-0.37746 -0.9575,-0.99324 0.37385,-0.99324 1.59784,0 1.94549,-0.75576 0.78193,-1.69986 -1.54092,-1.25026 -14.00615,-7.35612 -17.220537,-8.43516 -3.904305,-1.31063 -7.21851,-1.32024 -10.393485,-0.0301 -2.304885,0.93656 -7.224081,2.04207 -7.565847,1.70031 -0.09438,-0.0944 1.935487,-1.00038 4.510809,-2.01332 6.063408,-2.3849 6.131883,-2.43275 4.926963,-3.44281 -0.521033,-0.43677 -2.687078,-1.77058 -4.813436,-2.96402 -2.126359,-1.19344 -4.284313,-2.50854 -4.795455,-2.92243 l -0.929347,-0.75254 1.173902,-0.003 c 1.481529,-0.004 3.548647,1.0336 7.331956,3.68011 3.6774,2.57242 7.410832,4.46391 13.314607,6.74567 2.498618,0.96569 6.62973,2.74773 9.180263,3.96009 6.629667,3.15131 7.452957,2.99026 4.129397,-0.80776 -1.0895,-1.24503 -3.00616,-3.98186 -4.259252,-6.08185 -3.15924,-5.29439 -7.195628,-10.52929 -12.43974,-16.13339 -4.743735,-5.06939 -6.322943,-7.12584 -7.552838,-9.83532 -1.025505,-2.25921 -0.976402,-3.4905 0.20358,-5.10466 2.619068,-3.58277 2.64111,-3.63547 2.393093,-5.72019 -0.683055,-5.74152 -2.49969,-8.8548 -5.664075,-9.70688 -0.917835,-0.24715 -4.757286,-0.61477 -8.532114,-0.81693 -6.318033,-0.33838 -9.374262,-0.8253 -12.381217,-1.97259 -0.631212,-0.24084 -1.044335,-0.54121 -0.91805,-0.6675 0.126285,-0.12628 1.000296,0.055 1.942247,0.40297 1.706583,0.63035 6.048388,1.42934 7.798143,1.43505 0.740382,0.002 0.871296,-0.15261 0.668491,-0.79159 -0.138705,-0.43702 -0.195448,-0.79297 -0.126096,-0.79099 0.06935,0.002 2.17861,0.25873 4.687239,0.57057 2.508627,0.31183 4.63292,0.49519 4.72065,0.40747 0.08773,-0.0877 -0.779217,-1.18664 -1.926554,-2.442 -1.190898,-1.30304 -1.883164,-2.35013 -1.613227,-2.44011 0.629031,-0.20967 2.188536,1.29381 3.512149,3.38599 1.021049,1.61393 1.945266,2.35955 2.382621,1.92218 0.597833,-0.59783 -5.943087,-11.35086 -9.247734,-15.20292 -2.084543,-2.42984 -6.966427,-5.52267 -15.107795,-9.57126 -8.551147,-4.25238 -11.869584,-5.59734 -15.23172,-6.17343 -2.309326,-0.3957 -2.570821,-0.36792 -3.079028,0.32709 -0.47985,0.65624 -0.555375,0.6694 -0.555375,0.0968 0,-1.0083 1.801588,-2.00922 3.13607,-1.74232 2.34285,0.46857 11.515983,3.99271 15.735394,6.04524 6.073209,2.95431 11.303512,6.5076 15.421621,10.47694 4.223625,4.07104 5.431577,5.67897 8.518107,11.33866 1.305488,2.39385 2.604533,4.42943 2.88675,4.5235 0.86121,0.28707 0.194603,-4.38857 -1.350412,-9.47189 -1.677473,-5.5191 -2.835968,-8.19767 -4.980787,-11.51612 -1.808029,-2.79737 -1.923752,-3.18376 -0.953545,-3.18376 0.524027,0 0.421125,-0.26004 -0.471624,-1.19187 -0.892749,-0.93183 -0.99565,-1.19189 -0.471624,-1.19189 0.843445,0 0.850105,-0.54808 0.02202,-1.8119 -0.576903,-0.88046 -0.597545,-1.5239 -0.187547,-5.84611 0.253387,-2.67121 0.519593,-6.40614 0.591569,-8.29984 0.156912,-4.12839 -0.0067,-3.80404 8.984355,-17.81214 3.436148,-5.353533 6.46545,-10.151268 6.731775,-10.661635 0.266333,-0.510368 0.5703,-0.841875 0.675488,-0.736688 0.356415,0.356415 -3.451553,7.451693 -7.25163,13.511763 -6.711087,10.70231 -8.09572,14.36467 -8.676425,22.94918 -0.346677,5.12489 0.378819,8.48326 2.842997,13.16044 1.96435,3.72848 2.93929,4.8014 3.68515,4.05554 0.28533,-0.28533 0.166133,-1.12916 -0.386362,-2.735 -0.990525,-2.87903 -1.04568,-3.69186 -0.203063,-2.99255 0.327765,0.27203 0.59868,1.05374 0.602025,1.73714 0.01523,3.11326 1.483838,2.84714 4.122915,-0.7471 1.041585,-1.41857 2.07129,-2.57921 2.288235,-2.57921 0.216938,0 0.02392,0.47106 -0.428985,1.04681 -0.98835,1.25647 -1.060837,2.13154 -0.176565,2.13154 0.51561,0 0.434513,0.26196 -0.399742,1.2912 -5.464598,6.7418 -5.55147,6.91854 -4.976498,10.12453 1.453605,8.10523 5.712038,22.75154 6.615045,22.75154 0.768143,0 3.548708,-1.9659 7.66305,-5.4179 3.53433,-2.96537 4.22169,-3.38757 3.82281,-2.34809 -0.129907,0.33852 0.250688,0.97448 0.92043,1.53804 l 1.14192,0.96085 -2.18904,0.25728 c -2.468437,0.29012 -4.287937,1.0917 -4.656157,2.05128 -0.391185,1.01939 -0.0267,1.24183 2.424945,1.47982 2.389642,0.23198 6.965797,1.61539 10.042957,3.03606 1.5942,0.73602 1.64798,0.80054 0.49662,0.59571 -1.0087,-0.17945 -1.29121,-0.0924 -1.29121,0.3978 0,0.82889 -0.0358,0.82143 -2.83259,-0.59039 -1.326952,-0.66984 -2.48934,-1.14119 -2.583097,-1.04744 -0.09374,0.0938 0.03645,1.49103 0.289342,3.10505 0.593138,3.78561 0.241913,9.98495 -0.999082,17.63446 -0.531743,3.27768 -1.024793,6.44569 -1.09566,7.04004 -0.09839,0.82519 0.669427,2.23206 3.248147,5.95153 4.33842,6.25763 7.66184,10.44299 8.97617,11.30417 1.01042,0.66206 1.06305,0.65376 1.80866,-0.28539 1.3248,-1.66866 4.55211,-8.37852 5.62471,-11.69424 1.76492,-5.45592 1.97327,-6.60006 2.24269,-12.31611 0.2421,-5.13633 0.35788,-5.76297 1.51258,-8.18596 2.06216,-4.32716 3.11322,-10.67449 6.04566,-36.50961 1.96035,-17.27102 3.13089,-25.91503 3.56943,-26.35904 0.66317,-0.67143 18.55511,-1.13118 26.20359,-0.67332 l 7.31497,0.43788 3.21332,-3.35832 c 2.45982,-2.57083 3.88516,-3.69097 6.07847,-4.77696 4.09951,-2.02983 8.91055,-3.31001 14.30066,-3.8053 2.57694,-0.2368 18.63037,-0.59369 35.67428,-0.7931 30.44472,-0.35621 38.15733,-0.59255 39.13922,-1.19939 0.76768,-0.47446 0.10604,-1.13134 -1.42972,-1.41945 -0.76785,-0.14405 -1.65549,-0.52131 -1.97254,-0.83836 -0.77938,-0.77938 -0.72923,-2.68085 0.0884,-3.35142 0.59221,-0.4857 0.63968,-0.44766 0.43459,0.34825 -0.33024,1.28154 0.23326,1.42177 1.39324,0.34673 1.99885,-1.85246 2.31662,-8.00596 1.06551,-20.633185 -1.00836,-10.177681 -2.25114,-14.748833 -5.1155,-18.815966 -2.41811,-3.4335 -7.85648,-8.659414 -10.95741,-10.529344 -4.58623,-2.765594 -11.51617,-4.398662 -21.56767,-5.082504 -11.27592,-0.767144 -87.04586,-0.154023 -95.03811,0.769036 -3.82872,0.442195 -4.76753,1.118382 -4.76753,3.433866 0,1.223484 0.10614,1.346515 1.16167,1.346515 h 1.16168 l -1.03201,3.009651 c -0.88965,2.594478 -0.96769,3.18753 -0.56573,4.299117 0.25644,0.709207 0.47051,3.422161 0.47568,6.028788 l 0.009,4.73932 2.85981,-5.496292 c 1.57288,-3.022962 2.91644,-5.326365 2.98567,-5.118677 0.0692,0.207689 -0.94279,2.710613 -2.24893,5.562053 -1.30614,2.85144 -2.5785,5.940958 -2.82748,6.865595 -0.91444,3.395972 -1.53518,21.727164 -0.81981,24.210077 0.24683,0.85674 0.49126,0.980737 1.77853,0.90228 0.82081,-0.05003 1.43256,0.03938 1.35947,0.19864 -0.0731,0.15929 -0.78176,1.54138 -1.57481,3.07132 -1.52496,2.942 -2.72316,6.475 -2.72316,8.02957 0,0.59433 0.70124,1.61441 1.93051,2.80827 2.03664,1.97801 3.76295,4.87249 3.55378,5.9586 -0.078,0.40504 -0.64354,-0.21056 -1.51321,-1.64715 -0.76377,-1.26164 -1.94418,-2.63767 -2.62314,-3.05783 -0.67897,-0.42016 -3.59266,-1.57167 -6.47487,-2.55891 -8.81348,-3.01884 -12.92263,-5.37549 -14.41122,-8.26502 -1.12387,-2.18154 -1.38578,-7.851223 -0.74796,-16.191253 1.35924,-17.773533 5.24745,-28.626306 13.05204,-36.430906 1.63182,-1.631817 3.7295,-3.304253 4.66151,-3.716525 2.58156,-1.141949 11.0049,-1.465859 51.24108,-1.970418 34.91094,-0.43778 48.97606,-0.321375 55.8198,0.461973 5.55201,0.635493 12.9066,2.596098 16.86321,4.495439 4.79489,2.301745 7.9612,5.057821 12.73519,11.085187 l 3.97294,5.016003 5.39968,-0.241096 c 6.80404,-0.3038 7.93392,-0.09192 10.08545,1.891295 3.04206,2.804069 4.30665,7.261223 4.10474,14.467418 l -0.12246,4.370235 -2.18512,0.280673 c -3.52562,0.452857 -9.15393,0.539925 -11.67488,0.180607 l -2.33849,-0.333315 0.28578,11.854838 c 0.18845,7.817115 0.14732,12.214415 -0.12078,12.910595 -0.26907,0.69872 -0.8084,1.14402 -1.59481,1.31674 -1.4521,0.31893 -1.86324,0.79723 -2.22952,2.59367 -0.41078,2.01462 -1.18475,3.0365 -2.4989,3.29934 -0.63543,0.12708 -1.52385,0.6435 -1.97429,1.14759 -0.45044,0.5041 -1.57732,1.76886 -2.50419,2.81057 -2.10983,2.37127 -5.48248,4.02565 -10.39054,5.09685 -2.02128,0.44115 -3.75416,0.88119 -3.85084,0.97787 -0.43535,0.43535 12.49781,0.0961 30.35971,-0.79645 16.96953,-0.84791 28.22505,-1.21278 32.66736,-1.05895 1.18356,0.0409 1.29088,0.15235 1.28733,1.33591 -0.008,2.65005 -3.41662,8.10845 -8.66722,13.87913 l -2.77773,3.05286 -0.22723,2.90656 c -0.12497,1.59859 -0.33122,5.94583 -0.45834,9.66054 -0.35503,10.37563 -0.88172,16.96198 -1.83559,22.9544 l -0.87126,5.47346 1.65566,2.34772 c 5.72304,8.11526 5.4212,18.52012 -0.82732,28.51891 -1.75333,2.80566 -3.15155,4.07389 -4.4914,4.07389 -1.61424,0 -1.44154,-0.7036 0.90877,-3.70269 1.26484,-1.61398 2.51022,-3.27367 2.76751,-3.68818 0.39401,-0.63479 0.43281,-0.51869 0.24598,0.7362 -0.2838,1.90635 0.37093,1.94353 1.25927,0.0716 0.70312,-1.48173 0.55914,-2.816 -0.24993,-2.31597 -0.32883,0.20323 -0.3792,0.0633 -0.16971,-0.47144 0.16385,-0.41824 0.61652,-2.02525 1.00594,-3.57114 0.38942,-1.54588 0.98764,-3.24432 1.32939,-3.77429 0.98339,-1.52501 1.18391,-3.59898 0.67406,-6.97213 -0.81559,-5.396 -2.35691,-8.49269 -4.22708,-8.49269 -1.16298,0 -1.19059,0.71598 -0.10935,2.83538 0.45227,0.88652 0.73362,1.70053 0.62524,1.80893 -0.10839,0.10838 -0.50555,-0.39946 -0.88257,-1.12855 -0.62468,-1.208 -0.71372,-1.25532 -1.00363,-0.53353 -0.17498,0.43563 -0.84029,2.13293 -1.47848,3.77176 -0.63818,1.63884 -2.76913,6.37657 -4.73543,10.52829 -4.70241,9.92885 -6.06662,13.70665 -4.94959,13.70665 0.17416,0 1.01497,-0.71513 1.86845,-1.58918 0.85349,-0.87404 1.8115,-1.58918 2.12893,-1.58918 0.31742,0 1.17505,-0.45605 1.90583,-1.01345 1.91277,-1.45893 1.63217,-0.74699 -0.86191,2.18689 -2.36163,2.77808 -2.58054,3.22726 -1.42564,2.92524 0.81925,-0.21424 2.42438,0.48049 2.42438,1.04932 0,0.19387 -0.63499,0.56207 -1.41111,0.81821 -1.74912,0.57726 -1.57759,1.42284 0.25861,1.2748 1.21384,-0.0979 1.27039,-0.0598 0.55656,0.37495 -0.43703,0.26613 -2.11205,0.79835 -3.72227,1.18271 -3.47915,0.83049 -4.42226,1.55525 -4.42226,3.39844 0,1.50974 1.45674,3.29736 2.68705,3.29736 2.6884,0 18.56075,-12.59329 25.32217,-20.09087 3.93439,-4.36276 4.16594,-4.77428 4.16898,-7.40927 0.002,-1.85565 0.11181,-2.23007 0.59856,-2.04329 0.7304,0.28028 0.74424,-0.16866 0.11777,-3.82189 -0.49847,-2.9069 -0.85382,-3.40446 -1.35298,-1.89452 l -0.29551,0.89391 -0.2876,-0.99323 c -0.15818,-0.54628 -0.30542,-1.77139 -0.3272,-2.72246 -0.0511,-2.23011 -1.79753,-7.40932 -4.43367,-13.14824 -1.33501,-2.90635 -1.92281,-4.60322 -1.62853,-4.70131 0.25327,-0.0844 0.46048,-0.69155 0.46048,-1.34918 0,-1.6462 -1.55875,-9.18466 -1.98953,-9.62182 -0.55138,-0.55956 -0.90912,1.54935 -0.61717,3.6382 0.14467,1.03512 0.33876,2.50779 0.4313,3.27258 l 0.16826,1.39053 -0.55507,-1.58917 c -0.3053,-0.87405 -0.56571,-3.10883 -0.57871,-4.96618 -0.037,-5.28043 1.35292,-10.70002 4.33882,-16.9186 1.54789,-3.22371 4.77145,-7.31633 5.76273,-7.31633 1.45739,0 3.29549,4.342 6.39109,15.09717 4.96509,17.25046 5.04621,24.56929 0.40036,36.12733 -2.17933,5.42178 -2.51989,6.78042 -1.69956,6.78042 1.4272,0 5.77115,-7.09314 11.80049,-19.26876 2.57835,-5.20671 5.05536,-10.88537 6.12669,-14.04571 l 1.79842,-5.30525 -1.41509,-3.23657 c -2.08732,-4.77407 -4.28308,-8.67129 -7.60551,-13.49886 -1.62873,-2.36658 -2.88145,-4.38275 -2.78383,-4.48037 0.0976,-0.0976 0.64352,0.43349 1.21311,1.18025 1.38775,1.81944 3.42041,3.8287 3.87328,3.8287 0.20171,0 0.37998,-0.31287 0.39617,-0.69527 0.0407,-0.96024 2.07885,3.52901 4.17169,9.18838 1.71748,4.64436 2.31728,5.80947 2.99074,5.80947 1.17681,0 3.2087,-7.59831 3.77158,-14.10393 0.36678,-4.2393 0.89716,-5.54183 0.93019,-2.28444 0.0139,1.36569 0.18648,2.48309 0.38361,2.48309 1.25989,0 1.64102,-7.3255 0.63047,-12.11747 -0.90346,-4.28412 -3.71663,-9.51729 -3.7909,-7.05197 -0.0115,0.38239 -1.05853,-2.25464 -2.32669,-5.86009 -4.31999,-12.2819 -8.28809,-21.05658 -9.52224,-21.05658 -1.44191,0 -4.14977,7.7735 -5.67422,16.28906 -0.57525,3.21331 -0.83457,6.46789 -0.874,10.96942 -0.0521,5.94113 -0.0943,6.28334 -0.58891,4.76754 -0.88798,-2.72144 -1.04155,-10.24668 -0.29276,-14.34643 0.93602,-5.12494 3.66923,-14.72321 4.92131,-17.28229 1.14588,-2.342025 2.30915,-2.917522 4.03271,-1.99509 1.39578,0.74699 4.18636,6.90255 6.75732,14.90547 0.49109,1.52866 2.18919,5.73005 3.77355,9.33641 1.58437,3.60636 3.28752,7.67441 3.78477,9.04011 0.49725,1.36569 1.04832,2.48309 1.2246,2.48309 0.17626,0 1.67697,-1.1174 3.33489,-2.48309 1.65793,-1.3657 3.94801,-3.25347 5.08907,-4.19506 3.82028,-3.15243 10.94748,-6.15887 22.28177,-9.39901 5.67548,-1.62246 6.07601,-1.43889 5.38494,2.46805 -0.44529,2.51744 -1.94255,7.39534 -2.19308,7.14481 -0.0871,-0.0871 0.19945,-1.55738 0.63677,-3.26728 0.96482,-3.77243 1.02359,-5.70016 0.18358,-6.0225 -0.33635,-0.12908 -2.43704,0.48808 -4.6682,1.37145 -2.23116,0.88336 -6.02326,2.17061 -8.42689,2.86053 -6.99752,2.00852 -9.77482,3.52725 -13.72628,7.50603 -4.658,4.6902 -6.21208,7.73689 -9.32347,18.27809 -0.79963,2.70909 -1.54663,5.16735 -1.66,5.46279 -0.30227,0.78771 0.58354,0.65532 1.90334,-0.28446 1.25146,-0.89113 1.42106,-0.78727 0.67231,0.41167 -0.98589,1.57866 0.23045,1.283 5.15681,-1.25348 2.78216,-1.43248 6.81836,-3.36946 8.96933,-4.3044 4.35649,-1.89361 7.16807,-3.81595 11.34709,-7.75821 4.11252,-3.87955 3.44996,-2.35323 -0.85604,1.97203 -4.14864,4.16719 -6.08614,5.3683 -14.93455,9.2583 -10.20873,4.48805 -13.30828,7.24412 -17.27447,15.3602 -2.30508,4.71693 -6.39709,14.4288 -6.84145,16.23731 -0.37968,1.54526 0.72348,1.45483 2.21835,-0.18184 1.16414,-1.27457 2.1117,-3.01567 4.27947,-7.86336 1.55163,-3.46984 3.81612,-5.90738 8.12537,-8.74627 8.51176,-5.60749 18.06656,-7.35884 24.26594,-4.44785 5.49862,2.58194 8.33304,6.69911 8.25848,11.99591 -0.1032,7.33188 -7.48737,15.41488 -16.14134,17.66895 -3.47335,0.9047 -8.43039,1.16655 -11.74549,0.62044 -4.2499,-0.7001 -7.20949,-2.24982 -10.97193,-5.74519 -1.77773,-1.65156 -3.56178,-3.00114 -3.96455,-2.99909 -1.02531,0.005 -4.49806,2.07665 -5.75488,3.43268 -1.11366,1.20156 -11.27097,16.65188 -11.72487,17.83475 -0.30284,0.78916 -0.0626,0.76539 4.03402,-0.3993 3.22466,-0.91679 18.67244,-1.35315 21.98336,-0.62099 1.23837,0.27386 5.21258,1.81167 8.83158,3.41738 8.5866,3.80977 13.11273,5.52211 18.40858,6.96438 5.05933,1.37785 7.85559,2.51164 8.81842,3.57555 0.6582,0.72731 0.64592,0.80908 -0.26964,1.79535 -2.66171,2.86724 -13.25778,8.43872 -21.10817,11.0988 -4.18197,1.41704 -4.80377,1.52074 -9.25084,1.54267 -3.67287,0.0181 -5.26925,-0.14794 -6.95264,-0.72322 -4.03219,-1.37796 -8.10324,-3.58901 -14.30259,-7.76798 -8.08215,-5.44815 -11.48079,-7.43477 -14.71502,-8.60142 -1.46487,-0.52841 -2.76384,-0.96074 -2.8866,-0.96074 -0.12276,0 -1.71017,1.29637 -3.52758,2.88082 -4.27456,3.72665 -8.94421,7.32935 -14.58076,11.24928 -4.64036,3.22712 -6.4032,4.99592 -6.4032,6.42486 0,1.19998 0.83594,1.34036 5.0942,0.85549 9.63011,-1.09653 17.31358,1.08754 24.5042,6.96549 1.74809,1.42897 5.14496,4.12668 7.54859,5.9949 2.40363,1.86823 6.12212,4.7601 8.26332,6.42639 4.50525,3.50598 4.63625,3.94566 1.76406,5.92077 -4.5012,3.09534 -10.25247,4.32639 -18.76785,4.01724 -10.99907,-0.39932 -13.62031,-1.65547 -23.77009,-11.39109 l -3.5081,-3.36495 -3.44454,0.93608 c -11.10177,3.01698 -13.73771,3.64809 -19.04282,4.55934 -16.31355,2.80215 -24.10416,3.19741 -63.86053,3.2399 -19.01052,0.0203 -35.80252,0.0691 -37.31556,0.10831 l -2.75099,0.0714 0.96317,1.03047 c 0.52974,0.56675 3.6002,3.07405 6.82325,5.57178 3.22304,2.49772 5.86009,4.62636 5.86009,4.7303 0,0.52224 -1.12796,-0.13293 -6.58346,-3.824 z m 151.39711,-3.92664 c 8.09012,-0.55863 11.98424,-1.15982 13.01945,-2.01002 1.5734,-1.2922 1.16214,-1.65092 -13.57138,-11.83756 -16.64633,-11.50914 -17.97533,-12.18143 -24.08029,-12.18143 -4.59225,0 -6.43358,0.56835 -6.81922,2.10484 -0.19595,0.78077 -0.0219,1.21044 0.76412,1.88657 0.89444,0.76936 0.94722,0.94619 0.43524,1.45817 -0.32045,0.32045 -0.68633,1.58744 -0.81308,2.81555 -0.34541,3.34665 0.96579,5.69505 6.01748,10.77744 4.28502,4.31106 6.7243,6.02548 9.72379,6.83423 2.23514,0.60265 7.9747,0.65967 15.32389,0.15221 z M 143.94556,251.05147 c 0.24862,-0.95077 -0.0406,-1.94815 -0.56494,-1.94815 -0.19514,0 -0.35479,0.62574 -0.35479,1.39053 0,1.52699 0.57505,1.87564 0.91973,0.55762 z m 170.31397,-1.13271 c 0,-0.5031 -5.9986,-5.69031 -8.74047,-7.55818 -3.5487,-2.41753 -7.15129,-4.05556 -7.15129,-3.25157 0,0.43477 3.86598,3.40743 10.48548,8.06261 4.2256,2.97166 5.40628,3.57161 5.40628,2.74714 z M 276.25318,238.7309 c 1.95195,-0.88936 0.83606,-2.6343 -1.3988,-2.18733 -1.57108,0.31422 -4.69448,2.11169 -4.69448,2.7016 0,0.55778 4.59075,0.17033 6.09328,-0.51427 z m -135.21382,-4.75786 c 0,-1.12019 -0.1537,-1.57167 -0.49662,-1.45873 -0.9388,0.30917 -0.86066,3.08101 0.0869,3.08101 0.22536,0 0.40976,-0.73002 0.40976,-1.62228 z m 133.24687,1.01484 c 0.74722,-0.74721 0.41661,-1.77632 -0.57066,-1.77632 -0.67482,0 -1.9665,1.36287 -1.9665,2.07488 0,0.55126 1.91238,0.32623 2.53716,-0.29856 z m 73.26342,-3.59142 c 8.91862,-1.81509 19.74767,-6.33501 22.69553,-9.47286 0.80056,-0.85215 0.88885,-1.17321 0.53575,-1.94817 -0.49128,-1.07823 -0.75585,-1.18227 -12.81906,-5.04068 -12.11058,-3.87355 -18.87051,-6.38499 -18.23817,-6.77579 1.27887,-0.7904 -2.15082,-2.36069 -5.15601,-2.36069 -1.43362,0 -1.91847,0.59066 -0.94843,1.15539 0.96759,0.56331 0.36586,0.5421 -4.4612,-0.15727 -5.10735,-0.73998 -6.65739,-0.73772 -9.54309,0.0139 -2.68017,0.6981 -6.61488,2.35095 -8.23582,3.45964 -1.93519,1.32361 -1.37822,1.61259 2.52025,1.30762 3.57724,-0.27984 3.61013,-0.27418 3.34055,0.57518 -0.2681,0.84472 -0.22395,0.85359 2.89375,0.58163 2.17543,-0.18977 3.39882,-0.13042 3.91007,0.18966 0.60451,0.37848 0.382,0.41877 -1.18649,0.21485 -2.49477,-0.32436 -2.3572,0.38034 0.36842,1.88721 2.36089,1.30524 1.95004,1.4067 -1.02029,0.25196 -1.31975,-0.51306 -3.12915,-0.85838 -4.56888,-0.87197 -2.58611,-0.0244 -8.14544,0.83658 -8.14305,1.26113 7.5e-4,0.14414 1.11819,0.84035 2.48308,1.54713 1.36489,0.70678 4.44822,2.82259 6.85185,4.70179 10.57184,8.26527 14.36084,10.00226 21.96725,10.07046 2.03044,0.0182 5.06974,-0.24735 6.75399,-0.59012 z m -101.05547,-0.75419 c 7.83035,-1.58547 16.44907,-4.88857 18.99752,-7.28074 0.84884,-0.7968 1.09061,-1.38564 1.08383,-2.63973 -0.0127,-2.34273 -2.0935,-6.58035 -3.2312,-6.58035 -0.66453,0 -0.31569,2.05242 0.68422,4.02565 0.56097,1.10702 0.94841,2.08431 0.86096,2.17176 -0.0874,0.0874 -0.74928,-0.57556 -1.47075,-1.47334 -1.16166,-1.44552 -1.45942,-1.60836 -2.60209,-1.42292 l -1.29032,0.20939 0.61857,-1.23998 c 0.60069,-1.20411 0.57417,-1.32402 -0.91701,-4.14544 -0.84458,-1.598 -2.02433,-3.48362 -2.62167,-4.19025 -1.37072,-1.62153 -1.50623,-1.50039 -4.51076,4.03254 -1.23213,2.26902 -2.9775,5.21892 -3.8786,6.55536 -2.27834,3.37903 -6.87358,7.85872 -9.24455,9.01212 -2.76162,1.34342 -5.76683,1.3053 -8.17102,-0.10365 -2.60873,-1.52881 -7.73906,-7.06782 -12.52954,-13.52762 -2.31034,-3.11541 -4.46259,-5.81273 -4.78277,-5.99405 -0.3629,-0.2055 -0.96118,-0.0813 -1.5885,0.32971 -1.44455,0.94651 -1.61147,0.44979 -0.18919,-0.56296 1.33185,-0.94836 1.8135,-2.02482 1.4369,-3.21137 -0.30197,-0.95143 -1.02538,-1.00383 -2.60214,-0.18845 -1.21616,0.6289 -1.60341,0.24636 -0.59653,-0.58928 0.80151,-0.66519 1.51963,-3.02122 1.21418,-3.98357 -0.16515,-0.52036 -0.60052,-0.80082 -1.24315,-0.80082 -0.94266,0 -0.96002,-0.0414 -0.37053,-0.88299 0.34016,-0.48564 0.61847,-1.39833 0.61847,-2.0282 0,-1.08979 -0.0721,-1.13669 -1.48985,-0.96913 -0.81942,0.0968 -1.84742,0.32733 -2.28444,0.51221 -0.54546,0.23074 -0.33452,-0.17764 0.67281,-1.30253 1.72727,-1.92885 1.80659,-2.3296 2.06403,-10.4287 0.35305,-11.10697 2.56901,-17.86146 8.40627,-25.62329 3.48781,-4.63775 10.50918,-11.45555 11.1439,-10.82082 0.11857,0.11856 -1.31251,1.93516 -3.18016,4.03689 -4.02767,4.53244 -5.90938,7.22782 -8.12807,11.6427 -3.84694,7.65491 -5.3281,13.49948 -5.38012,21.22976 -0.0201,2.98608 0.0839,5.54988 0.2311,5.69732 0.31553,0.31606 4.90101,-1.67266 5.48825,-2.38024 0.22218,-0.26771 0.92718,-3.07006 1.56668,-6.22744 1.60024,-7.90097 2.5191,-11.36121 4.62238,-17.40701 2.32154,-6.6732 4.29474,-10.89414 7.06248,-15.10757 2.53026,-3.85193 2.53065,-3.85107 -1.72515,-3.93876 -3.86463,-0.0796 -3.97919,-0.16594 -3.93039,-2.9609 l 0.0425,-2.43675 0.37813,1.6885 c 0.22354,0.99823 0.60456,1.6885 0.93202,1.6885 1.11373,0 1.88192,-5.30439 0.90906,-6.27724 -0.3708,-0.37081 -0.26045,-0.47811 0.49662,-0.48284 0.53535,-0.003 1.24005,-0.17469 1.56599,-0.38075 1.83598,-1.16075 -0.47756,-1.29365 -28.46778,-1.63532 -26.90726,-0.32846 -30.49579,-0.46277 -30.92516,-1.1575 -0.35707,-0.57777 3.19366,-0.76094 19.26957,-0.99406 20.78526,-0.30142 40.5336,-1.11393 40.00173,-1.6458 -0.0803,-0.0802 -2.27505,-0.41016 -4.87732,-0.73315 -5.73449,-0.71175 -8.97627,-1.52238 -11.08812,-2.7727 -1.94126,-1.14931 -4.67523,-3.96021 -5.41912,-5.57161 -0.30223,-0.65467 -1.14161,-1.4699 -1.8653,-1.81161 -1.73296,-0.81826 -2.03872,-1.37911 -2.04551,-3.75206 l -0.006,-1.98646 -7.84695,0.11167 c -13.10088,0.18645 -20.49552,1.52838 -25.72519,4.66844 -4.47055,2.68425 -5.77558,4.52585 -6.84299,9.65651 -0.90375,4.34406 -0.88395,17.87508 0.0373,25.49142 2.94797,24.37162 9.20704,41.87555 18.50686,51.75572 1.28124,1.3612 2.45454,2.35147 2.60731,2.20063 0.15278,-0.15086 -0.90929,-2.404 -2.36015,-5.007 -5.72014,-10.26253 -12.1019,-27.08228 -13.31698,-35.09822 -0.94378,-6.2262 -1.29815,-24.53013 -0.53737,-27.75642 0.22068,-0.93583 0.25286,-0.91287 0.55682,0.39729 0.17743,0.76479 0.60529,4.7874 0.9508,8.93912 1.5074,18.11305 2.84364,24.9101 6.94299,35.31697 2.58387,6.5596 7.63065,16.2803 10.63552,20.48531 9.53023,13.33657 22.92947,21.02535 44.66985,25.63253 5.76539,1.22179 8.06949,1.22567 14.00644,0.0236 z m -37.51755,-3.01516 c 0,-0.52497 -3.54568,-2.12678 -3.90664,-1.76489 -0.14572,0.14611 0.23667,0.69739 0.84976,1.22508 1.12786,0.97075 3.05688,1.31139 3.05688,0.53981 z m 63.74927,-0.34841 c 0.39836,-0.64455 0.9412,-4.11286 0.72991,-4.66348 -0.53608,-1.39698 -2.97934,0.22141 -3.49954,2.31806 -0.40068,1.615 1.97676,3.62831 2.76963,2.34542 z m -156.15975,-3.30422 c 0.72733,-1.13146 1.43016,-4.95606 1.43016,-7.78246 0,-2.12684 -0.0166,-2.15866 -0.77147,-1.47556 -1.11029,1.00481 -3.99606,6.71388 -3.99606,7.90563 0,0.99952 1.25681,2.2463 2.26436,2.2463 0.27411,0 0.75696,-0.40226 1.07301,-0.89391 z m 119.77094,-2.8304 c 2.28454,-6.10596 3.42751,-16.65132 3.42881,-31.63485 7.5e-4,-10.6493 -0.0846,-12.17394 -0.93628,-16.68636 -2.06132,-10.92186 -4.26151,-19.86469 -4.88727,-19.86469 -0.58995,0 -1.50441,2.54132 -2.92722,8.13496 -2.33327,9.17292 -2.37245,9.64549 -2.37245,28.61473 0,15.43647 0.0849,17.87589 0.72628,20.85794 0.91309,4.2456 3.22325,11.43366 4.05448,12.61548 0.91198,1.29661 1.93356,0.58233 2.91365,-2.03721 z m 39.58357,-0.84457 c 0,-0.61912 -0.22347,-1.20016 -0.49662,-1.29121 -0.33709,-0.11236 -0.49661,0.30239 -0.49661,1.29121 0,0.98882 0.15952,1.40357 0.49661,1.2912 0.27315,-0.091 0.49662,-0.67209 0.49662,-1.2912 z m -3.86054,-2.0858 c 1.70028,-2.16068 2.84667,-4.60539 3.13045,-6.67578 0.17436,-1.27209 0.37327,-1.68652 0.66798,-1.39181 0.8326,0.83261 1.05535,0.37616 1.05535,-2.16273 0,-2.58199 -0.48354,-3.37295 -1.03222,-1.6885 -0.22183,0.681 -0.40645,0.21965 -0.77514,-1.93699 -0.7222,-4.22441 -3.48556,-14.08334 -6.33342,-22.59591 -4.39463,-13.13606 -5.36675,-14.91923 -7.03916,-12.91205 -0.45518,0.54627 -1.29319,1.97653 -1.86226,3.17835 -1.14205,2.41186 -1.19658,3.48647 -0.64523,12.7134 0.2264,3.78885 0.14477,5.98154 -0.34432,9.24912 -1.14719,7.66428 -0.82293,9.48144 2.57692,14.4414 2.01233,2.93572 2.9148,2.73993 5.17007,-1.12161 0.88839,-1.52112 1.71016,-2.67076 1.82618,-2.55474 0.11602,0.11601 -0.43621,1.48477 -1.22716,3.04168 -1.31384,2.58617 -1.41624,3.02543 -1.18526,5.08395 0.13906,1.23926 0.43616,2.61076 0.66023,3.04778 0.83559,1.62975 2.81853,3.7743 3.48988,3.7743 0.38209,0 1.22229,-0.67044 1.86711,-1.48986 z m -29.34135,-0.14904 c 1.62344,-2.66952 3.18983,-8.48703 3.65938,-13.59069 0.70766,-7.69193 -0.32793,-20.92416 -1.63759,-20.92416 -0.54661,0 -0.79106,1.68393 -0.79664,5.48766 -0.009,5.95061 -0.78414,14.92972 -1.82236,21.10246 -1.41976,8.44118 -1.232,10.93262 0.59721,7.92473 z m -15.86863,-4.02255 c -0.002,-0.49164 -0.26938,-1.87721 -0.59287,-3.07902 -0.32348,-1.20182 -0.9424,-4.61936 -1.37535,-7.59454 -0.43296,-2.97518 -0.96626,-5.88039 -1.18512,-6.45602 -0.53098,-1.39657 -1.89988,-1.41217 -2.24787,-0.0257 -0.43463,1.73166 1.16768,10.17763 2.81844,14.85637 0.96983,2.7488 2.59277,4.19333 2.58277,2.29884 z m 88.90123,-0.59593 c 0.11044,-0.33533 -0.29881,-0.49662 -1.26009,-0.49662 -0.78299,0 -1.42363,0.16388 -1.42363,0.36419 0,0.87252 2.40097,0.99099 2.68372,0.13243 z m -54.42311,-3.79192 c -1.84195,-3.57814 -3.6491,-5.80611 -4.24254,-5.2305 -0.86954,0.8434 1.07522,5.09359 3.53608,7.72794 0.95517,1.02253 1.33758,1.21142 1.70622,0.84278 0.36864,-0.36864 0.14457,-1.11726 -0.99976,-3.34022 z m -40.31428,2.00369 c -1.18038,-5.16591 -2.65532,-8.28955 -3.62983,-7.68727 -1.12549,0.69559 0.0496,4.5581 2.40075,7.89099 0.87699,1.24319 1.53478,1.13417 1.22908,-0.20372 z m 30.84943,-6.08895 c 1.38157,-3.14106 1.38512,-3.16458 1.67627,-11.09361 0.16047,-4.37024 0.47163,-8.7504 0.69146,-9.73371 1.1639,-5.20614 0.158,-9.23816 -4.01118,-16.07826 -1.89168,-3.10356 -7.74852,-11.95777 -8.52713,-12.89109 -0.62613,-0.75054 -0.29866,1.08208 1.06495,5.9598 5.98029,21.39184 7.32454,29.60952 6.84327,41.83425 -0.25859,6.56835 0.11047,6.89503 2.26236,2.00262 z m 28.91902,-2.16544 c 3.09517,-6.18891 5.46426,-13.54067 4.78246,-14.84096 -0.35307,-0.67337 -0.73468,-0.72521 -3.82632,-0.51983 -1.88878,0.12548 -3.86436,0.35614 -4.39017,0.51258 -1.67778,0.49917 -0.59734,-0.43378 2.07061,-1.78796 1.39911,-0.71015 3.32974,-1.39057 4.29028,-1.51204 3.71518,-0.46982 3.77337,-0.73144 5.70747,-25.66015 0.53902,-6.94744 1.11013,-12.84726 1.26913,-13.1107 0.15901,-0.26344 1.84058,-2.62436 3.73684,-5.24651 5.61929,-7.77033 6.85156,-10.52829 4.7041,-10.52829 -0.78923,0 -3.05812,2.10824 -5.78445,5.37487 -1.41208,1.69194 -1.7538,1.91201 -2.38376,1.5352 -1.14746,-0.68638 -1.08867,-1.57595 0.23093,-3.49391 0.67035,-0.97433 1.21881,-1.89797 1.21881,-2.05254 0,-0.53019 -41.65242,0.70948 -48.66851,1.44849 -4.1774,0.44 -5.71675,1.05231 -5.62026,2.23557 0.0511,0.62645 -0.4216,0.74436 -3.8904,0.97042 -4.68137,0.30509 -5.16591,0.66308 -4.74852,3.50828 0.43578,2.97054 0.77203,3.51497 2.35431,3.8118 2.35229,0.4413 7.3002,-0.0214 8.02968,-0.7509 0.70871,-0.7087 0.44314,-0.91335 -1.48827,-1.14687 -0.79249,-0.0958 -0.97131,-0.31631 -0.88475,-1.09089 0.26436,-2.3656 3.06934,-3.28599 4.29828,-1.4104 0.59973,0.91531 0.60045,1.07007 0.009,1.97249 -0.82098,1.25297 -0.80908,1.79026 0.0536,2.42188 0.60188,0.44066 0.36375,0.54659 -1.77285,0.78869 l -2.46813,0.27965 1.71111,2.23482 c 2.60054,3.39648 5.38071,7.34181 12.01941,17.05671 5.87407,8.59596 6.0734,8.83491 6.6284,7.94588 0.31471,-0.50413 1.20993,-1.93323 1.98939,-3.17577 1.83126,-2.91923 2.71191,-3.42269 3.87313,-2.21419 1.14984,1.19664 2.04461,3.26659 5.88368,13.61112 3.69541,9.95736 3.77865,10.13267 4.47891,9.43241 0.77905,-0.77905 1.00492,-0.58578 0.81642,0.69858 -0.19678,1.34071 0.13104,1.47346 1.41603,0.57342 1.07711,-0.75444 1.08079,-0.69882 0.0971,1.46899 -1.41381,3.11577 -0.82776,6.85253 0.96673,6.16392 0.94688,-0.36335 1.06369,0.31161 0.63945,3.69502 -0.6917,5.51633 0.16352,5.77478 2.65092,0.80112 z m -62.33832,-1.31168 c 0.23318,-1.22847 -0.30702,-2.65032 -1.00694,-2.65032 -1.00079,0 -2.50113,1.60435 -2.50113,2.67451 0,0.86795 0.14037,0.93665 1.68507,0.82466 1.25933,-0.0913 1.71992,-0.30576 1.823,-0.84885 z m 93.01495,-4.91133 c 2.69054,-6.40968 2.92081,-7.94517 2.9378,-19.59015 0.0149,-10.24063 -0.014,-10.63478 -1.05905,-14.4255 -1.24227,-4.50601 -4.72114,-13.84623 -5.84634,-15.69647 -0.45364,-0.74596 -1.09597,-1.26426 -1.56678,-1.26426 -1.04939,0 -2.87003,2.4997 -4.91924,6.754 -1.60788,3.33808 -1.6283,3.43666 -1.77173,8.55333 -0.24998,8.9183 2.27104,20.36153 5.79509,26.30471 1.10964,1.87135 1.66194,3.32729 1.82065,4.79942 0.12531,1.16226 0.57735,2.68191 1.00454,3.377 0.42718,0.6951 0.901,1.93425 1.05293,2.75367 0.15192,0.81942 0.4997,1.48985 0.77286,1.48985 0.27315,0 1.07382,-1.37502 1.77927,-3.0556 z m -94.69547,1.30751 c 1.30945,-1.30945 1.60984,-2.27939 1.10965,-3.58289 -0.34262,-0.89284 -1.10672,-0.78018 -2.46606,0.36363 -1.36199,1.14604 -1.86517,2.65541 -1.26137,3.78362 0.58558,1.09416 1.06196,0.99146 2.61778,-0.56436 z M 96.602633,196.83281 c 0.966705,-2.88793 1.526595,-8.35252 1.527855,-14.91221 0.0015,-6.59921 -0.32679,-8.01343 -2.021805,-8.71553 -1.56141,-0.64676 -6.380055,-0.29742 -7.684193,0.5571 -0.545527,0.35743 -1.362832,0.64989 -1.816252,0.64989 -2.33901,0 -6.754605,3.54017 -6.748268,5.41038 0.0045,1.37349 1.464638,4.61805 3.243128,7.20729 2.719057,3.95858 11.34603,12.23943 12.401332,11.90379 0.243135,-0.0773 0.737325,-1.02264 1.098203,-2.10071 z m 126.744627,-2.41899 c 0.95532,-0.86455 0.97639,-3.13453 0.0325,-3.49676 -1.32273,-0.50758 -3.24597,2.86284 -2.21938,3.88942 0.462,0.46201 1.43571,0.28719 2.18694,-0.39266 z m -8.02928,-0.32778 c 1.58094,-0.81753 2.79641,-2.48479 2.79641,-3.83581 0,-0.91637 -0.17428,-1.13779 -0.89391,-1.13568 -1.88751,0.005 -4.22469,2.31264 -4.25683,4.20207 -0.0252,1.48233 0.58812,1.68277 2.35433,0.76942 z m 40.53934,-4.77547 c 0,-1.45674 -0.17318,-2.5824 -0.39729,-2.5824 -0.22412,0 -0.3973,1.12566 -0.3973,2.5824 0,1.45675 0.17318,2.58242 0.3973,2.58242 0.22411,0 0.39729,-1.12567 0.39729,-2.58242 z m 99.15761,1.41795 c 3.32137,-0.21437 5.61601,-0.55596 6.3567,-0.94628 1.36839,-0.72109 6.37935,-5.71351 6.05765,-6.03521 -0.122,-0.122 -1.72103,1.0318 -3.55341,2.56399 -1.83237,1.53219 -3.49803,2.78919 -3.70146,2.79335 -0.20343,0.005 1.15059,-1.55678 3.00891,-3.46876 5.20686,-5.35719 6.70596,-7.95275 6.68865,-11.58081 -0.0157,-3.29212 -2.01073,-6.19108 -6.14223,-8.92536 -1.5862,-1.04976 -4.57599,-1.47427 -4.57599,-0.64974 0,0.21851 0.17827,0.3973 0.39615,0.3973 0.55501,0 3.57679,2.78273 3.57679,3.29383 0,0.23118 -0.40226,0.0427 -0.89391,-0.41886 -1.37974,-1.29527 -4.28895,-2.4593 -6.17053,-2.46895 -1.13937,-0.006 -1.77646,-0.20549 -1.92965,-0.60467 -0.30986,-0.80751 -3.70617,-0.7897 -6.52759,0.0342 -2.54542,0.74334 -6.62611,2.92863 -7.7145,4.13127 -0.65562,0.72447 -0.68329,0.90309 -0.18837,1.21616 0.41728,0.26393 0.17512,0.36865 -0.86256,0.37303 -1.09092,0.005 -1.74222,0.31242 -2.67098,1.26239 -1.29987,1.32954 -4.14913,6.53827 -4.58294,8.37808 -0.37789,1.60259 0.72557,1.42681 1.83966,-0.29305 0.49366,-0.76209 1.12104,-1.38783 1.39417,-1.39053 0.62129,-0.006 0.62109,-0.002 -0.0993,1.72162 -1.15212,2.75743 -0.41825,3.83557 2.6108,3.83557 1.47565,0 1.95808,0.14683 1.95808,0.59594 0,0.3409 0.38258,0.61365 0.89392,0.63731 0.53727,0.0249 0.11449,0.27932 -1.05974,0.63781 -1.76114,0.53769 -2.08543,0.53361 -3.29115,-0.0414 -1.62642,-0.77558 -2.10514,-0.80085 -2.10514,-0.11112 0,0.86351 1.62372,2.12762 4.40204,3.42711 4.06388,1.90077 7.54904,2.23837 16.88595,1.63573 z m -130.98424,-6.53208 c -0.0381,-3.90741 -0.51552,-9.85498 -0.70566,-8.79115 -1.65437,9.25615 -1.55852,15.12694 0.22284,13.64854 0.38387,-0.31859 0.51429,-1.6306 0.48282,-4.85739 z m 13.14795,-35.33397 c -0.007,-1.93497 -0.75663,-3.65152 -1.59504,-3.65152 -0.75408,0 -0.65264,2.36602 0.18765,4.37714 0.75313,1.80248 1.41509,1.46118 1.40739,-0.72562 z m 55.72029,-12.93515 c 1.0978,-1.30467 2.11293,-3.54112 1.76517,-3.88889 -0.46004,-0.46004 -1.44663,0.2473 -2.63706,1.89065 -1.97929,2.73233 -1.21661,4.48028 0.87189,1.99824 z m -60.22639,-0.25648 c 0.27095,-0.7061 -0.51262,-1.78277 -1.29744,-1.78277 -0.68764,0 -0.73175,1.84583 -0.0507,2.12064 0.8558,0.34532 1.11044,0.28151 1.34812,-0.33787 z m 4.26382,-0.28199 c 0.60249,-0.96123 -0.19838,-1.67428 -1.51059,-1.34494 -0.98216,0.24651 -1.38834,1.33218 -0.7407,1.97982 0.468,0.468 1.79446,0.0939 2.25129,-0.63488 z m 4.26636,-12.31232 0.47053,-0.8792 0.32279,0.87258 c 0.21267,0.57492 0.53504,0.79113 0.94501,0.63381 0.89889,-0.34494 1.56339,-1.72474 1.06881,-2.21933 -0.60767,-0.60767 -3.70659,-0.82991 -4.93821,-0.35415 -1.27435,0.49227 -1.47382,1.6336 -0.2855,1.6336 0.44388,0 0.90996,0.26817 1.03573,0.59593 0.32381,0.84381 0.83364,0.73923 1.38084,-0.28324 z m 6.01346,-6.58286 c 0.60091,-0.2553 1.09255,-0.74118 1.09255,-1.07977 0,-0.33859 -0.49164,-0.80384 -1.09255,-1.03391 -1.41449,-0.54154 -22.41601,-0.55191 -25.23299,-0.0125 -1.14453,0.21918 -3.95819,0.50859 -6.25256,0.64315 -5.25926,0.30842 -6.82739,0.57902 -6.64051,1.14592 0.23724,0.71965 5.74035,0.93709 21.93633,0.86676 10.49037,-0.0455 15.43056,-0.20719 16.18973,-0.52971 z m 4.58874,0.2313 c 0.66391,-0.66391 0.59466,-1.73235 -0.16128,-2.48829 -0.84032,-0.84031 -1.74573,-0.13584 -1.74573,1.3583 0,1.61153 0.89509,2.14191 1.90701,1.12999 z M 122.4494,106.57411 c 0.29387,-0.69722 0.52025,-4.89389 0.62564,-11.597868 0.1673,-10.642815 -0.0879,-16.312035 -0.73432,-16.312035 -0.53984,0 -1.96064,3.01152 -1.96064,4.155758 0,0.744202 -0.20857,1.009065 -0.7946,1.009065 -1.06708,0 -1.00043,0.401955 0.22924,1.38246 l 1.02382,0.816367 -0.82518,1.049048 c -1.05601,1.342507 -1.06857,2.04774 -0.0306,1.718295 0.97584,-0.309713 1.05414,0.445875 0.17613,1.699425 -0.71368,1.018912 -1.57824,1.14891 -1.90898,0.287047 -0.26537,-0.691552 -1.4455,-0.81195 -1.4455,-0.147472 0,0.246652 0.61266,1.126597 1.36146,1.95543 0.88221,0.976507 1.29203,1.772392 1.16425,2.261017 -0.10845,0.414735 0.0834,0.98694 0.42638,1.271573 0.8566,0.710917 0.79928,1.03998 -0.56832,3.26262 -0.65554,1.06539 -1.19189,2.04406 -1.19189,2.17483 0,0.13077 0.53635,0.15905 1.19189,0.0628 1.3466,-0.19764 1.388,-0.10895 0.59594,1.27662 -0.31229,0.54628 -0.57413,1.30951 -0.58187,1.69608 -0.0113,0.56451 0.19425,0.65054 1.04448,0.43715 0.92697,-0.23266 1.02015,-0.17186 0.74952,0.48904 -0.74647,1.82298 -0.72515,2.14527 0.14189,2.14527 0.55161,0 1.01268,-0.38418 1.31125,-1.09257 z m -13.57056,-21.9907 c 1.2391,-2.454645 1.28662,-3.022463 0.21864,-2.61264 -0.87647,0.336337 -1.83357,1.981357 -2.0969,3.604057 -0.35834,2.20818 0.48884,1.761 1.87826,-0.991417 z m 166.04859,-0.158438 c 0,-0.64896 -2.17036,-0.86535 -2.54817,-0.254062 -0.33081,0.535267 0.19589,0.849997 1.4225,0.849997 0.73573,0 1.12567,-0.206437 1.12567,-0.595935 z M 110.54704,76.577685 c 1.66245,-1.29282 1.81074,-1.678271 0.79554,-2.067842 -0.78923,-0.302856 -3.27862,2.110697 -3.27862,3.178742 0,0.714735 0.319,0.572017 2.48308,-1.1109 z M 123.095,76.13892 c 0.21443,-1.124393 -0.51056,-1.608796 -1.27048,-0.848873 -0.35742,0.35742 -0.64986,0.917693 -0.64986,1.245053 0,0.871425 1.74735,0.51093 1.92034,-0.39618 z m -1.64195,-1.944271 c 1.77293,-1.946512 2.13041,-3.873616 0.71857,-3.873616 -0.64003,0 -2.98343,3.337764 -2.98343,4.249369 0,0.82775 1.37672,0.599345 2.26486,-0.375753 z m 0.25717,-5.657806 c 1.17298,-1.172983 1.33818,-9.707391 0.22806,-11.781676 -0.48603,-0.908151 -1.89228,-0.966464 -2.2277,-0.09238 -0.13599,0.354388 0.0533,1.480138 0.42063,2.501666 0.60771,1.689955 0.6132,2.012309 0.0611,3.577196 -0.69506,1.970027 -0.79013,3.606441 -0.20951,3.606441 0.21851,0 0.3973,0.625737 0.3973,1.390528 0,1.499153 0.39322,1.735131 1.33014,0.798221 z"
     id="path86" />
  <path
     style="fill:#ffd42a;stroke-width:0.75"
     d="m 132.1993,114.98323 c -0.41959,-0.41959 -0.37218,-1.45008 0.0546,-1.18633 0.47344,0.2926 1.11236,-0.52953 1.44667,-1.86155 0.28766,-1.14612 -0.12115,-1.41733 -0.92491,-0.61358 -0.2622,0.26222 -0.47675,0.33989 -0.47675,0.17261 0,-0.47478 2.70501,-6.21148 2.92888,-6.21148 0.10974,0 0.098,0.62574 -0.0261,1.39053 -0.27169,1.67419 0.12936,1.76123 1.37294,0.29797 l 0.92853,-1.09256 -0.26053,0.99323 c -0.79005,3.01198 -4.37568,8.77875 -5.04328,8.11116 z"
     id="path87" />
  <path
     style="fill:#ffd42a;stroke-width:0.75"
     d="m 277.80166,177.07925 c 0.0449,-1.84447 -0.16446,-2.06414 -2.88983,-3.0312 l -2.16952,-0.76982 2.5092,-0.029 c 1.38007,-0.016 2.87016,-0.22219 3.31131,-0.45829 1.12527,-0.60223 1.8729,-2.62688 2.17659,-5.89446 0.25049,-2.69527 0.22515,-2.81103 -0.69018,-3.15345 -0.90018,-0.33675 -0.86654,-0.3789 0.63896,-0.8004 0.87405,-0.24471 2.16904,-0.44592 2.87776,-0.44714 l 1.28858,-0.002 -1.35723,1.77806 c -1.46034,1.91315 -2.37673,5.04852 -2.15054,7.35796 0.11536,1.17786 0.31704,1.42717 1.3279,1.64149 0.90784,0.19248 0.98051,0.2639 0.30494,0.29971 -0.87657,0.0464 -3.83914,2.67967 -4.74624,4.21859 -0.41484,0.70379 -0.46417,0.62268 -0.4317,-0.7098 z"
     id="path88" />
  <path
     style="fill:#ffd42a;stroke-width:0.75"
     d="m 199.58164,228.38704 c 0.0764,-1.62984 -0.55332,-1.80175 -2.03455,-0.55539 -1.56332,1.31545 -1.83857,1.27462 -1.09542,-0.16248 0.82579,-1.5969 0.81844,-1.6089 -0.98303,-1.6089 -1.14774,0 -1.58918,-0.16554 -1.58918,-0.59594 0,-1.00802 -1.57168,-0.69369 -1.98647,0.39729 -0.58511,1.53896 -1.32836,1.24931 -1.01945,-0.39729 0.28804,-1.53538 -0.42272,-1.92914 -1.38636,-0.76804 -0.45198,0.54462 -0.56991,0.45823 -0.94255,-0.69042 -0.23426,-0.7221 -0.73266,-1.37172 -1.10756,-1.44359 -0.37488,-0.0718 -1.22604,-0.63923 -1.89144,-1.26081 -0.66541,-0.62158 -2.05711,-1.62065 -3.09267,-2.22015 -2.3102,-1.3374 -4.96453,-3.38115 -4.71516,-3.63052 0.10121,-0.10121 1.17124,0.44749 2.37784,1.21934 3.18416,2.03688 5.26308,3.0348 6.29873,3.02349 0.82972,-0.009 0.76996,-0.14063 -0.67944,-1.49592 -0.87405,-0.8173 -2.12552,-1.87986 -2.78106,-2.36125 -2.43304,-1.78669 -0.2181,-0.82185 3.3172,1.445 2.01182,1.28998 5.39594,3.10317 7.52027,4.02931 4.43137,1.93192 6.04752,2.95536 6.04752,3.82964 0,0.44353 0.27981,0.56171 1.00272,0.42352 0.5515,-0.10543 1.08223,-0.063 1.17942,0.0942 0.17153,0.27755 -1.99708,3.97778 -2.33129,3.97778 -0.0917,0 -0.14029,-0.56199 -0.10807,-1.24888 z"
     id="path89" />
  <path
     style="fill:#ffd42a;stroke-width:0.397294"
     d="m 195.32058,248.60224 c -0.13112,-0.4892 -0.24083,-1.45218 -0.24382,-2.13996 l -0.005,-1.2505 -5.46279,-0.30905 c -9.07375,-0.51332 -28.98294,-0.44428 -29.53131,0.10241 -0.36392,0.3628 -0.68836,0.32902 -1.4155,-0.14743 -0.51886,-0.33996 -2.32728,-0.75025 -4.01873,-0.91174 -1.69145,-0.16149 10.95905,-0.29321 28.11222,-0.29269 19.5522,5.8e-4 29.40892,0.12083 26.42005,0.3223 -6.67738,0.45009 -11.79414,1.11889 -12.39868,1.62062 -0.28236,0.23433 -0.51337,1.10875 -0.51337,1.94314 0,1.73079 -0.58641,2.39201 -0.94265,1.0629 z"
     id="path90" />
  <path
     style="fill:#ffd42a;stroke-width:0.0496618"
     d="m 152.97256,249.54602 c -0.58884,-0.29148 -0.92333,-1.01382 -0.92936,-2.00704 -0.005,-0.82099 0.18748,-1.43279 0.57155,-1.81686 0.24239,-0.24239 0.43732,-0.34158 0.74223,-0.3777 0.3559,-0.0422 0.65609,0.0597 0.94716,0.32142 0.37684,0.33882 0.55485,0.73682 0.64153,1.43444 0.12994,1.04564 -0.23809,2.06375 -0.87174,2.41159 -0.32044,0.1759 -0.78584,0.19033 -1.10137,0.0341 z"
     id="path91" />
  <path
     style="fill:#ffd42a;stroke-width:0.75"
     d="m 156.32467,249.93515 c -0.0895,-0.29533 -0.0889,-2.63547 7.5e-4,-3.02554 0.0356,-0.15496 0.0937,-0.30573 0.12903,-0.33504 0.10209,-0.0847 0.22074,0.0894 0.28777,0.42219 0.0799,0.39665 0.0772,1.88954 -0.005,2.35487 -0.0706,0.40318 -0.21775,0.79459 -0.29879,0.79459 -0.0278,0 -0.0793,-0.095 -0.11453,-0.21107 z"
     id="path92" />
  <path
     style="fill:#ffd42a;stroke-width:0.75"
     d="m 130.49164,251.59798 c -0.5149,-0.17258 -2.2272,-1.07797 -3.01999,-1.59684 -1.19466,-0.78191 -2.57048,-1.9402 -3.81164,-3.20903 -0.63498,-0.64913 -0.87433,-0.92102 -1.49719,-1.70074 -1.11792,-1.39945 -1.77741,-1.9804 -2.80582,-2.47166 -1.09663,-0.52385 -2.57185,-0.79108 -4.86459,-0.88123 -1.8527,-0.0728 -2.81035,0.0567 -3.20361,0.43323 -0.18919,0.18114 -0.25555,0.34933 -0.29265,0.74166 -0.1166,1.2327 -0.56502,2.38975 -1.26673,3.26845 -0.59223,0.7416 -0.66512,0.40707 -0.35961,-1.65045 0.0659,-0.44422 0.13526,-0.942 0.15399,-1.10616 0.10169,-0.89099 0.0734,-1.59286 -0.0765,-1.89627 -0.0689,-0.13943 -0.0932,-0.15929 -0.20662,-0.16874 -0.10667,-0.009 -0.14873,0.009 -0.24672,0.10742 -0.22282,0.22282 -0.49807,0.8381 -0.744,1.66313 -0.25088,0.84159 -0.39711,1.48044 -0.73878,3.22749 -0.26562,1.35823 -0.70007,2.36873 -1.22445,2.84799 -0.32447,0.29654 -0.58683,0.32006 -0.82478,0.0739 -0.25699,-0.26583 -0.38174,-0.73145 -0.43024,-1.6059 -0.0177,-0.31869 -0.0547,-0.65433 -0.0824,-0.74587 -0.25104,-0.83126 -1.13601,-1.21687 -2.70863,-1.18023 l -0.52674,0.0122 -0.011,-0.24581 c -0.0294,-0.65448 0.30599,-1.94102 0.87892,-3.37114 0.32813,-0.81906 0.54832,-1.26432 0.69452,-1.40438 0.10195,-0.0977 0.1061,-0.0985 0.17563,-0.0356 0.0995,0.09 0.1899,0.40737 0.31524,1.10621 0.18327,1.02184 0.38719,1.51753 0.76739,1.8654 0.41715,0.38166 0.86804,0.35291 1.33092,-0.0849 0.35694,-0.33758 0.57068,-0.76104 0.8685,-1.72067 0.33969,-1.0945 0.60651,-1.43007 1.29663,-1.63066 0.75738,-0.22013 1.99084,-0.18595 5.35942,0.14851 2.62007,0.26015 4.32036,0.36104 5.09185,0.30215 0.5489,-0.0419 0.80043,-0.10704 0.95836,-0.24817 0.16639,-0.1487 0.15288,-0.31752 -0.0573,-0.71597 -0.09,-0.17062 -0.16363,-0.35027 -0.16363,-0.39923 0,-0.0827 0.009,-0.0875 0.12718,-0.0684 0.1877,0.0305 0.58986,0.27383 1.14978,0.6958 2.05993,1.55239 3.37885,3.07663 3.77879,4.36703 0.10615,0.34245 0.13116,0.81602 0.0581,1.10022 -0.0314,0.12227 -0.0571,0.27617 -0.0571,0.342 0,0.33118 0.35714,0.89149 0.97412,1.5283 0.69866,0.72112 1.34121,1.22479 2.4497,1.9202 1.43419,0.89974 2.4292,1.61204 2.91019,2.08332 0.40008,0.392 0.3707,0.46722 -0.11845,0.30327 z m -6.4812,-6.67156 c -0.0428,-0.13779 -0.26342,-0.4473 -0.76961,-1.07982 -0.72695,-0.90837 -1.39612,-1.57933 -1.76352,-1.76825 -0.14762,-0.0759 -0.33607,-0.0742 -0.40594,0.004 -0.0916,0.10212 -0.11065,0.30025 -0.0417,0.43468 0.12927,0.25205 0.93816,1.00579 1.57839,1.47078 0.11589,0.0842 0.32914,0.25576 0.4739,0.38132 0.61283,0.53156 0.99097,0.75866 0.92848,0.55762 z"
     id="path93" />
  <path
     style="fill:#ffd42a;stroke-width:0.0351161"
     d="m 112.35449,246.36365 c -0.097,-0.23211 -0.13152,-0.71348 -0.11352,-1.58227 0.0181,-0.87555 0.0589,-1.16013 0.184,-1.28307 0.0516,-0.0508 0.0638,-0.0471 0.14146,0.0422 0.34557,0.39781 0.35151,2.35396 0.009,2.84317 -0.09,0.12835 -0.16127,0.12186 -0.22058,-0.0201 z"
     id="path94" />
  <path
     style="fill:#ffd42a;stroke-width:0.75"
     d="m 114.4121,249.06576 c -0.10828,-0.13047 -0.15013,-0.56565 -0.16878,-1.75527 -0.0199,-1.26656 0.0164,-1.9271 0.1235,-2.24972 0.0739,-0.22262 0.14013,-0.22816 0.24178,-0.0203 0.23269,0.47599 0.29256,2.59123 0.0992,3.50624 -0.0867,0.41047 -0.20848,0.62413 -0.29575,0.51898 z"
     id="path95" />
  <path
     style="fill:#ffd42a;stroke-width:0.75"
     d="m 114.25651,235.82576 c -0.028,-0.073 0.0511,-0.34239 0.25509,-0.86915 0.34545,-0.89199 0.43994,-1.06485 0.72408,-1.32454 0.24798,-0.22664 0.4236,-0.25442 0.56863,-0.0899 0.15335,0.1739 0.0773,0.64072 -0.17053,1.04673 -0.25784,0.4224 -0.80274,0.97713 -1.19022,1.21171 -0.14535,0.088 -0.16209,0.0902 -0.18705,0.0252 z"
     id="path96" />
  <path
     style="fill:#ffd42a;stroke-width:0.75"
     d="m 125.45679,240.71838 c -0.15141,-0.11909 -0.92748,-1.10618 -1.21388,-1.54394 -0.72582,-1.1094 -1.16106,-2.14716 -1.23108,-2.93528 -0.0365,-0.41102 -0.12309,-0.6865 -0.28758,-0.91509 -0.1536,-0.21343 -0.26597,-0.2926 -0.4693,-0.33058 -0.24762,-0.0463 -0.34911,-0.16083 -0.45542,-0.51408 -0.15977,-0.53085 -0.15316,-1.37309 0.0196,-2.50207 0.25941,-1.69488 0.70779,-2.82863 1.16767,-2.95247 0.19998,-0.0538 0.30475,-0.13477 0.51254,-0.39591 0.41497,-0.52149 0.93114,-1.49509 1.42701,-2.6916 0.59919,-1.44581 1.09561,-2.25678 1.45901,-2.38345 0.0989,-0.0345 0.11938,-0.0286 0.20746,0.0595 0.16431,0.16431 0.17698,0.48242 0.0499,1.25292 -0.1675,1.01567 -0.51591,2.01114 -1.35812,3.88034 -0.60517,1.34312 -0.95449,2.51812 -1.13795,3.82765 -0.0856,0.61086 -0.0854,2.11861 3.4e-4,2.73907 0.16314,1.18076 0.35715,1.94681 0.92371,3.64753 0.39452,1.18426 0.53771,1.6587 0.53922,1.78669 7.5e-4,0.0634 -0.0471,0.0542 -0.15319,-0.0292 z"
     id="path97" />
  <path
     style="fill:#ffd42a;stroke-width:0.0351161"
     d="m 120.29695,230.53441 c -0.11513,-0.44026 1.10103,-4.05584 2.08965,-6.2124 0.8949,-1.95212 1.76433,-3.46808 2.10255,-3.66606 0.10897,-0.0638 0.11584,-0.064 0.15966,-0.004 0.1159,0.15851 0.0923,0.56285 -0.0737,1.26465 -0.49626,2.09761 -2.39288,6.41125 -3.55288,8.0806 -0.34739,0.49993 -0.67214,0.74048 -0.72528,0.53725 z"
     id="path98" />
</svg>
