<?xml version="1.0" encoding="UTF-8" standalone="no"?>
<svg
   version="1.0"
   width="500.00003pt"
   height="500.00003pt"
   viewBox="0 0 500.00003 500.00003"
   preserveAspectRatio="xMidYMid"
   id="svg10"
   sodipodi:docname="Logotipo-confeitaria-caseira-bege-marrom-_1_.svg"
   xmlns:inkscape="http://www.inkscape.org/namespaces/inkscape"
   xmlns:sodipodi="http://sodipodi.sourceforge.net/DTD/sodipodi-0.dtd"
   xmlns="http://www.w3.org/2000/svg"
   xmlns:svg="http://www.w3.org/2000/svg">
  <defs
     id="defs10" />
  <sodipodi:namedview
     id="namedview10"
     pagecolor="#ffffff"
     bordercolor="#000000"
     borderopacity="0.25"
     inkscape:showpageshadow="2"
     inkscape:pageopacity="0.0"
     inkscape:pagecheckerboard="0"
     inkscape:deskcolor="#d1d1d1"
     inkscape:document-units="pt" />
  <g
     transform="matrix(0.1,0,0,-0.1,0,500)"
     fill="#000000"
     stroke="none"
     id="g10">
    <path
       d="m 2194,4782 c -6,-4 -30,-43 -52,-87 -45,-91 -156,-263 -242,-376 -155,-204 -187,-372 -113,-604 20,-61 43,-104 94,-172 21,-29 39,-58 39,-65 0,-7 16,-82 35,-167 19,-85 33,-156 31,-158 -6,-7 -23,22 -82,137 -53,104 -69,125 -161,215 -145,142 -256,205 -571,321 -118,43 -192,45 -192,5 0,-25 92,-210 135,-271 50,-72 229,-287 269,-323 64,-58 121,-79 246,-88 63,-5 140,-10 170,-10 77,-1 141,-16 174,-42 21,-17 32,-40 46,-102 27,-113 26,-125 -15,-158 -20,-16 -38,-42 -44,-65 -10,-33 -7,-45 22,-107 28,-59 57,-94 184,-221 136,-137 154,-160 197,-245 46,-91 84,-146 161,-237 42,-48 26,-59 -28,-18 -60,44 -200,107 -375,167 -59,20 -105,45 -162,88 -44,33 -127,83 -184,112 -115,56 -142,83 -196,189 -18,36 -46,85 -63,110 -136,202 -637,488 -731,418 -18,-14 -17,-17 14,-74 18,-32 47,-79 65,-104 18,-25 62,-106 98,-181 63,-131 165,-278 202,-293 21,-8 5,21 -30,53 -28,26 -50,61 -39,61 4,0 44,-36 90,-80 46,-44 88,-80 94,-80 6,0 8,-5 5,-10 -4,-7 -20,-2 -43,12 l -37,23 18,-27 c 9,-15 17,-30 17,-33 0,-11 -179,-88 -240,-102 -207,-50 -275,-73 -304,-102 -18,-18 -27,-35 -23,-45 16,-42 217,-165 337,-206 165,-56 307,-50 457,18 48,22 104,43 123,47 102,21 195,59 278,115 48,32 109,65 135,72 44,11 54,10 115,-11 37,-12 109,-43 161,-67 51,-24 101,-44 109,-44 8,0 22,-7 31,-15 9,-9 45,-33 81,-54 35,-21 66,-43 67,-48 2,-5 -20,-8 -54,-5 -32,2 -77,-1 -99,-7 -73,-19 -220,-128 -302,-221 -121,-138 -210,-228 -257,-260 -24,-16 -46,-30 -50,-30 -3,0 -30,-16 -60,-34 -63,-41 -83,-70 -63,-93 18,-22 128,-73 156,-73 13,0 60,-9 105,-21 130,-33 224,-25 336,29 73,35 170,133 170,170 -1,33 102,418 120,450 20,37 26,17 8,-25 -22,-50 -37,-123 -26,-123 5,0 9,9 9,20 0,26 28,98 52,133 23,33 50,34 98,6 50,-30 60,-47 60,-104 0,-197 167,-417 360,-475 52,-16 76,-18 120,-11 60,10 73,6 117,-36 152,-146 337,-288 455,-349 108,-55 151,-61 61,-8 -58,33 -147,99 -228,169 -33,29 -98,80 -144,113 -46,34 -104,81 -129,104 -74,69 -76,80 -78,358 -2,277 -14,375 -70,549 -40,127 -92,220 -208,375 -104,138 -145,174 -184,160 l -27,-9 -6,-305 c -4,-226 -10,-331 -23,-405 -9,-55 -19,-101 -21,-103 -15,-16 -57,21 -180,158 -50,57 -213,285 -225,315 -8,20 -4,63 14,178 35,216 40,287 26,363 -7,36 -10,67 -7,70 3,3 50,-20 104,-51 54,-32 118,-69 142,-83 77,-45 181,-26 181,33 0,31 -29,105 -41,105 -6,0 -5,-9 1,-21 6,-11 10,-28 8,-37 -2,-12 -10,-6 -28,23 -66,108 -174,221 -251,262 l -54,28 32,3 c 20,2 52,-6 84,-22 59,-30 66,-32 48,-9 -21,24 -89,53 -129,53 -72,0 -102,-17 -205,-117 -86,-84 -187,-156 -199,-142 -2,2 -13,47 -25,99 -12,52 -37,158 -56,235 -60,249 -60,255 45,347 84,73 186,240 223,363 9,28 33,106 54,175 34,113 38,136 38,235 0,83 -6,129 -23,188 -27,96 -73,198 -101,226 -23,23 -30,25 -47,13 z m 45,-68 c 44,-56 73,-219 72,-406 -1,-146 -15,-227 -63,-345 -34,-82 -244,-373 -270,-373 -7,0 -9,32 -6,89 2,50 0,88 -4,85 -4,-3 -8,-16 -8,-28 0,-13 -3,-39 -7,-57 -7,-33 -7,-33 -14,-9 -25,87 8,331 57,418 13,24 18,42 12,40 -21,-7 -47,-72 -73,-188 -31,-132 -29,-229 6,-333 11,-32 18,-62 15,-65 -22,-21 -104,128 -133,240 -15,58 -16,80 -6,182 16,154 50,236 182,436 56,85 123,197 149,247 25,51 51,93 58,93 7,0 22,-12 33,-26 z m 109,-316 c 2,-53 1,-113 -4,-135 -7,-30 -10,-9 -15,102 -3,77 -9,154 -13,170 -6,29 -5,28 10,-5 10,-21 19,-72 22,-132 z m -539,-338 c -10,-52 -19,-135 -20,-185 l -1,-90 -16,65 c -12,51 -13,80 -5,135 9,59 50,182 58,173 2,-2 -5,-46 -16,-98 z m -644,-254 c 52,-16 167,-72 378,-186 134,-72 185,-120 257,-241 24,-41 62,-101 85,-134 59,-86 58,-85 41,-85 -8,0 -29,21 -47,46 -58,85 -160,193 -222,238 -70,50 -173,99 -197,93 -12,-3 -11,-6 5,-12 120,-46 266,-146 318,-217 27,-36 18,-44 -17,-17 -15,12 -29,19 -32,16 -3,-3 12,-18 33,-33 53,-39 93,-76 93,-87 0,-13 -121,1 -245,30 -121,28 -210,65 -268,114 -53,43 -149,164 -239,300 -118,178 -125,212 -41,198 26,-4 71,-15 98,-23 z m 990,-63 c -37,-62 -75,-113 -86,-113 -16,0 -9,14 47,93 60,85 83,97 39,20 z m -328,-67 c -6,-13 -27,38 -33,79 -4,22 1,17 16,-19 11,-27 19,-54 17,-60 z m -249,-472 c 59,-14 110,-28 114,-32 14,-14 -137,-1 -182,15 -47,17 -119,62 -120,76 0,4 18,-2 40,-13 22,-11 88,-32 148,-46 z m 940,-125 c 38,-19 81,-51 113,-87 58,-64 149,-197 149,-219 0,-20 -19,-13 -187,69 -174,84 -207,96 -289,104 -35,4 -64,10 -64,15 0,4 15,18 33,31 49,35 132,31 221,-10 38,-18 71,-30 73,-28 10,10 -149,79 -198,86 -30,4 -47,8 -38,9 9,0 19,10 22,21 6,22 38,38 78,39 14,1 53,-13 87,-30 z M 983,2976 c 185,-73 324,-182 437,-345 22,-31 71,-96 109,-146 38,-49 67,-93 65,-97 -3,-4 -28,-7 -56,-6 -48,0 -55,3 -106,51 -30,29 -95,100 -144,160 -49,59 -94,107 -100,107 -13,0 4,-21 139,-176 61,-71 111,-133 111,-139 -1,-5 -28,-20 -61,-33 l -61,-23 -53,37 c -64,44 -176,160 -224,234 -20,30 -58,96 -84,145 -26,50 -70,125 -97,167 -79,122 -54,134 125,64 z m 1362,-80 c 15,-11 20,-35 28,-146 6,-92 5,-149 -2,-189 -31,-154 -47,-222 -53,-224 -9,-3 -48,34 -169,160 -157,163 -200,265 -133,320 30,25 57,38 99,49 23,6 25,3 25,-25 0,-62 138,-431 162,-431 12,0 11,7 -19,102 -17,51 -34,88 -43,91 -18,5 -66,124 -84,212 l -13,64 31,10 c 72,23 145,26 171,7 z m 229,-65 c 55,-27 119,-57 141,-66 35,-15 37,-18 20,-25 -30,-11 -69,4 -160,62 -45,29 -91,58 -101,65 -43,27 5,10 100,-36 z M 1530,2554 c 18,-30 30,-57 27,-60 -6,-6 -200,240 -205,259 -7,26 148,-146 178,-199 z m 1392,-6 c 46,-48 183,-253 245,-368 80,-149 86,-187 87,-555 1,-302 3,-314 39,-395 7,-16 -20,-9 -28,6 -5,11 -26,44 -46,74 -102,154 -130,257 -149,555 -14,216 -20,262 -37,282 -13,17 -14,16 -9,-8 10,-49 25,-215 30,-349 8,-198 22,-260 91,-393 25,-48 41,-87 36,-87 -8,0 -73,80 -104,130 -9,14 -35,72 -57,130 -35,88 -43,119 -48,199 -4,69 -8,88 -14,72 -11,-32 6,-161 32,-236 11,-33 41,-101 66,-152 36,-73 59,-105 111,-153 36,-34 63,-63 61,-66 -9,-8 -124,43 -190,85 -81,51 -148,123 -182,194 -30,64 -48,181 -41,267 16,212 28,457 30,610 1,96 3,181 4,188 2,24 31,12 73,-30 z M 1708,2326 c 69,-32 87,-56 20,-27 -46,19 -108,35 -198,50 -53,9 -52,10 30,8 69,-2 97,-8 148,-31 z m -27,-28 c 68,-25 318,-158 319,-169 0,-4 -26,-14 -57,-23 -114,-31 -265,-95 -346,-144 -153,-94 -260,-121 -400,-103 -179,24 -477,153 -477,206 0,24 72,54 205,85 123,30 187,51 275,92 167,77 212,89 325,84 63,-3 110,-11 156,-28 z m 186,-256 c -31,-34 -184,-102 -229,-102 -18,0 -19,2 -7,16 7,9 22,20 34,25 205,85 231,93 202,61 z M 942,1909 c 59,-26 179,-62 278,-82 14,-3 -4,-3 -40,0 -91,8 -160,27 -254,72 -97,47 -84,54 16,10 z m 1575,-85 c -9,-10 -147,-31 -147,-23 0,13 54,27 104,28 27,1 47,-2 43,-5 z m 280,-73 c -17,-156 65,-334 193,-421 64,-44 215,-120 238,-120 7,0 10,-5 6,-11 -11,-19 -94,0 -167,38 -131,69 -243,213 -272,349 -15,71 -20,205 -8,217 14,14 16,5 10,-52 z m -240,32 c -17,-53 -77,-278 -91,-338 -35,-152 -92,-229 -203,-276 -75,-31 -84,-33 -213,-33 -143,-1 -218,15 -297,64 -56,34 -49,43 97,129 59,35 122,92 295,270 61,62 129,124 152,138 46,27 143,56 143,43 0,-4 -20,-20 -45,-34 -25,-15 -45,-34 -45,-42 0,-10 12,-5 41,18 33,26 42,30 49,18 8,-12 14,-10 37,11 50,47 89,62 80,32 z m 732,-130 c -1,-49 -4,-113 -9,-143 -6,-43 -7,-24 -9,88 0,89 3,142 9,142 6,0 10,-35 9,-87 z"
       id="path1"
       style="fill:#000040" />
    <path
       d="m 1837,3973 c -22,-35 -12,-163 13,-163 5,0 3,19 -3,43 -8,25 -10,58 -6,82 7,40 5,54 -4,38 z"
       id="path2"
       style="fill:#000040" />
    <path
       d="m 1981,3856 c -13,-54 -14,-78 -2,-56 10,18 25,100 18,100 -3,0 -10,-20 -16,-44 z"
       id="path3"
       style="fill:#000040" />
    <path
       d="m 1488,3343 c 29,-14 56,-23 59,-20 6,6 -84,47 -101,46 -6,0 13,-12 42,-26 z"
       id="path4"
       style="fill:#000040" />
    <path
       d="m 1198,2564 c -16,-15 23,-86 79,-144 64,-67 90,-74 29,-8 -48,52 -74,90 -81,121 -7,28 -18,40 -27,31 z"
       id="path5"
       style="fill:#000040" />
    <path
       d="m 2060,2755 c 0,-34 56,-138 90,-170 36,-33 35,-29 -16,48 -19,28 -39,67 -45,87 -14,43 -29,61 -29,35 z"
       id="path6"
       style="fill:#000040" />
    <path
       d="m 2885,1684 c 4,-21 11,-64 15,-95 8,-55 40,-131 60,-144 15,-9 12,4 -9,39 -18,29 -51,162 -51,205 0,11 -5,23 -11,27 -9,5 -10,-4 -4,-32 z"
       id="path7"
       style="fill:#000040" />
    <path
       d="m 1400,2211 c -104,-30 -140,-44 -140,-54 0,-5 8,-6 18,-2 161,68 353,79 482,27 8,-3 -23,-11 -70,-18 l -85,-13 87,5 c 49,3 114,0 147,-7 104,-20 90,-3 -29,36 -100,33 -130,38 -230,41 -90,3 -129,-1 -180,-15 z"
       id="path8"
       style="fill:#000040" />
    <path
       d="m 2183,1542 c -23,-15 -43,-30 -43,-35 0,-11 74,28 89,47 19,23 2,18 -46,-12 z"
       id="path9"
       style="fill:#000040" />
    <path
       d="m 2683,3013 c 30,-38 60,-79 66,-91 7,-13 15,-21 18,-18 12,12 -107,176 -128,176 -6,0 14,-30 44,-67 z"
       id="path10"
       style="fill:#000040" />
  </g>
  <path
     style="fill:#000040;stroke-width:0.108718"
     d="m 204.88049,390.87835 c -3.59971,-0.3123 -6.45898,-0.82787 -11.41546,-2.05835 -3.50448,-0.87001 -7.22892,-1.62552 -8.80623,-1.78636 -2.32762,-0.23734 -3.77355,-0.66428 -7.19664,-2.12493 -4.12026,-1.75813 -7.96564,-3.92856 -9.05594,-5.1114 -1.48197,-1.60774 -1.05438,-3.38379 1.37163,-5.69718 2.38448,-2.2738 7.02667,-5.26241 11.46429,-7.38062 1.02416,-0.48886 4.18164,-2.54375 5.6388,-3.66974 2.11343,-1.63311 4.15136,-3.51029 8.1152,-7.4751 5.025,-5.02622 8.06496,-8.28677 14.55499,-15.61112 3.23726,-3.65343 5.98628,-6.46832 8.53885,-8.74347 6.65898,-5.93523 13.51186,-10.80276 19.07998,-13.55233 4.00431,-1.97735 6.48918,-2.46355 12.23086,-2.39315 5.2833,0.0648 5.68996,0.0631 6.33005,-0.0266 0.34227,-0.048 0.7312,-0.1754 0.86427,-0.28315 0.23145,-0.18742 0.23408,-0.20797 0.0604,-0.47303 -0.40376,-0.61621 -3.73061,-2.91864 -7.25472,-5.02079 -2.59085,-1.54547 -5.98055,-3.80664 -7.17544,-4.78653 -1.00246,-0.82209 -2.5273,-1.68529 -2.97706,-1.68529 -1.06029,0 -4.78105,-1.47122 -11.75627,-4.64855 -9.37296,-4.26954 -16.01382,-6.87154 -20.25394,-7.93584 -0.99711,-0.25029 -1.38508,-0.29132 -2.73813,-0.28963 -1.37388,0.001 -1.76831,0.0459 -3.06982,0.34367 -1.77632,0.40643 -2.89262,0.83598 -5.31561,2.04539 -3.16992,1.58225 -5.69214,3.0513 -9.60753,5.59586 -5.80229,3.77083 -10.49865,6.10822 -16.85141,8.38702 -2.53188,0.90821 -6.87651,2.13169 -9.78468,2.75544 -2.8452,0.61024 -6.97152,2.12495 -12.67756,4.65373 -3.19835,1.41743 -4.76181,2.03215 -7.38105,2.90206 -5.6062,1.86195 -10.55518,2.73699 -16.38935,2.89783 l -2.52772,0.0697 v -1.10418 -1.10417 h 0.81539 c 0.44846,0 0.81539,-0.0456 0.81539,-0.1013 0,-0.0557 -0.36693,-0.18294 -0.81539,-0.28272 l -0.81539,-0.1814 v -1.36285 -1.36285 l 0.46918,0.0643 c 2.54887,0.34936 8.9982,0.36392 11.5986,0.0262 8.49278,-1.10302 15.94114,-3.9817 26.03814,-10.06335 9.05332,-5.45301 22.17337,-11.01924 34.30913,-14.55579 4.86363,-1.41733 6.89597,-2.25534 6.70113,-2.7631 -0.2927,-0.76275 -11.51789,-7.04435 -21.60371,-12.08939 -8.41879,-4.21117 -11.72256,-5.51848 -16.33522,-6.46387 -5.13134,-1.0517 -13.75495,-1.48196 -18.53144,-0.92458 -5.53098,0.64541 -10.6387,2.35161 -20.61788,6.88723 -1.06717,0.48504 -1.96002,0.88189 -1.98412,0.88189 -0.0241,0 -0.0438,-0.60915 -0.0438,-1.35367 v -1.35366 l 0.73386,-0.40123 c 1.25648,-0.68696 2.32461,-1.36849 2.38293,-1.52046 0.0307,-0.0801 0.002,-0.30841 -0.0634,-0.50734 -0.18126,-0.54921 -1.47127,-2.82402 -2.31765,-4.08695 -0.41421,-0.61807 -0.73695,-1.1398 -0.71721,-1.15939 0.0197,-0.0196 0.74531,0.40698 1.61234,0.94797 3.01222,1.87949 4.26665,2.47672 5.2021,2.47672 0.58671,0 0.84001,-0.15883 0.94959,-0.59542 0.0928,-0.36965 -0.11923,-0.68037 -0.52459,-0.76886 -0.41167,-0.0899 -1.0081,-0.47865 -2.1481,-1.40021 -0.92444,-0.7473 -3.27579,-2.79792 -4.38028,-3.82006 l -0.73821,-0.68316 0.0315,-0.94255 0.0315,-0.94254 0.76104,0.67561 c 1.5747,1.39797 3.61373,2.95781 6.49002,4.96481 1.63268,1.13925 3.07326,2.13495 3.20129,2.21267 0.20692,0.12562 0.59337,0.005 3.47899,-1.08668 5.76555,-2.18102 8.95396,-3.76656 8.95396,-4.45263 0,-0.40757 -2.365,-3.52026 -6.03787,-7.94673 l -2.02971,-2.44617 0.95541,-0.0317 0.95543,-0.0317 0.97633,1.06454 c 1.47651,1.60987 5.86748,5.97321 6.9689,6.92502 1.39956,1.20946 2.63978,1.99999 3.72406,2.37372 0.85395,0.29435 1.11597,0.32866 3.27961,0.42947 3.25752,0.15179 6.32796,-0.094 6.77639,-0.54241 0.32466,-0.32466 -1.85088,-3.7121 -5.47761,-8.52897 l -1.28924,-1.71231 2.91049,0.001 2.91049,0.001 0.58917,1.1127 c 3.58826,6.77658 6.39166,9.9444 11.59968,13.10751 1.56347,0.94957 4.15993,2.34793 6.9532,3.74474 4.12766,2.06407 10.27011,5.66597 14.7782,8.66585 1.89876,1.26352 2.60625,1.76096 4.54435,3.1952 1.72854,1.27914 4.37771,3.01689 6.16445,4.04361 2.9482,1.69415 5.5159,2.80627 10.49136,4.54401 11.40704,3.98404 20.41155,7.6743 27.77763,11.38394 4.14718,2.08855 5.71091,3.01806 9.40418,5.58999 1.26756,0.88271 2.68382,1.62104 3.31848,1.73001 0.49429,0.0849 0.86812,-0.15984 0.8648,-0.56614 -0.006,-0.74755 -0.71887,-1.81656 -3.19588,-4.79317 -7.28957,-8.75973 -11.14346,-14.46063 -15.03765,-22.24445 -1.74098,-3.47992 -3.4968,-6.52549 -4.91625,-8.52748 -2.3774,-3.3531 -4.97635,-6.22014 -13.55071,-14.94854 l -5.88112,-5.98676 1.56898,-0.0302 1.56897,-0.0301 1.96599,2.04144 c 3.1599,3.28116 10.59463,10.68277 11.65936,11.60742 1.17164,1.01748 2.1693,1.6864 2.51517,1.6864 0.18287,0 0.31059,-0.11339 0.462,-0.41019 0.46863,-0.91857 1.46825,-4.89915 2.77737,-11.05963 0.3939,-1.85366 0.74113,-3.48036 0.77164,-3.6149 0.0534,-0.23559 0.0998,-0.24462 1.25792,-0.24462 h 1.20247 l -0.062,0.29898 c -0.0937,0.45175 -0.87261,5.40186 -1.30434,8.28981 -0.82172,5.49672 -1.14634,8.5614 -1.14929,10.85041 -0.003,2.25225 0.13514,2.81799 1.07267,4.39608 3.28146,5.52345 15.83689,23.02578 20.81634,29.01807 0.61377,0.73863 1.89354,2.19912 2.8439,3.24553 9.39517,10.34469 13.40107,14.02472 15.26662,14.02472 0.97347,0 1.03562,-0.12694 1.74982,-3.57402 2.65449,-12.81181 3.10734,-19.48194 3.74682,-55.18847 0.0942,-5.26198 0.19844,-9.97087 0.23157,-10.46418 l 0.0602,-0.89692 h 1.60872 1.60872 l -0.0442,2.52771 c -0.0243,1.39023 -0.0931,5.31634 -0.1529,8.72468 -0.27857,15.87655 -1.12907,33.56408 -2.70795,56.31631 -0.4317,6.22109 -0.4669,7.25682 -0.33612,9.8934 0.30582,6.16592 1.29456,12.00746 2.83259,16.73495 0.95257,2.92796 1.99621,5.03835 3.92814,7.94323 4.31818,6.49292 10.50377,12.09444 18.30313,16.5749 2.23326,1.28292 7.71259,4.00185 10.17415,5.04855 3.38937,1.44125 5.9972,2.20314 6.23333,1.82109 0.20323,-0.32886 -2.23341,-3.00625 -5.92396,-6.50924 -5.5943,-5.31001 -7.39418,-7.77229 -11.06742,-15.14046 -3.24757,-6.51433 -6.16532,-13.35468 -7.29521,-17.10283 -1.4858,-4.92876 -2.63951,-11.50413 -2.95499,-16.84138 -0.17894,-3.02726 0.0691,-5.46634 0.55587,-5.46634 0.36269,0 0.62322,1.90213 0.9826,7.17395 0.59471,8.72369 1.11121,10.8553 5.08472,20.98421 2.83698,7.23179 4.67183,11.20319 6.32524,13.69053 2.40003,3.61054 6.37566,8.68194 8.42201,10.74334 0.87589,0.88233 1.12407,1.03971 1.22496,0.7768 0.20905,-0.54477 -0.88632,-3.14041 -3.78275,-8.96366 -3.48123,-6.99905 -4.78755,-10.0826 -5.90036,-13.92782 -1.81998,-6.28879 -2.50242,-12.1038 -3.11108,-26.50911 -0.49695,-11.7618 -1.7931,-26.90301 -2.78274,-32.50691 -0.38955,-2.20586 -0.45598,-2.71922 -0.35958,-2.77879 0.128,-0.0791 1.36457,1.55833 1.68798,2.2352 0.15714,0.32887 0.42465,1.16057 0.59447,1.84822 0.78751,3.18904 1.29241,8.46478 2.43459,25.44018 1.27804,18.99456 2.67246,28.3322 5.48751,36.74694 2.17186,6.49213 4.51927,11.06833 9.89891,19.29758 1.7006,2.60141 3.28849,5.15632 4.17438,6.71655 0.19504,0.34351 0.50129,0.65654 0.90374,0.92375 0.53525,0.35539 0.6887,0.40423 1.27101,0.40453 l 0.66228,3.6e-4 0.0331,-0.34146 c 0.0226,-0.23323 -0.20769,-0.91018 -0.72666,-2.13554 -1.73852,-4.10478 -2.28803,-6.37945 -2.67151,-11.05848 -0.30835,-3.76237 -0.38585,-7.10931 -0.48838,-21.09144 -0.19489,-26.57747 -0.28838,-30.51045 -0.87833,-36.9458 -0.8318,-9.07327 -2.4191,-14.07586 -7.47429,-23.55619 -4.11805,-7.72286 -12.46056,-20.90449 -18.90587,-29.8723 -0.67758,-0.94278 -1.23198,-1.73779 -1.23198,-1.76668 0,-0.0289 0.62433,-0.0525 1.38741,-0.0525 h 1.38741 l 1.59417,2.09283 c 5.81772,7.63755 10.51881,14.53097 13.73493,20.14015 3.48138,6.07183 5.87469,11.57972 8.24355,18.97142 4.14627,12.93796 5.71372,21.26183 6.42842,34.13769 0.29525,5.31936 0.3771,8.26311 0.4897,17.61244 0.13868,11.51517 0.303,19.68535 0.43841,21.79811 0.50434,7.86957 1.5441,11.0343 4.72401,14.37864 l 1.0369,1.09053 v 2.02292 c 0,1.11262 -0.0294,2.02293 -0.0653,2.02293 -0.0359,0 -0.4097,-0.31881 -0.83055,-0.70846 -1.76075,-1.63018 -3.24278,-2.51315 -4.7613,-2.83671 -1.08234,-0.23062 -3.06179,-0.15034 -5.46274,0.22156 -3.72864,0.57754 -5.5802,0.57964 -8.39629,0.01 -1.33151,-0.26957 -3.96122,-1.01652 -5.56399,-1.5804 -15.67016,-5.51302 -29.63725,-21.65124 -33.40097,-38.59302 -0.61947,-2.78845 -0.98662,-6.20486 -0.98759,-9.18958 -7e-4,-2.18466 -0.28129,-3.6887 -0.94261,-5.05257 -0.79654,-1.64276 -3.19039,-3.61013 -6.34193,-5.21207 -1.86302,-0.94698 -2.84231,-1.23498 -4.24003,-1.24694 -1.07004,-0.009 -1.18777,0.0122 -1.87949,0.33978 -1.42066,0.67292 -2.52645,2.01278 -3.98053,4.82318 -1.91898,3.70889 -3.49301,8.20442 -3.65953,10.45188 -0.0811,1.09426 -0.31335,1.87878 -0.61978,2.0934 -0.39436,0.27623 -0.51515,0.0379 -0.51476,-1.0158 7.5e-4,-2.22108 1.12095,-6.62544 2.64465,-10.39887 1.3672,-3.38585 1.71046,-5.16178 0.99768,-5.16178 -0.56255,0 -1.57116,1.55737 -2.28407,3.52682 -2.78871,7.70396 -10.96884,38.814 -11.31545,43.03409 -0.0751,0.91389 -0.27836,1.62661 -0.71058,2.49108 -1.4491,2.89829 -5.93608,7.67085 -10.53274,11.20308 -4.033,3.0991 -9.57207,5.71668 -15.22813,7.19633 -3.52757,0.92281 -6.39623,1.26683 -10.34486,1.24057 -1.51153,-0.01 -2.94393,-0.0352 -3.18312,-0.056 z m 5.87081,-4.49193 c 4.63336,-0.10674 6.33067,-0.25125 8.39871,-0.71508 2.20056,-0.49353 6.01974,-1.92229 9.10501,-3.40621 8.04778,-3.87067 12.99895,-9.74762 16.29399,-19.34071 0.86394,-2.51524 1.13306,-3.48193 2.51806,-9.04487 2.29981,-9.23738 6.19305,-23.74685 8.06369,-30.05208 0.7638,-2.57451 0.86012,-3.19549 0.54454,-3.51091 -0.26298,-0.26285 -1.04569,-0.23558 -1.8248,0.0636 -1.28555,0.49361 -3.60151,2.11513 -5.53686,3.87662 -2.4,2.18441 -3.07434,2.60173 -3.68979,2.28347 -0.18304,-0.0947 -0.33281,-0.21163 -0.33281,-0.25994 0,-0.0483 -0.18818,-0.29167 -0.41818,-0.5408 -0.50139,-0.54313 -0.78546,-0.57376 -1.63844,-0.1767 -0.67119,0.31243 -1.52311,0.89819 -3.16188,2.17403 -2.25544,1.75595 -3.5404,2.48944 -3.87484,2.21188 -0.22256,-0.18469 -0.18025,-0.43767 0.1625,-0.97163 0.65765,-1.02454 2.32086,-2.38584 4.63645,-3.79483 2.53521,-1.54262 4.13805,-2.81417 4.05975,-3.22063 -0.13483,-0.69976 -3.22737,-0.16946 -7.47638,1.28204 -3.60928,1.23296 -6.29869,2.50214 -8.0002,3.77544 -3.33941,2.499 -7.17671,6.12667 -18.53519,17.52259 -12.09035,12.13022 -14.10632,14.06787 -18.26949,17.55978 -3.0943,2.59541 -4.42733,3.5122 -9.61687,6.61399 -8.28186,4.95007 -10.42837,6.72122 -10.12239,8.35224 0.16812,0.89615 1.10847,1.71587 3.8167,3.32702 2.83772,1.68821 5.04377,2.70562 7.93647,3.66026 6.09642,2.0119 13.40414,2.64381 26.96225,2.33146 z m 112.22318,-5.81165 c 0.19338,-0.11695 0.43272,-0.38365 0.53189,-0.59263 0.15853,-0.33406 0.16157,-0.41335 0.0252,-0.65631 -0.0853,-0.152 -0.25129,-0.29013 -0.36882,-0.30697 -2.49588,-0.35759 -9.5847,-3.61887 -17.49998,-8.05105 -7.60629,-4.25917 -11.30169,-7.20019 -15.41407,-12.26749 -5.71171,-7.03799 -9.56754,-16.44343 -10.53378,-25.69477 -0.217,-2.07773 -0.16537,-6.2389 0.1119,-9.01972 0.36689,-3.67947 0.30143,-4.89628 -0.2634,-4.89628 -0.42563,0 -1.00549,0.60273 -1.1898,1.23672 -0.78495,2.70013 -0.30871,13.62253 0.87292,20.02032 1.17377,6.35527 4.08132,12.87585 8.4949,19.051 2.15243,3.01151 3.62863,4.73102 6.60309,7.69139 3.0732,3.05865 5.6202,5.14523 8.73192,7.15341 4.76752,3.0768 10.43506,5.41766 15.4695,6.38934 1.45763,0.28133 3.92164,0.24965 4.42852,-0.057 z m 4.74936,-29.60345 c 0.25523,-0.80722 0.66422,-4.38143 0.87392,-7.63749 0.62998,-9.78184 0.3917,-17.07361 -0.56764,-17.37148 -0.36216,-0.11245 -0.60023,1.23389 -0.80327,4.54266 -0.25122,4.09398 -0.10211,19.71996 0.19559,20.49572 0.0833,0.21713 0.2279,0.20301 0.3014,-0.0294 z M 240.8664,319.9012 c 4.23534,-0.49395 9.07834,-1.42891 10.46418,-2.02014 0.62784,-0.26786 0.59342,-0.47556 -0.10872,-0.65607 -0.84568,-0.21742 -5.26804,-0.18154 -7.0939,0.0575 -3.78509,0.49565 -6.63712,1.43942 -7.08504,2.34453 -0.0723,0.14615 -0.10713,0.30515 -0.0773,0.35333 0.089,0.14406 2.38654,0.0974 3.90083,-0.0792 z m -75.27618,-14.0777 c 4.71939,-0.96175 13.98385,-4.96159 18.76539,-8.10177 1.41061,-0.9264 2.82267,-2.2241 3.1963,-2.93746 0.25731,-0.49125 0.25773,-0.49738 0.0447,-0.65526 -0.54649,-0.405 -3.18175,0.43908 -10.4235,3.33869 -4.54706,1.82066 -10.56164,4.30687 -11.2139,4.63543 -1.37139,0.69081 -2.90043,2.019 -3.4978,3.03832 l -0.29214,0.4985 0.24905,0.20167 c 0.34368,0.2783 1.75702,0.27022 3.17193,-0.0181 z m 11.40391,-34.61821 c 0,-0.93861 -6.76118,-4.45741 -10.95607,-5.70201 -2.32733,-0.69051 -4.82627,-1.0316 -8.83074,-1.20535 -3.19361,-0.13858 -7.79399,-0.14523 -7.8767,-0.0114 -0.11844,0.19164 0.0135,0.21992 6.1372,1.31613 7.77845,1.39241 12.91629,2.76319 17.73174,4.73085 1.77439,0.72504 2.98534,1.11632 3.49559,1.1295 0.24663,0.006 0.29898,-0.0388 0.29898,-0.25772 z"
     id="path11" />
  <path
     style="fill:#000040;stroke-width:0.307503"
     d="m 229.45718,258.07195 c -2.19563,-3.11006 -7.27325,-15.5049 -11.46789,-27.99396 -2.35909,-7.02393 -3.54722,-11.50679 -3.88869,-14.67209 l -0.23221,-2.15252 -1.09788,-0.0921 c -2.77212,-0.23266 -10.03656,3.37296 -12.43049,6.16973 -1.12882,1.31877 -2.00392,3.63323 -1.996,5.27896 0.0255,5.29936 4.90452,13.42796 13.81107,23.00984 1.53426,1.65059 2.78956,3.06894 2.78956,3.1519 0,0.083 -0.61578,0.15084 -1.3684,0.15084 -1.36462,0 -1.37936,-0.0118 -5.35608,-4.30772 -6.31398,-6.82071 -8.87025,-10.63148 -11.43063,-17.04034 -0.82924,-2.07567 -0.95562,-2.73616 -0.85309,-4.45879 0.18287,-3.07266 1.27567,-5.11495 4.52041,-8.44803 1.49878,-1.53958 2.8809,-3.10149 3.07137,-3.47091 0.84219,-1.63344 0.0969,-7.3693 -1.96382,-15.11413 -1.52009,-5.71292 -2.93315,-7.69301 -6.74059,-9.44537 -3.36171,-1.54724 -7.38756,-2.27583 -14.45822,-2.61662 -8.89653,-0.4288 -19.17086,-1.18088 -23.07778,-1.6893 -7.13319,-0.92826 -12.27364,-2.92591 -16.75449,-6.51103 -5.54487,-4.43645 -25.98023,-28.97467 -30.85014,-37.04402 -3.70202,-6.13417 -9.48763,-17.7748 -11.027852,-22.18801 l -0.703493,-2.01571 0.63885,-0.86006 c 2.084795,-2.80671 8.742595,-1.799 22.719265,3.43875 22.26533,8.34393 33.54513,14.11562 43.97294,22.50021 4.06059,3.26496 14.55538,13.49117 17.15158,16.71265 2.76249,3.42782 4.13512,5.70457 8.58522,14.24018 4.73758,9.08703 6.45618,12.01436 7.13355,12.15075 0.93407,0.1881 0.7546,-0.88264 -3.36673,-20.08711 -1.45181,-6.76507 -2.70088,-12.60741 -2.77571,-12.98298 -0.0748,-0.37558 -1.19558,-2.24366 -2.49051,-4.1513 -5.79357,-8.53477 -6.58353,-9.77574 -7.88446,-12.38602 -3.90726,-7.8398 -6.469,-19.03038 -6.47618,-28.29029 -0.005,-5.45832 0.34041,-8.208348 1.65708,-13.222623 2.18833,-8.333895 5.96325,-15.435225 13.97139,-26.282851 9.56065,-12.9506 17.86311,-25.903433 23.76133,-37.070496 4.10558,-7.773072 5.33843,-9.356015 6.96818,-8.946972 2.91931,0.732701 8.26073,10.670533 11.67201,21.716062 2.59575,8.404894 3.04312,11.578663 3.05581,21.678967 0.0134,10.643758 -0.24779,11.984105 -5.92027,30.38456 -4.63224,15.026103 -5.4381,17.164083 -9.09229,24.122553 -5.49684,10.46733 -10.19725,16.60876 -19.23824,25.13619 -7.20525,6.79596 -7.29374,8.56754 -1.61268,32.28782 1.09366,4.56642 3.29957,13.83672 4.902,20.60068 1.60243,6.76395 3.10282,12.4874 3.3342,12.71877 0.61226,0.61227 1.96704,0.0832 5.26353,-2.05549 3.60671,-2.33996 8.04288,-5.90482 12.52694,-10.06654 10.43045,-9.68062 12.58383,-11.38627 16.1179,-12.76659 1.48401,-0.57961 2.40625,-0.70093 5.47468,-0.72015 4.14758,-0.0259 6.13885,0.47483 10.14668,2.55187 2.04252,1.05853 4.70034,3.28321 4.34589,3.63766 -0.0908,0.0908 -1.9395,-0.67551 -4.10821,-1.7029 -5.61016,-2.65771 -8.23413,-3.2219 -11.92187,-2.56339 l -1.23002,0.21964 3.38254,1.80538 c 4.40413,2.35064 6.31452,3.66444 10.17635,6.99847 5.43386,4.69118 10.60616,10.73827 16.05974,18.77588 1.63719,2.41292 3.18426,4.38712 3.43795,4.38712 0.73616,0 0.74454,-2.26237 0.0152,-4.11263 -0.34664,-0.87942 -0.63025,-1.74914 -0.63025,-1.93271 0,-0.67743 0.98659,0.50127 1.82731,2.18316 1.69235,3.38554 2.6382,7.30429 2.16295,8.96136 -0.91522,3.19118 -5.77108,5.13767 -10.84783,4.34841 -3.52629,-0.54822 -5.02528,-1.24482 -14.0859,-6.54579 -9.50046,-5.55831 -16.92236,-9.40541 -17.4801,-9.0607 -0.41492,0.25643 -0.3492,1.0085 0.65844,7.53587 0.54119,3.50571 0.61403,5.02235 0.4726,9.8401 -0.1504,5.12335 -0.98368,12.75179 -2.1085,19.30261 -0.32892,1.91563 -0.3334,1.9219 -1.37469,1.9219 -0.57458,0 -1.04123,-0.10378 -1.03701,-0.23063 0.005,-0.12684 0.3621,-1.75277 0.79528,-3.61316 0.69216,-2.97276 0.80661,-4.27659 0.94473,-10.76261 0.15722,-7.38352 -0.35942,-16.88998 -1.17816,-21.67897 -0.75952,-4.44258 -1.8538,-5.29607 -7.0271,-5.48079 -3.79328,-0.13546 -7.61336,0.43998 -12.17969,1.83471 l -3.10836,0.9494 1.04986,5.10016 c 1.89731,9.21705 6.48528,21.33384 8.60348,22.72175 1.3701,0.89773 3.82623,6.81669 6.0808,14.65395 1.1597,4.03133 0.993,5.60925 -0.3862,3.65563 z m 44.673,-32.16648 c 0.31349,-0.22923 0.49178,-0.62058 0.3962,-0.86966 -0.0956,-0.24909 -1.6748,-1.12256 -3.50937,-1.94106 -1.83457,-0.81849 -6.89089,-3.18454 -11.23627,-5.25788 -7.54872,-3.60177 -12.99521,-5.96725 -13.73953,-5.96725 -1.0017,0 0.28409,0.97439 6.80319,5.15555 12.24728,7.85505 15.09148,9.26757 18.69892,9.28651 1.22748,0.007 2.23996,-0.15255 2.58686,-0.40621 z m 3.80122,-2.55551 c 0.60969,-1.08946 -0.56364,-3.39889 -5.22549,-10.28522 -5.97127,-8.82056 -11.41719,-14.98063 -16.23517,-18.36416 -2.48866,-1.74772 -6.91567,-3.98157 -9.8488,-4.96968 -4.44499,-1.4974 -9.89316,-0.19746 -11.2265,2.67866 -0.64598,1.39342 -1.64619,2.54739 -2.20796,2.54739 -0.22421,0 -0.40765,0.12266 -0.40765,0.27259 0,0.14992 0.65729,0.36431 1.46064,0.47642 2.99131,0.41743 6.81203,1.51525 10.99323,3.15874 4.69457,1.84527 11.24324,5.05463 10.69014,5.239 -0.19027,0.0634 -1.70476,-0.46168 -3.36553,-1.16689 -9.15001,-3.88536 -12.48513,-4.73961 -17.62596,-4.5147 -3.94559,0.17263 -5.90181,0.85106 -8.71403,3.02206 -2.01549,1.55594 -2.59203,2.31741 -2.11546,2.79399 0.36249,0.36249 3.93795,1.06343 7.60071,1.49006 6.93516,0.8078 11.11707,2.38591 28.87456,10.89629 15.46928,7.41375 16.70095,7.89109 17.35327,6.72545 z m -84.20447,-39.74249 c 0,-0.32278 -2.3178,-4.09398 -5.15067,-8.38043 -2.83287,-4.28646 -6.5249,-10.06554 -8.20451,-12.84239 -6.71741,-11.10572 -11.37366,-15.97084 -20.52676,-21.44752 -8.42984,-5.04393 -33.85554,-18.07056 -39.84021,-20.4118 -5.62008,-2.1986 -14.62305,-4.17761 -17.14392,-3.76853 -1.19924,0.19461 -1.99986,1.05716 -1.99986,2.15454 0,1.96194 2.314,6.49479 7.18965,14.08374 9.81963,15.28421 20.79474,29.36877 26.5113,34.02244 5.92224,4.8211 13.34448,8.03696 25.43762,11.02142 7.14709,1.76385 15.30499,3.21055 20.75192,3.68012 4.28683,0.36955 5.28787,0.24212 5.28787,-0.67315 0,-0.87072 -3.37841,-4.09975 -8.22584,-7.86211 -3.5749,-2.7747 -4.58395,-3.74961 -3.88089,-3.74961 0.10638,0 1.20867,0.69189 2.44956,1.53752 2.46525,1.68 3.50711,1.94281 3.50711,0.88468 0,-1.66538 -5.52889,-7.67493 -10.61778,-11.54088 -6.09469,-4.63002 -14.44656,-9.54928 -20.51225,-12.08174 -3.03983,-1.26915 -3.79965,-1.86231 -2.38553,-1.86231 1.28992,0 5.72954,1.6685 9.29079,3.49166 8.12278,4.1584 12.0034,7.04532 18.90206,14.06186 4.87086,4.95409 7.77876,8.3273 11.77402,13.65805 3.42824,4.57419 5.46518,6.61131 6.6107,6.61131 0.55823,0 0.77562,-0.16449 0.77562,-0.58687 z m -24.77914,-0.21479 c 0.73133,-0.28064 0.58718,-0.71237 -0.35923,-1.07586 -0.4651,-0.17864 -4.51261,-1.27065 -8.99446,-2.42668 -9.18231,-2.36846 -13.22466,-3.60755 -16.5944,-5.08664 -1.27438,-0.55936 -2.71128,-1.11528 -3.19312,-1.23537 -0.74452,-0.18556 -0.85967,-0.13317 -0.76683,0.34885 0.27025,1.40334 7.35409,5.91649 11.55198,7.35983 4.16373,1.4316 16.44895,2.8477 18.35606,2.11587 z m 26.79631,-38.69703 c -0.11286,-0.75257 -0.75112,-3.11819 -1.41837,-5.25693 -1.99157,-6.38364 -2.48077,-9.18422 -2.65641,-15.20748 -0.18426,-6.31836 0.26931,-10.5011 1.93402,-17.83518 2.32792,-10.255938 4.6808,-16.884122 6.61485,-18.634428 0.96129,-0.869947 0.73147,0.09244 -0.78815,3.300383 -3.36062,7.09434 -5.51444,16.880745 -6.34122,28.812955 -0.49307,7.11594 0.23017,14.31664 1.47979,14.73318 0.48326,0.16109 1.30526,-4.26501 1.91626,-10.31818 0.005,-0.0523 0.1577,-0.004 0.33872,0.10839 0.22354,0.13816 0.29952,2.63476 0.23684,7.7826 -0.0508,4.16855 0.018,7.89053 0.15285,8.27107 0.13483,0.38053 0.46113,0.69188 0.72511,0.69188 1.55592,0 11.08423,-12.09766 19.61774,-24.90775 4.76774,-7.1571 6.87237,-10.93576 8.47796,-15.2214 4.15325,-11.08583 5.48183,-20.57066 5.10419,-36.439114 -0.35699,-15.000637 -2.21626,-26.374822 -5.41035,-33.098115 -1.84884,-3.891684 -4.48604,-6.355138 -5.71312,-5.336749 -0.65922,0.547103 -2.73226,4.021402 -5.59436,9.375824 -3.26814,6.114069 -7.91591,13.830323 -14.53974,24.13899 -9.35455,14.558469 -12.65004,20.657606 -15.05008,27.853946 -2.30213,6.90273 -3.78438,16.701768 -3.81043,25.190328 -0.016,5.2122 0.44627,7.67282 2.62848,13.9914 2.37604,6.87981 7.76423,17.00348 9.97578,18.74308 0.44023,0.34628 1.14341,0.62961 1.56263,0.62961 0.72781,0 0.75294,-0.0617 0.55701,-1.36831 z m 13.19377,-9.16367 c 2.7722,-3.1495 8.17877,-11.81901 8.91722,-14.29889 0.36588,-1.2287 -0.6066,-0.78992 -2.26081,1.02004 -0.86053,0.94155 -2.84628,3.52759 -4.41278,5.74674 -5.2215,7.39696 -6.06496,9.1465 -4.40953,9.1465 0.51318,0 1.18696,-0.50221 2.1659,-1.61439 z m -26.08639,-3.14762 c 0.24604,-0.64118 -0.9676,-4.48941 -2.28037,-7.23061 -0.99083,-2.06895 -1.1168,-2.21589 -1.22423,-1.4279 -0.1773,1.30044 0.73673,5.03006 1.7662,7.20689 0.89844,1.89974 1.40434,2.32218 1.7384,1.45162 z m -3.44904,-25.9883 c 0.64617,-5.91309 1.21098,-9.86041 2.02398,-14.145138 0.49742,-2.62146 0.9968,-5.561962 1.10973,-6.534442 0.46132,-3.97221 -1.289,-1.002315 -3.50977,5.955285 -2.34599,7.34994 -3.29592,13.572765 -2.811,18.414505 0.22765,2.27314 1.83652,9.75366 2.38085,11.06994 0.10491,0.25369 0.28008,-2.51384 0.38927,-6.15006 0.10919,-3.63622 0.29681,-7.51077 0.41694,-8.61009 z m 55.0744,-32.057192 c 0.12717,-0.380535 0.29555,-3.874538 0.37416,-7.764452 0.19547,-9.672134 -0.4604,-15.49509 -2.24838,-19.961361 -1.0644,-2.658821 -1.52224,-2.940312 -1.2465,-0.766365 0.58365,4.601473 0.80226,7.08093 1.10905,12.578894 0.67153,12.034376 0.94546,16.074453 1.10774,16.337027 0.28894,0.467504 0.66499,0.291224 0.90393,-0.423743 z"
     id="path12" />
  <path
     style="fill:#000040;stroke-width:0.0768757"
     d="m 116.63096,262.38052 c -3.04952,-1.03236 -11.17498,-12.14078 -17.628433,-24.10008 -0.503137,-0.9324 -2.121577,-4.11685 -3.596542,-7.07657 -4.593263,-9.21703 -6.799898,-13.2151 -9.313305,-16.87423 -3.295283,-4.79742 -7.709693,-12.39847 -8.40705,-14.47586 -0.21735,-0.64747 -0.250763,-1.26184 -0.08571,-1.57577 0.112065,-0.21314 0.60309,-0.70685 0.996705,-1.00215 l 0.221775,-0.16639 h 5.151255 5.151255 l 1.223685,0.3504 c 11.144975,3.19133 27.914625,12.27824 41.612665,22.5485 9.31118,6.98116 16.13901,13.62336 19.96401,19.42121 0.89843,1.36182 2.53304,4.10001 3.69433,6.1885 0.81228,1.4608 2.82536,5.27737 2.82536,5.35655 0,0.0137 -1.32323,0.0232 -2.9405,0.0212 l -2.9405,-0.004 -2.0372,-2.69872 c -3.44394,-4.56223 -7.01976,-9.38135 -8.51658,-11.47778 -2.37028,-3.31976 -3.49972,-4.81001 -5.27282,-6.95725 -5.69118,-6.89211 -12.12552,-12.75799 -19.21083,-17.51361 -6.67689,-4.48149 -13.44153,-7.86678 -22.350327,-11.18497 -5.985623,-2.22942 -9.260258,-3.10141 -11.413748,-3.03934 -0.829155,0.0239 -0.970545,0.0491 -1.36695,0.24378 -0.342982,0.16841 -0.489532,0.29773 -0.653445,0.57656 -0.189967,0.32315 -0.21072,0.42934 -0.205462,1.05134 0.0135,1.60308 1.112685,3.90641 4.182112,8.76384 3.526725,5.58111 6.525878,10.73929 9.766605,16.79736 3.656287,6.83489 7.206665,12.86052 9.444245,16.02859 3.48165,4.9295 9.63321,11.71591 15.45332,17.04811 l 0.56737,0.51982 -0.068,0.93756 -0.068,0.93756 -1.46064,-1.38613 c -5.10828,-4.84772 -8.11406,-7.57433 -9.25584,-8.39616 -0.38027,-0.27371 -0.65789,-0.31124 -0.76884,-0.10392 -0.16773,0.31339 0.1595,1.09882 0.95062,2.28173 0.80993,1.21102 1.62161,2.13865 3.66631,4.19003 1.0624,1.06588 2.03057,2.11443 2.36137,2.55743 1.30065,1.7418 1.42541,2.584 0.32772,2.21239 z m 39.11935,-12.03056 c 0,-0.82033 -1.89362,-4.62854 -3.47063,-6.97972 -3.78015,-5.63586 -15.72243,-18.96987 -16.9899,-18.96987 -0.54958,0 0.34065,1.40462 3.9709,6.26538 5.56841,7.45586 13.78226,17.60851 15.78203,19.50722 0.54702,0.51938 0.7076,0.55954 0.7076,0.17699 z"
     id="path13" />
</svg>
