<?xml version="1.0" encoding="UTF-8" standalone="no"?>
<!DOCTYPE svg PUBLIC "-//W3C//DTD SVG 1.1//EN" 
  "http://www.w3.org/Graphics/SVG/1.1/DTD/svg11.dtd">
<svg
   version="1.0"
   width="500.00003pt"
   height="500.00003pt"
   viewBox="0 0 500.00003 500.00003"
   preserveAspectRatio="xMidYMid"
   id="svg10"
   sodipodi:docname="Logotipo-confeitaria-caseira-bege-marrom-_1_.svg"
   inkscape:export-filename="Logotipo-confeitaria-caseira-bege-marrom-_1_.svg"
   inkscape:export-xdpi="96"
   inkscape:export-ydpi="96"
   inkscape:version="1.3 (0e150ed6c4, 2023-07-21)"
   xmlns:inkscape="http://www.inkscape.org/namespaces/inkscape"
   xmlns:sodipodi="http://sodipodi.sourceforge.net/DTD/sodipodi-0.dtd"
   xmlns="http://www.w3.org/2000/svg"
   xmlns:svg="http://www.w3.org/2000/svg">
  <defs
     id="defs10" />
  <sodipodi:namedview
     id="namedview10"
     pagecolor="#ffffff"
     bordercolor="#000000"
     borderopacity="0.25"
     inkscape:showpageshadow="2"
     inkscape:pageopacity="0.0"
     inkscape:pagecheckerboard="0"
     inkscape:deskcolor="#d1d1d1"
     inkscape:document-units="pt"
     inkscape:zoom="1.2195"
     inkscape:cx="514.14514"
     inkscape:cy="394.01394"
     inkscape:window-width="1920"
     inkscape:window-height="1009"
     inkscape:window-x="-8"
     inkscape:window-y="-8"
     inkscape:window-maximized="1"
     inkscape:current-layer="svg10"
     showgrid="false" />
  <g
     transform="matrix(0.1,0,0,-0.1,0,500)"
     fill="#000000"
     stroke="none"
     id="g10">
    <path
       d="m 2194,4782 c -6,-4 -30,-43 -52,-87 -45,-91 -156,-263 -242,-376 -155,-204 -187,-372 -113,-604 20,-61 43,-104 94,-172 21,-29 39,-58 39,-65 0,-7 16,-82 35,-167 19,-85 33,-156 31,-158 -6,-7 -23,22 -82,137 -53,104 -69,125 -161,215 -145,142 -256,205 -571,321 -118,43 -192,45 -192,5 0,-25 92,-210 135,-271 50,-72 229,-287 269,-323 64,-58 121,-79 246,-88 63,-5 140,-10 170,-10 77,-1 141,-16 174,-42 21,-17 32,-40 46,-102 27,-113 26,-125 -15,-158 -20,-16 -38,-42 -44,-65 -10,-33 -7,-45 22,-107 28,-59 57,-94 184,-221 136,-137 154,-160 197,-245 46,-91 84,-146 161,-237 42,-48 26,-59 -28,-18 -60,44 -200,107 -375,167 -59,20 -105,45 -162,88 -44,33 -127,83 -184,112 -115,56 -142,83 -196,189 -18,36 -46,85 -63,110 -136,202 -637,488 -731,418 -18,-14 -17,-17 14,-74 18,-32 47,-79 65,-104 18,-25 62,-106 98,-181 63,-131 165,-278 202,-293 21,-8 5,21 -30,53 -28,26 -50,61 -39,61 4,0 44,-36 90,-80 46,-44 88,-80 94,-80 6,0 8,-5 5,-10 -4,-7 -20,-2 -43,12 l -37,23 18,-27 c 9,-15 17,-30 17,-33 0,-11 -179,-88 -240,-102 -207,-50 -275,-73 -304,-102 -18,-18 -27,-35 -23,-45 16,-42 217,-165 337,-206 165,-56 307,-50 457,18 48,22 104,43 123,47 102,21 195,59 278,115 48,32 109,65 135,72 44,11 54,10 115,-11 37,-12 109,-43 161,-67 51,-24 101,-44 109,-44 8,0 22,-7 31,-15 9,-9 45,-33 81,-54 35,-21 66,-43 67,-48 2,-5 -20,-8 -54,-5 -32,2 -77,-1 -99,-7 -73,-19 -220,-128 -302,-221 -121,-138 -210,-228 -257,-260 -24,-16 -46,-30 -50,-30 -3,0 -30,-16 -60,-34 -63,-41 -83,-70 -63,-93 18,-22 128,-73 156,-73 13,0 60,-9 105,-21 130,-33 224,-25 336,29 73,35 170,133 170,170 -1,33 102,418 120,450 20,37 26,17 8,-25 -22,-50 -37,-123 -26,-123 5,0 9,9 9,20 0,26 28,98 52,133 23,33 50,34 98,6 50,-30 60,-47 60,-104 0,-197 167,-417 360,-475 52,-16 76,-18 120,-11 60,10 73,6 117,-36 152,-146 337,-288 455,-349 108,-55 151,-61 61,-8 -58,33 -147,99 -228,169 -33,29 -98,80 -144,113 -46,34 -104,81 -129,104 -74,69 -76,80 -78,358 -2,277 -14,375 -70,549 -40,127 -92,220 -208,375 -104,138 -145,174 -184,160 l -27,-9 -6,-305 c -4,-226 -10,-331 -23,-405 -9,-55 -19,-101 -21,-103 -15,-16 -57,21 -180,158 -50,57 -213,285 -225,315 -8,20 -4,63 14,178 35,216 40,287 26,363 -7,36 -10,67 -7,70 3,3 50,-20 104,-51 54,-32 118,-69 142,-83 77,-45 181,-26 181,33 0,31 -29,105 -41,105 -6,0 -5,-9 1,-21 6,-11 10,-28 8,-37 -2,-12 -10,-6 -28,23 -66,108 -174,221 -251,262 l -54,28 32,3 c 20,2 52,-6 84,-22 59,-30 66,-32 48,-9 -21,24 -89,53 -129,53 -72,0 -102,-17 -205,-117 -86,-84 -187,-156 -199,-142 -2,2 -13,47 -25,99 -12,52 -37,158 -56,235 -60,249 -60,255 45,347 84,73 186,240 223,363 9,28 33,106 54,175 34,113 38,136 38,235 0,83 -6,129 -23,188 -27,96 -73,198 -101,226 -23,23 -30,25 -47,13 z m 45,-68 c 44,-56 73,-219 72,-406 -1,-146 -15,-227 -63,-345 -34,-82 -244,-373 -270,-373 -7,0 -9,32 -6,89 2,50 0,88 -4,85 -4,-3 -8,-16 -8,-28 0,-13 -3,-39 -7,-57 -7,-33 -7,-33 -14,-9 -25,87 8,331 57,418 13,24 18,42 12,40 -21,-7 -47,-72 -73,-188 -31,-132 -29,-229 6,-333 11,-32 18,-62 15,-65 -22,-21 -104,128 -133,240 -15,58 -16,80 -6,182 16,154 50,236 182,436 56,85 123,197 149,247 25,51 51,93 58,93 7,0 22,-12 33,-26 z m 109,-316 c 2,-53 1,-113 -4,-135 -7,-30 -10,-9 -15,102 -3,77 -9,154 -13,170 -6,29 -5,28 10,-5 10,-21 19,-72 22,-132 z m -539,-338 c -10,-52 -19,-135 -20,-185 l -1,-90 -16,65 c -12,51 -13,80 -5,135 9,59 50,182 58,173 2,-2 -5,-46 -16,-98 z m -644,-254 c 52,-16 167,-72 378,-186 134,-72 185,-120 257,-241 24,-41 62,-101 85,-134 59,-86 58,-85 41,-85 -8,0 -29,21 -47,46 -58,85 -160,193 -222,238 -70,50 -173,99 -197,93 -12,-3 -11,-6 5,-12 120,-46 266,-146 318,-217 27,-36 18,-44 -17,-17 -15,12 -29,19 -32,16 -3,-3 12,-18 33,-33 53,-39 93,-76 93,-87 0,-13 -121,1 -245,30 -121,28 -210,65 -268,114 -53,43 -149,164 -239,300 -118,178 -125,212 -41,198 26,-4 71,-15 98,-23 z m 990,-63 c -37,-62 -75,-113 -86,-113 -16,0 -9,14 47,93 60,85 83,97 39,20 z m -328,-67 c -6,-13 -27,38 -33,79 -4,22 1,17 16,-19 11,-27 19,-54 17,-60 z m -249,-472 c 59,-14 110,-28 114,-32 14,-14 -137,-1 -182,15 -47,17 -119,62 -120,76 0,4 18,-2 40,-13 22,-11 88,-32 148,-46 z m 940,-125 c 38,-19 81,-51 113,-87 58,-64 149,-197 149,-219 0,-20 -19,-13 -187,69 -174,84 -207,96 -289,104 -35,4 -64,10 -64,15 0,4 15,18 33,31 49,35 132,31 221,-10 38,-18 71,-30 73,-28 10,10 -149,79 -198,86 -30,4 -47,8 -38,9 9,0 19,10 22,21 6,22 38,38 78,39 14,1 53,-13 87,-30 z M 983,2976 c 185,-73 324,-182 437,-345 22,-31 71,-96 109,-146 38,-49 67,-93 65,-97 -3,-4 -28,-7 -56,-6 -48,0 -55,3 -106,51 -30,29 -95,100 -144,160 -49,59 -94,107 -100,107 -13,0 4,-21 139,-176 61,-71 111,-133 111,-139 -1,-5 -28,-20 -61,-33 l -61,-23 -53,37 c -64,44 -176,160 -224,234 -20,30 -58,96 -84,145 -26,50 -70,125 -97,167 -79,122 -54,134 125,64 z m 1362,-80 c 15,-11 20,-35 28,-146 6,-92 5,-149 -2,-189 -31,-154 -47,-222 -53,-224 -9,-3 -48,34 -169,160 -157,163 -200,265 -133,320 30,25 57,38 99,49 23,6 25,3 25,-25 0,-62 138,-431 162,-431 12,0 11,7 -19,102 -17,51 -34,88 -43,91 -18,5 -66,124 -84,212 l -13,64 31,10 c 72,23 145,26 171,7 z m 229,-65 c 55,-27 119,-57 141,-66 35,-15 37,-18 20,-25 -30,-11 -69,4 -160,62 -45,29 -91,58 -101,65 -43,27 5,10 100,-36 z M 1530,2554 c 18,-30 30,-57 27,-60 -6,-6 -200,240 -205,259 -7,26 148,-146 178,-199 z m 1392,-6 c 46,-48 183,-253 245,-368 80,-149 86,-187 87,-555 1,-302 3,-314 39,-395 7,-16 -20,-9 -28,6 -5,11 -26,44 -46,74 -102,154 -130,257 -149,555 -14,216 -20,262 -37,282 -13,17 -14,16 -9,-8 10,-49 25,-215 30,-349 8,-198 22,-260 91,-393 25,-48 41,-87 36,-87 -8,0 -73,80 -104,130 -9,14 -35,72 -57,130 -35,88 -43,119 -48,199 -4,69 -8,88 -14,72 -11,-32 6,-161 32,-236 11,-33 41,-101 66,-152 36,-73 59,-105 111,-153 36,-34 63,-63 61,-66 -9,-8 -124,43 -190,85 -81,51 -148,123 -182,194 -30,64 -48,181 -41,267 16,212 28,457 30,610 1,96 3,181 4,188 2,24 31,12 73,-30 z M 1708,2326 c 69,-32 87,-56 20,-27 -46,19 -108,35 -198,50 -53,9 -52,10 30,8 69,-2 97,-8 148,-31 z m -27,-28 c 68,-25 318,-158 319,-169 0,-4 -26,-14 -57,-23 -114,-31 -265,-95 -346,-144 -153,-94 -260,-121 -400,-103 -179,24 -477,153 -477,206 0,24 72,54 205,85 123,30 187,51 275,92 167,77 212,89 325,84 63,-3 110,-11 156,-28 z m 186,-256 c -31,-34 -184,-102 -229,-102 -18,0 -19,2 -7,16 7,9 22,20 34,25 205,85 231,93 202,61 z M 942,1909 c 59,-26 179,-62 278,-82 14,-3 -4,-3 -40,0 -91,8 -160,27 -254,72 -97,47 -84,54 16,10 z m 1575,-85 c -9,-10 -147,-31 -147,-23 0,13 54,27 104,28 27,1 47,-2 43,-5 z m 280,-73 c -17,-156 65,-334 193,-421 64,-44 215,-120 238,-120 7,0 10,-5 6,-11 -11,-19 -94,0 -167,38 -131,69 -243,213 -272,349 -15,71 -20,205 -8,217 14,14 16,5 10,-52 z m -240,32 c -17,-53 -77,-278 -91,-338 -35,-152 -92,-229 -203,-276 -75,-31 -84,-33 -213,-33 -143,-1 -218,15 -297,64 -56,34 -49,43 97,129 59,35 122,92 295,270 61,62 129,124 152,138 46,27 143,56 143,43 0,-4 -20,-20 -45,-34 -25,-15 -45,-34 -45,-42 0,-10 12,-5 41,18 33,26 42,30 49,18 8,-12 14,-10 37,11 50,47 89,62 80,32 z m 732,-130 c -1,-49 -4,-113 -9,-143 -6,-43 -7,-24 -9,88 0,89 3,142 9,142 6,0 10,-35 9,-87 z"
       id="path1"
       style="fill:#ffd42a" />
    <path
       d="m 1837,3973 c -22,-35 -12,-163 13,-163 5,0 3,19 -3,43 -8,25 -10,58 -6,82 7,40 5,54 -4,38 z"
       id="path2"
       style="fill:#ffd42a" />
    <path
       d="m 1981,3856 c -13,-54 -14,-78 -2,-56 10,18 25,100 18,100 -3,0 -10,-20 -16,-44 z"
       id="path3"
       style="fill:#ffd42a" />
    <path
       d="m 1488,3343 c 29,-14 56,-23 59,-20 6,6 -84,47 -101,46 -6,0 13,-12 42,-26 z"
       id="path4"
       style="fill:#ffd42a" />
    <path
       d="m 1198,2564 c -16,-15 23,-86 79,-144 64,-67 90,-74 29,-8 -48,52 -74,90 -81,121 -7,28 -18,40 -27,31 z"
       id="path5"
       style="fill:#ffd42a" />
    <path
       d="m 2060,2755 c 0,-34 56,-138 90,-170 36,-33 35,-29 -16,48 -19,28 -39,67 -45,87 -14,43 -29,61 -29,35 z"
       id="path6"
       style="fill:#ffd42a" />
    <path
       d="m 2885,1684 c 4,-21 11,-64 15,-95 8,-55 40,-131 60,-144 15,-9 12,4 -9,39 -18,29 -51,162 -51,205 0,11 -5,23 -11,27 -9,5 -10,-4 -4,-32 z"
       id="path7"
       style="fill:#ffd42a" />
    <path
       d="m 1400,2211 c -104,-30 -140,-44 -140,-54 0,-5 8,-6 18,-2 161,68 353,79 482,27 8,-3 -23,-11 -70,-18 l -85,-13 87,5 c 49,3 114,0 147,-7 104,-20 90,-3 -29,36 -100,33 -130,38 -230,41 -90,3 -129,-1 -180,-15 z"
       id="path8"
       style="fill:#ffd42a" />
    <path
       d="m 2183,1542 c -23,-15 -43,-30 -43,-35 0,-11 74,28 89,47 19,23 2,18 -46,-12 z"
       id="path9"
       style="fill:#ffd42a" />
    <path
       d="m 2683,3013 c 30,-38 60,-79 66,-91 7,-13 15,-21 18,-18 12,12 -107,176 -128,176 -6,0 14,-30 44,-67 z"
       id="path10"
       style="fill:#ffd42a" />
  </g>
  <path
     style="fill:#ffd42a;stroke-width:0.75"
     d="m 204.88049,390.87835 c -3.59971,-0.3123 -6.45898,-0.82787 -11.41546,-2.05835 -3.50448,-0.87001 -7.22892,-1.62552 -8.80623,-1.78636 -2.32762,-0.23734 -3.77355,-0.66428 -7.19664,-2.12493 -4.12026,-1.75813 -7.96564,-3.92856 -9.05594,-5.1114 -1.48197,-1.60774 -1.05438,-3.38379 1.37163,-5.69718 2.38448,-2.2738 7.02667,-5.26241 11.46429,-7.38062 1.02416,-0.48886 4.18164,-2.54375 5.6388,-3.66974 2.11343,-1.63311 4.15136,-3.51029 8.1152,-7.4751 5.025,-5.02622 8.06496,-8.28677 14.55499,-15.61112 3.23726,-3.65343 5.98628,-6.46832 8.53885,-8.74347 6.65898,-5.93523 13.51186,-10.80276 19.07998,-13.55233 4.00431,-1.97735 6.48918,-2.46355 12.23086,-2.39315 5.2833,0.0648 5.68996,0.0631 6.33005,-0.0266 0.34227,-0.048 0.7312,-0.1754 0.86427,-0.28315 0.23145,-0.18742 0.23408,-0.20797 0.0604,-0.47303 -0.40376,-0.61621 -3.73061,-2.91864 -7.25472,-5.02079 -2.59085,-1.54547 -5.98055,-3.80664 -7.17544,-4.78653 -1.00246,-0.82209 -2.5273,-1.68529 -2.97706,-1.68529 -1.06029,0 -4.78105,-1.47122 -11.75627,-4.64855 -9.37296,-4.26954 -16.01382,-6.87154 -20.25394,-7.93584 -0.99711,-0.25029 -1.38508,-0.29132 -2.73813,-0.28963 -1.37388,0.001 -1.76831,0.0459 -3.06982,0.34367 -1.77632,0.40643 -2.89262,0.83598 -5.31561,2.04539 -3.16992,1.58225 -5.69214,3.0513 -9.60753,5.59586 -5.80229,3.77083 -10.49865,6.10822 -16.85141,8.38702 -2.53188,0.90821 -6.87651,2.13169 -9.78468,2.75544 -2.8452,0.61024 -6.97152,2.12495 -12.67756,4.65373 -3.19835,1.41743 -4.76181,2.03215 -7.38105,2.90206 -5.6062,1.86195 -10.55518,2.73699 -16.38935,2.89783 l -2.52772,0.0697 v -1.10418 -1.10417 h 0.81539 c 0.44846,0 0.81539,-0.0456 0.81539,-0.1013 0,-0.0557 -0.36693,-0.18294 -0.81539,-0.28272 l -0.81539,-0.1814 v -1.36285 -1.36285 l 0.46918,0.0643 c 2.54887,0.34936 8.9982,0.36392 11.5986,0.0262 8.49278,-1.10302 15.94114,-3.9817 26.03814,-10.06335 9.05332,-5.45301 22.17337,-11.01924 34.30913,-14.55579 4.86363,-1.41733 6.89597,-2.25534 6.70113,-2.7631 -0.2927,-0.76275 -11.51789,-7.04435 -21.60371,-12.08939 -8.41879,-4.21117 -11.72256,-5.51848 -16.33522,-6.46387 -5.13134,-1.0517 -13.75495,-1.48196 -18.53144,-0.92458 -5.53098,0.64541 -10.6387,2.35161 -20.61788,6.88723 -1.06717,0.48504 -1.96002,0.88189 -1.98412,0.88189 -0.0241,0 -0.0438,-0.60915 -0.0438,-1.35367 v -1.35366 l 0.73386,-0.40123 c 1.25648,-0.68696 2.32461,-1.36849 2.38293,-1.52046 0.0307,-0.0801 0.002,-0.30841 -0.0634,-0.50734 -0.18126,-0.54921 -1.47127,-2.82402 -2.31765,-4.08695 -0.41421,-0.61807 -0.73695,-1.1398 -0.71721,-1.15939 0.0197,-0.0196 0.74531,0.40698 1.61234,0.94797 3.01222,1.87949 4.26665,2.47672 5.2021,2.47672 0.58671,0 0.84001,-0.15883 0.94959,-0.59542 0.0928,-0.36965 -0.11923,-0.68037 -0.52459,-0.76886 -0.41167,-0.0899 -1.0081,-0.47865 -2.1481,-1.40021 -0.92444,-0.7473 -3.27579,-2.79792 -4.38028,-3.82006 l -0.73821,-0.68316 0.0315,-0.94255 0.0315,-0.94254 0.76104,0.67561 c 1.5747,1.39797 3.61373,2.95781 6.49002,4.96481 1.63268,1.13925 3.07326,2.13495 3.20129,2.21267 0.20692,0.12562 0.59337,0.005 3.47899,-1.08668 5.76555,-2.18102 8.95396,-3.76656 8.95396,-4.45263 0,-0.40757 -2.365,-3.52026 -6.03787,-7.94673 l -2.02971,-2.44617 0.95541,-0.0317 0.95543,-0.0317 0.97633,1.06454 c 1.47651,1.60987 5.86748,5.97321 6.9689,6.92502 1.39956,1.20946 2.63978,1.99999 3.72406,2.37372 0.85395,0.29435 1.11597,0.32866 3.27961,0.42947 3.25752,0.15179 6.32796,-0.094 6.77639,-0.54241 0.32466,-0.32466 -1.85088,-3.7121 -5.47761,-8.52897 l -1.28924,-1.71231 2.91049,0.001 2.91049,0.001 0.58917,1.1127 c 3.58826,6.77658 6.39166,9.9444 11.59968,13.10751 1.56347,0.94957 4.15993,2.34793 6.9532,3.74474 4.12766,2.06407 10.27011,5.66597 14.7782,8.66585 1.89876,1.26352 2.60625,1.76096 4.54435,3.1952 1.72854,1.27914 4.37771,3.01689 6.16445,4.04361 2.9482,1.69415 5.5159,2.80627 10.49136,4.54401 11.40704,3.98404 20.41155,7.6743 27.77763,11.38394 4.14718,2.08855 5.71091,3.01806 9.40418,5.58999 1.26756,0.88271 2.68382,1.62104 3.31848,1.73001 0.49429,0.0849 0.86812,-0.15984 0.8648,-0.56614 -0.006,-0.74755 -0.71887,-1.81656 -3.19588,-4.79317 -7.28957,-8.75973 -11.14346,-14.46063 -15.03765,-22.24445 -1.74098,-3.47992 -3.4968,-6.52549 -4.91625,-8.52748 -2.3774,-3.3531 -4.97635,-6.22014 -13.55071,-14.94854 l -5.88112,-5.98676 1.56898,-0.0302 1.56897,-0.0301 1.96599,2.04144 c 3.1599,3.28116 10.59463,10.68277 11.65936,11.60742 1.17164,1.01748 2.1693,1.6864 2.51517,1.6864 0.18287,0 0.31059,-0.11339 0.462,-0.41019 0.46863,-0.91857 1.46825,-4.89915 2.77737,-11.05963 0.3939,-1.85366 0.74113,-3.48036 0.77164,-3.6149 0.0534,-0.23559 0.0998,-0.24462 1.25792,-0.24462 h 1.20247 l -0.062,0.29898 c -0.0937,0.45175 -0.87261,5.40186 -1.30434,8.28981 -0.82172,5.49672 -1.14634,8.5614 -1.14929,10.85041 -0.003,2.25225 0.13514,2.81799 1.07267,4.39608 3.28146,5.52345 15.83689,23.02578 20.81634,29.01807 0.61377,0.73863 1.89354,2.19912 2.8439,3.24553 9.39517,10.34469 13.40107,14.02472 15.26662,14.02472 0.97347,0 1.03562,-0.12694 1.74982,-3.57402 2.65449,-12.81181 3.10734,-19.48194 3.74682,-55.18847 0.0942,-5.26198 0.19844,-9.97087 0.23157,-10.46418 l 0.0602,-0.89692 h 1.60872 1.60872 l -0.0442,2.52771 c -0.0243,1.39023 -0.0931,5.31634 -0.1529,8.72468 -0.27857,15.87655 -1.12907,33.56408 -2.70795,56.31631 -0.4317,6.22109 -0.4669,7.25682 -0.33612,9.8934 0.30582,6.16592 1.29456,12.00746 2.83259,16.73495 0.95257,2.92796 1.99621,5.03835 3.92814,7.94323 4.31818,6.49292 10.50377,12.09444 18.30313,16.5749 2.23326,1.28292 7.71259,4.00185 10.17415,5.04855 3.38937,1.44125 5.9972,2.20314 6.23333,1.82109 0.20323,-0.32886 -2.23341,-3.00625 -5.92396,-6.50924 -5.5943,-5.31001 -7.39418,-7.77229 -11.06742,-15.14046 -3.24757,-6.51433 -6.16532,-13.35468 -7.29521,-17.10283 -1.4858,-4.92876 -2.63951,-11.50413 -2.95499,-16.84138 -0.17894,-3.02726 0.0691,-5.46634 0.55587,-5.46634 0.36269,0 0.62322,1.90213 0.9826,7.17395 0.59471,8.72369 1.11121,10.8553 5.08472,20.98421 2.83698,7.23179 4.67183,11.20319 6.32524,13.69053 2.40003,3.61054 6.37566,8.68194 8.42201,10.74334 0.87589,0.88233 1.12407,1.03971 1.22496,0.7768 0.20905,-0.54477 -0.88632,-3.14041 -3.78275,-8.96366 -3.48123,-6.99905 -4.78755,-10.0826 -5.90036,-13.92782 -1.81998,-6.28879 -2.50242,-12.1038 -3.11108,-26.50911 -0.49695,-11.7618 -1.7931,-26.90301 -2.78274,-32.50691 -0.38955,-2.20586 -0.45598,-2.71922 -0.35958,-2.77879 0.128,-0.0791 1.36457,1.55833 1.68798,2.2352 0.15714,0.32887 0.42465,1.16057 0.59447,1.84822 0.78751,3.18904 1.29241,8.46478 2.43459,25.44018 1.27804,18.99456 2.67246,28.3322 5.48751,36.74694 2.17186,6.49213 4.51927,11.06833 9.89891,19.29758 1.7006,2.60141 3.28849,5.15632 4.17438,6.71655 0.19504,0.34351 0.50129,0.65654 0.90374,0.92375 0.53525,0.35539 0.6887,0.40423 1.27101,0.40453 l 0.66228,3.6e-4 0.0331,-0.34146 c 0.0226,-0.23323 -0.20769,-0.91018 -0.72666,-2.13554 -1.73852,-4.10478 -2.28803,-6.37945 -2.67151,-11.05848 -0.30835,-3.76237 -0.38585,-7.10931 -0.48838,-21.09144 -0.19489,-26.57747 -0.28838,-30.51045 -0.87833,-36.9458 -0.8318,-9.07327 -2.4191,-14.07586 -7.47429,-23.55619 -4.11805,-7.72286 -12.46056,-20.90449 -18.90587,-29.8723 -0.67758,-0.94278 -1.23198,-1.73779 -1.23198,-1.76668 0,-0.0289 0.62433,-0.0525 1.38741,-0.0525 h 1.38741 l 1.59417,2.09283 c 5.81772,7.63755 10.51881,14.53097 13.73493,20.14015 3.48138,6.07183 5.87469,11.57972 8.24355,18.97142 4.14627,12.93796 5.71372,21.26183 6.42842,34.13769 0.29525,5.31936 0.3771,8.26311 0.4897,17.61244 0.13868,11.51517 0.303,19.68535 0.43841,21.79811 0.50434,7.86957 1.5441,11.0343 4.72401,14.37864 l 1.0369,1.09053 v 2.02292 c 0,1.11262 -0.0294,2.02293 -0.0653,2.02293 -0.0359,0 -0.4097,-0.31881 -0.83055,-0.70846 -1.76075,-1.63018 -3.24278,-2.51315 -4.7613,-2.83671 -1.08234,-0.23062 -3.06179,-0.15034 -5.46274,0.22156 -3.72864,0.57754 -5.5802,0.57964 -8.39629,0.01 -1.33151,-0.26957 -3.96122,-1.01652 -5.56399,-1.5804 -15.67016,-5.51302 -29.63725,-21.65124 -33.40097,-38.59302 -0.61947,-2.78845 -0.98662,-6.20486 -0.98759,-9.18958 -7e-4,-2.18466 -0.28129,-3.6887 -0.94261,-5.05257 -0.79654,-1.64276 -3.19039,-3.61013 -6.34193,-5.21207 -1.86302,-0.94698 -2.84231,-1.23498 -4.24003,-1.24694 -1.07004,-0.009 -1.18777,0.0122 -1.87949,0.33978 -1.42066,0.67292 -2.52645,2.01278 -3.98053,4.82318 -1.91898,3.70889 -3.49301,8.20442 -3.65953,10.45188 -0.0811,1.09426 -0.31335,1.87878 -0.61978,2.0934 -0.39436,0.27623 -0.51515,0.0379 -0.51476,-1.0158 7.5e-4,-2.22108 1.12095,-6.62544 2.64465,-10.39887 1.3672,-3.38585 1.71046,-5.16178 0.99768,-5.16178 -0.56255,0 -1.57116,1.55737 -2.28407,3.52682 -2.78871,7.70396 -10.96884,38.814 -11.31545,43.03409 -0.0751,0.91389 -0.27836,1.62661 -0.71058,2.49108 -1.4491,2.89829 -5.93608,7.67085 -10.53274,11.20308 -4.033,3.0991 -9.57207,5.71668 -15.22813,7.19633 -3.52757,0.92281 -6.39623,1.26683 -10.34486,1.24057 -1.51153,-0.01 -2.94393,-0.0352 -3.18312,-0.056 z m 5.87081,-4.49193 c 4.63336,-0.10674 6.33067,-0.25125 8.39871,-0.71508 2.20056,-0.49353 6.01974,-1.92229 9.10501,-3.40621 8.04778,-3.87067 12.99895,-9.74762 16.29399,-19.34071 0.86394,-2.51524 1.13306,-3.48193 2.51806,-9.04487 2.29981,-9.23738 6.19305,-23.74685 8.06369,-30.05208 0.7638,-2.57451 0.86012,-3.19549 0.54454,-3.51091 -0.26298,-0.26285 -1.04569,-0.23558 -1.8248,0.0636 -1.28555,0.49361 -3.60151,2.11513 -5.53686,3.87662 -2.4,2.18441 -3.07434,2.60173 -3.68979,2.28347 -0.18304,-0.0947 -0.33281,-0.21163 -0.33281,-0.25994 0,-0.0483 -0.18818,-0.29167 -0.41818,-0.5408 -0.50139,-0.54313 -0.78546,-0.57376 -1.63844,-0.1767 -0.67119,0.31243 -1.52311,0.89819 -3.16188,2.17403 -2.25544,1.75595 -3.5404,2.48944 -3.87484,2.21188 -0.22256,-0.18469 -0.18025,-0.43767 0.1625,-0.97163 0.65765,-1.02454 2.32086,-2.38584 4.63645,-3.79483 2.53521,-1.54262 4.13805,-2.81417 4.05975,-3.22063 -0.13483,-0.69976 -3.22737,-0.16946 -7.47638,1.28204 -3.60928,1.23296 -6.29869,2.50214 -8.0002,3.77544 -3.33941,2.499 -7.17671,6.12667 -18.53519,17.52259 -12.09035,12.13022 -14.10632,14.06787 -18.26949,17.55978 -3.0943,2.59541 -4.42733,3.5122 -9.61687,6.61399 -8.28186,4.95007 -10.42837,6.72122 -10.12239,8.35224 0.16812,0.89615 1.10847,1.71587 3.8167,3.32702 2.83772,1.68821 5.04377,2.70562 7.93647,3.66026 6.09642,2.0119 13.40414,2.64381 26.96225,2.33146 z m 112.22318,-5.81165 c 0.19338,-0.11695 0.43272,-0.38365 0.53189,-0.59263 0.15853,-0.33406 0.16157,-0.41335 0.0252,-0.65631 -0.0853,-0.152 -0.25129,-0.29013 -0.36882,-0.30697 -2.49588,-0.35759 -9.5847,-3.61887 -17.49998,-8.05105 -7.60629,-4.25917 -11.30169,-7.20019 -15.41407,-12.26749 -5.71171,-7.03799 -9.56754,-16.44343 -10.53378,-25.69477 -0.217,-2.07773 -0.16537,-6.2389 0.1119,-9.01972 0.36689,-3.67947 0.30143,-4.89628 -0.2634,-4.89628 -0.42563,0 -1.00549,0.60273 -1.1898,1.23672 -0.78495,2.70013 -0.30871,13.62253 0.87292,20.02032 1.17377,6.35527 4.08132,12.87585 8.4949,19.051 2.15243,3.01151 3.62863,4.73102 6.60309,7.69139 3.0732,3.05865 5.6202,5.14523 8.73192,7.15341 4.76752,3.0768 10.43506,5.41766 15.4695,6.38934 1.45763,0.28133 3.92164,0.24965 4.42852,-0.057 z m 4.74936,-29.60345 c 0.25523,-0.80722 0.66422,-4.38143 0.87392,-7.63749 0.62998,-9.78184 0.3917,-17.07361 -0.56764,-17.37148 -0.36216,-0.11245 -0.60023,1.23389 -0.80327,4.54266 -0.25122,4.09398 -0.10211,19.71996 0.19559,20.49572 0.0833,0.21713 0.2279,0.20301 0.3014,-0.0294 z M 240.8664,319.9012 c 4.23534,-0.49395 9.07834,-1.42891 10.46418,-2.02014 0.62784,-0.26786 0.59342,-0.47556 -0.10872,-0.65607 -0.84568,-0.21742 -5.26804,-0.18154 -7.0939,0.0575 -3.78509,0.49565 -6.63712,1.43942 -7.08504,2.34453 -0.0723,0.14615 -0.10713,0.30515 -0.0773,0.35333 0.089,0.14406 2.38654,0.0974 3.90083,-0.0792 z m -75.27618,-14.0777 c 4.71939,-0.96175 13.98385,-4.96159 18.76539,-8.10177 1.41061,-0.9264 2.82267,-2.2241 3.1963,-2.93746 0.25731,-0.49125 0.25773,-0.49738 0.0447,-0.65526 -0.54649,-0.405 -3.18175,0.43908 -10.4235,3.33869 -4.54706,1.82066 -10.56164,4.30687 -11.2139,4.63543 -1.37139,0.69081 -2.90043,2.019 -3.4978,3.03832 l -0.29214,0.4985 0.24905,0.20167 c 0.34368,0.2783 1.75702,0.27022 3.17193,-0.0181 z m 11.40391,-34.61821 c 0,-0.93861 -6.76118,-4.45741 -10.95607,-5.70201 -2.32733,-0.69051 -4.82627,-1.0316 -8.83074,-1.20535 -3.19361,-0.13858 -7.79399,-0.14523 -7.8767,-0.0114 -0.11844,0.19164 0.0135,0.21992 6.1372,1.31613 7.77845,1.39241 12.91629,2.76319 17.73174,4.73085 1.77439,0.72504 2.98534,1.11632 3.49559,1.1295 0.24663,0.006 0.29898,-0.0388 0.29898,-0.25772 z"
     id="path11" />
  <path
     style="fill:#ffd42a;stroke-width:0.75"
     d="m 229.45718,258.07195 c -2.19563,-3.11006 -7.27325,-15.5049 -11.46789,-27.99396 -2.35909,-7.02393 -3.54722,-11.50679 -3.88869,-14.67209 l -0.23221,-2.15252 -1.09788,-0.0921 c -2.77212,-0.23266 -10.03656,3.37296 -12.43049,6.16973 -1.12882,1.31877 -2.00392,3.63323 -1.996,5.27896 0.0255,5.29936 4.90452,13.42796 13.81107,23.00984 1.53426,1.65059 2.78956,3.06894 2.78956,3.1519 0,0.083 -0.61578,0.15084 -1.3684,0.15084 -1.36462,0 -1.37936,-0.0118 -5.35608,-4.30772 -6.31398,-6.82071 -8.87025,-10.63148 -11.43063,-17.04034 -0.82924,-2.07567 -0.95562,-2.73616 -0.85309,-4.45879 0.18287,-3.07266 1.27567,-5.11495 4.52041,-8.44803 1.49878,-1.53958 2.8809,-3.10149 3.07137,-3.47091 0.84219,-1.63344 0.0969,-7.3693 -1.96382,-15.11413 -1.52009,-5.71292 -2.93315,-7.69301 -6.74059,-9.44537 -3.36171,-1.54724 -7.38756,-2.27583 -14.45822,-2.61662 -8.89653,-0.4288 -19.17086,-1.18088 -23.07778,-1.6893 -7.13319,-0.92826 -12.27364,-2.92591 -16.75449,-6.51103 -5.54487,-4.43645 -25.98023,-28.97467 -30.85014,-37.04402 -3.70202,-6.13417 -9.48763,-17.7748 -11.027852,-22.18801 l -0.703493,-2.01571 0.63885,-0.86006 c 2.084795,-2.80671 8.742595,-1.799 22.719265,3.43875 22.26533,8.34393 33.54513,14.11562 43.97294,22.50021 4.06059,3.26496 14.55538,13.49117 17.15158,16.71265 2.76249,3.42782 4.13512,5.70457 8.58522,14.24018 4.73758,9.08703 6.45618,12.01436 7.13355,12.15075 0.93407,0.1881 0.7546,-0.88264 -3.36673,-20.08711 -1.45181,-6.76507 -2.70088,-12.60741 -2.77571,-12.98298 -0.0748,-0.37558 -1.19558,-2.24366 -2.49051,-4.1513 -5.79357,-8.53477 -6.58353,-9.77574 -7.88446,-12.38602 -3.90726,-7.8398 -6.469,-19.03038 -6.47618,-28.29029 -0.005,-5.45832 0.34041,-8.208348 1.65708,-13.222623 2.18833,-8.333895 5.96325,-15.435225 13.97139,-26.282851 9.56065,-12.9506 17.86311,-25.903433 23.76133,-37.070496 4.10558,-7.773072 5.33843,-9.356015 6.96818,-8.946972 2.91931,0.732701 8.26073,10.670533 11.67201,21.716062 2.59575,8.404894 3.04312,11.578663 3.05581,21.678967 0.0134,10.643758 -0.24779,11.984105 -5.92027,30.38456 -4.63224,15.026103 -5.4381,17.164083 -9.09229,24.122553 -5.49684,10.46733 -10.19725,16.60876 -19.23824,25.13619 -7.20525,6.79596 -7.29374,8.56754 -1.61268,32.28782 1.09366,4.56642 3.29957,13.83672 4.902,20.60068 1.60243,6.76395 3.10282,12.4874 3.3342,12.71877 0.61226,0.61227 1.96704,0.0832 5.26353,-2.05549 3.60671,-2.33996 8.04288,-5.90482 12.52694,-10.06654 10.43045,-9.68062 12.58383,-11.38627 16.1179,-12.76659 1.48401,-0.57961 2.40625,-0.70093 5.47468,-0.72015 4.14758,-0.0259 6.13885,0.47483 10.14668,2.55187 2.04252,1.05853 4.70034,3.28321 4.34589,3.63766 -0.0908,0.0908 -1.9395,-0.67551 -4.10821,-1.7029 -5.61016,-2.65771 -8.23413,-3.2219 -11.92187,-2.56339 l -1.23002,0.21964 3.38254,1.80538 c 4.40413,2.35064 6.31452,3.66444 10.17635,6.99847 5.43386,4.69118 10.60616,10.73827 16.05974,18.77588 1.63719,2.41292 3.18426,4.38712 3.43795,4.38712 0.73616,0 0.74454,-2.26237 0.0152,-4.11263 -0.34664,-0.87942 -0.63025,-1.74914 -0.63025,-1.93271 0,-0.67743 0.98659,0.50127 1.82731,2.18316 1.69235,3.38554 2.6382,7.30429 2.16295,8.96136 -0.91522,3.19118 -5.77108,5.13767 -10.84783,4.34841 -3.52629,-0.54822 -5.02528,-1.24482 -14.0859,-6.54579 -9.50046,-5.55831 -16.92236,-9.40541 -17.4801,-9.0607 -0.41492,0.25643 -0.3492,1.0085 0.65844,7.53587 0.54119,3.50571 0.61403,5.02235 0.4726,9.8401 -0.1504,5.12335 -0.98368,12.75179 -2.1085,19.30261 -0.32892,1.91563 -0.3334,1.9219 -1.37469,1.9219 -0.57458,0 -1.04123,-0.10378 -1.03701,-0.23063 0.005,-0.12684 0.3621,-1.75277 0.79528,-3.61316 0.69216,-2.97276 0.80661,-4.27659 0.94473,-10.76261 0.15722,-7.38352 -0.35942,-16.88998 -1.17816,-21.67897 -0.75952,-4.44258 -1.8538,-5.29607 -7.0271,-5.48079 -3.79328,-0.13546 -7.61336,0.43998 -12.17969,1.83471 l -3.10836,0.9494 1.04986,5.10016 c 1.89731,9.21705 6.48528,21.33384 8.60348,22.72175 1.3701,0.89773 3.82623,6.81669 6.0808,14.65395 1.1597,4.03133 0.993,5.60925 -0.3862,3.65563 z m 44.673,-32.16648 c 0.31349,-0.22923 0.49178,-0.62058 0.3962,-0.86966 -0.0956,-0.24909 -1.6748,-1.12256 -3.50937,-1.94106 -1.83457,-0.81849 -6.89089,-3.18454 -11.23627,-5.25788 -7.54872,-3.60177 -12.99521,-5.96725 -13.73953,-5.96725 -1.0017,0 0.28409,0.97439 6.80319,5.15555 12.24728,7.85505 15.09148,9.26757 18.69892,9.28651 1.22748,0.007 2.23996,-0.15255 2.58686,-0.40621 z m 3.80122,-2.55551 c 0.60969,-1.08946 -0.56364,-3.39889 -5.22549,-10.28522 -5.97127,-8.82056 -11.41719,-14.98063 -16.23517,-18.36416 -2.48866,-1.74772 -6.91567,-3.98157 -9.8488,-4.96968 -4.44499,-1.4974 -9.89316,-0.19746 -11.2265,2.67866 -0.64598,1.39342 -1.64619,2.54739 -2.20796,2.54739 -0.22421,0 -0.40765,0.12266 -0.40765,0.27259 0,0.14992 0.65729,0.36431 1.46064,0.47642 2.99131,0.41743 6.81203,1.51525 10.99323,3.15874 4.69457,1.84527 11.24324,5.05463 10.69014,5.239 -0.19027,0.0634 -1.70476,-0.46168 -3.36553,-1.16689 -9.15001,-3.88536 -12.48513,-4.73961 -17.62596,-4.5147 -3.94559,0.17263 -5.90181,0.85106 -8.71403,3.02206 -2.01549,1.55594 -2.59203,2.31741 -2.11546,2.79399 0.36249,0.36249 3.93795,1.06343 7.60071,1.49006 6.93516,0.8078 11.11707,2.38591 28.87456,10.89629 15.46928,7.41375 16.70095,7.89109 17.35327,6.72545 z m -84.20447,-39.74249 c 0,-0.32278 -2.3178,-4.09398 -5.15067,-8.38043 -2.83287,-4.28646 -6.5249,-10.06554 -8.20451,-12.84239 -6.71741,-11.10572 -11.37366,-15.97084 -20.52676,-21.44752 -8.42984,-5.04393 -33.85554,-18.07056 -39.84021,-20.4118 -5.62008,-2.1986 -14.62305,-4.17761 -17.14392,-3.76853 -1.19924,0.19461 -1.99986,1.05716 -1.99986,2.15454 0,1.96194 2.314,6.49479 7.18965,14.08374 9.81963,15.28421 20.79474,29.36877 26.5113,34.02244 5.92224,4.8211 13.34448,8.03696 25.43762,11.02142 7.14709,1.76385 15.30499,3.21055 20.75192,3.68012 4.28683,0.36955 5.28787,0.24212 5.28787,-0.67315 0,-0.87072 -3.37841,-4.09975 -8.22584,-7.86211 -3.5749,-2.7747 -4.58395,-3.74961 -3.88089,-3.74961 0.10638,0 1.20867,0.69189 2.44956,1.53752 2.46525,1.68 3.50711,1.94281 3.50711,0.88468 0,-1.66538 -5.52889,-7.67493 -10.61778,-11.54088 -6.09469,-4.63002 -14.44656,-9.54928 -20.51225,-12.08174 -3.03983,-1.26915 -3.79965,-1.86231 -2.38553,-1.86231 1.28992,0 5.72954,1.6685 9.29079,3.49166 8.12278,4.1584 12.0034,7.04532 18.90206,14.06186 4.87086,4.95409 7.77876,8.3273 11.77402,13.65805 3.42824,4.57419 5.46518,6.61131 6.6107,6.61131 0.55823,0 0.77562,-0.16449 0.77562,-0.58687 z m -24.77914,-0.21479 c 0.73133,-0.28064 0.58718,-0.71237 -0.35923,-1.07586 -0.4651,-0.17864 -4.51261,-1.27065 -8.99446,-2.42668 -9.18231,-2.36846 -13.22466,-3.60755 -16.5944,-5.08664 -1.27438,-0.55936 -2.71128,-1.11528 -3.19312,-1.23537 -0.74452,-0.18556 -0.85967,-0.13317 -0.76683,0.34885 0.27025,1.40334 7.35409,5.91649 11.55198,7.35983 4.16373,1.4316 16.44895,2.8477 18.35606,2.11587 z m 26.79631,-38.69703 c -0.11286,-0.75257 -0.75112,-3.11819 -1.41837,-5.25693 -1.99157,-6.38364 -2.48077,-9.18422 -2.65641,-15.20748 -0.18426,-6.31836 0.26931,-10.5011 1.93402,-17.83518 2.32792,-10.255938 4.6808,-16.884122 6.61485,-18.634428 0.96129,-0.869947 0.73147,0.09244 -0.78815,3.300383 -3.36062,7.09434 -5.51444,16.880745 -6.34122,28.812955 -0.49307,7.11594 0.23017,14.31664 1.47979,14.73318 0.48326,0.16109 1.30526,-4.26501 1.91626,-10.31818 0.005,-0.0523 0.1577,-0.004 0.33872,0.10839 0.22354,0.13816 0.29952,2.63476 0.23684,7.7826 -0.0508,4.16855 0.018,7.89053 0.15285,8.27107 0.13483,0.38053 0.46113,0.69188 0.72511,0.69188 1.55592,0 11.08423,-12.09766 19.61774,-24.90775 4.76774,-7.1571 6.87237,-10.93576 8.47796,-15.2214 4.15325,-11.08583 5.48183,-20.57066 5.10419,-36.439114 -0.35699,-15.000637 -2.21626,-26.374822 -5.41035,-33.098115 -1.84884,-3.891684 -4.48604,-6.355138 -5.71312,-5.336749 -0.65922,0.547103 -2.73226,4.021402 -5.59436,9.375824 -3.26814,6.114069 -7.91591,13.830323 -14.53974,24.13899 -9.35455,14.558469 -12.65004,20.657606 -15.05008,27.853946 -2.30213,6.90273 -3.78438,16.701768 -3.81043,25.190328 -0.016,5.2122 0.44627,7.67282 2.62848,13.9914 2.37604,6.87981 7.76423,17.00348 9.97578,18.74308 0.44023,0.34628 1.14341,0.62961 1.56263,0.62961 0.72781,0 0.75294,-0.0617 0.55701,-1.36831 z m 13.19377,-9.16367 c 2.7722,-3.1495 8.17877,-11.81901 8.91722,-14.29889 0.36588,-1.2287 -0.6066,-0.78992 -2.26081,1.02004 -0.86053,0.94155 -2.84628,3.52759 -4.41278,5.74674 -5.2215,7.39696 -6.06496,9.1465 -4.40953,9.1465 0.51318,0 1.18696,-0.50221 2.1659,-1.61439 z m -26.08639,-3.14762 c 0.24604,-0.64118 -0.9676,-4.48941 -2.28037,-7.23061 -0.99083,-2.06895 -1.1168,-2.21589 -1.22423,-1.4279 -0.1773,1.30044 0.73673,5.03006 1.7662,7.20689 0.89844,1.89974 1.40434,2.32218 1.7384,1.45162 z m -3.44904,-25.9883 c 0.64617,-5.91309 1.21098,-9.86041 2.02398,-14.145138 0.49742,-2.62146 0.9968,-5.561962 1.10973,-6.534442 0.46132,-3.97221 -1.289,-1.002315 -3.50977,5.955285 -2.34599,7.34994 -3.29592,13.572765 -2.811,18.414505 0.22765,2.27314 1.83652,9.75366 2.38085,11.06994 0.10491,0.25369 0.28008,-2.51384 0.38927,-6.15006 0.10919,-3.63622 0.29681,-7.51077 0.41694,-8.61009 z m 55.0744,-32.057192 c 0.12717,-0.380535 0.29555,-3.874538 0.37416,-7.764452 0.19547,-9.672134 -0.4604,-15.49509 -2.24838,-19.961361 -1.0644,-2.658821 -1.52224,-2.940312 -1.2465,-0.766365 0.58365,4.601473 0.80226,7.08093 1.10905,12.578894 0.67153,12.034376 0.94546,16.074453 1.10774,16.337027 0.28894,0.467504 0.66499,0.291224 0.90393,-0.423743 z"
     id="path12" />
  <path
     style="fill:#ffd42a;stroke-width:0.75"
     d="m 116.63096,262.38052 c -3.04952,-1.03236 -11.17498,-12.14078 -17.628433,-24.10008 -0.503137,-0.9324 -2.121577,-4.11685 -3.596542,-7.07657 -4.593263,-9.21703 -6.799898,-13.2151 -9.313305,-16.87423 -3.295283,-4.79742 -7.709693,-12.39847 -8.40705,-14.47586 -0.21735,-0.64747 -0.250763,-1.26184 -0.08571,-1.57577 0.112065,-0.21314 0.60309,-0.70685 0.996705,-1.00215 l 0.221775,-0.16639 h 5.151255 5.151255 l 1.223685,0.3504 c 11.144975,3.19133 27.914625,12.27824 41.612665,22.5485 9.31118,6.98116 16.13901,13.62336 19.96401,19.42121 0.89843,1.36182 2.53304,4.10001 3.69433,6.1885 0.81228,1.4608 2.82536,5.27737 2.82536,5.35655 0,0.0137 -1.32323,0.0232 -2.9405,0.0212 l -2.9405,-0.004 -2.0372,-2.69872 c -3.44394,-4.56223 -7.01976,-9.38135 -8.51658,-11.47778 -2.37028,-3.31976 -3.49972,-4.81001 -5.27282,-6.95725 -5.69118,-6.89211 -12.12552,-12.75799 -19.21083,-17.51361 -6.67689,-4.48149 -13.44153,-7.86678 -22.350327,-11.18497 -5.985623,-2.22942 -9.260258,-3.10141 -11.413748,-3.03934 -0.829155,0.0239 -0.970545,0.0491 -1.36695,0.24378 -0.342982,0.16841 -0.489532,0.29773 -0.653445,0.57656 -0.189967,0.32315 -0.21072,0.42934 -0.205462,1.05134 0.0135,1.60308 1.112685,3.90641 4.182112,8.76384 3.526725,5.58111 6.525878,10.73929 9.766605,16.79736 3.656287,6.83489 7.206665,12.86052 9.444245,16.02859 3.48165,4.9295 9.63321,11.71591 15.45332,17.04811 l 0.56737,0.51982 -0.068,0.93756 -0.068,0.93756 -1.46064,-1.38613 c -5.10828,-4.84772 -8.11406,-7.57433 -9.25584,-8.39616 -0.38027,-0.27371 -0.65789,-0.31124 -0.76884,-0.10392 -0.16773,0.31339 0.1595,1.09882 0.95062,2.28173 0.80993,1.21102 1.62161,2.13865 3.66631,4.19003 1.0624,1.06588 2.03057,2.11443 2.36137,2.55743 1.30065,1.7418 1.42541,2.584 0.32772,2.21239 z m 39.11935,-12.03056 c 0,-0.82033 -1.89362,-4.62854 -3.47063,-6.97972 -3.78015,-5.63586 -15.72243,-18.96987 -16.9899,-18.96987 -0.54958,0 0.34065,1.40462 3.9709,6.26538 5.56841,7.45586 13.78226,17.60851 15.78203,19.50722 0.54702,0.51938 0.7076,0.55954 0.7076,0.17699 z"
     id="path13" />
  <path
     style="fill:#ffd42a;stroke-width:0.615006"
     d="m 385.91636,421.97659 c -12.27195,-5.84607 -29.17126,-18.26018 -46.12546,-33.88338 -3.04428,-2.80528 -6.39398,-5.4673 -7.44377,-5.91558 -1.3869,-0.59224 -3.67036,-0.7153 -8.35275,-0.45014 -5.61182,0.31779 -6.99353,0.18811 -10.69891,-1.00417 -11.86041,-3.81635 -22.65447,-12.95325 -29.46604,-24.94227 -3.78157,-6.6559 -5.8181,-13.33493 -6.44885,-21.14973 -0.60048,-7.43963 -1.21608,-8.59399 -6.18579,-11.59934 -6.84267,-4.138 -10.34252,-1.97912 -14.15628,8.7323 -0.60834,1.70862 -1.1263,2.61705 -1.15101,2.01876 -0.0247,-0.5983 0.64694,-3.06813 1.49257,-5.48852 1.68938,-4.83538 1.86545,-6.0313 0.88793,-6.0313 -1.50198,0 -4.5585,9.57875 -10.42263,32.66314 -1.69011,6.6532 -3.07293,12.77166 -3.07293,13.59659 0,4.16976 -8.97609,13.16425 -17.33561,17.37114 -10.26186,5.16426 -19.71261,5.85185 -35.24741,2.56446 -10.64882,-2.25344 -15.59816,-3.84945 -20.17598,-6.50609 -2.97759,-1.72799 -3.85099,-2.56944 -4.00042,-3.85404 -0.26583,-2.28526 3.29287,-5.60254 10.12224,-9.43551 8.42867,-4.7306 11.50516,-7.29854 21.74174,-18.14782 19.77365,-20.95722 27.48686,-27.67134 37.51538,-32.65605 3.69624,-1.83724 4.55377,-2.00594 11.37761,-2.23836 4.05904,-0.13826 7.60939,-0.46554 7.88968,-0.72731 0.54561,-0.50956 -0.7507,-1.4875 -10.34971,-7.80785 -3.38253,-2.22719 -7.08104,-4.31146 -8.21891,-4.63172 -1.13787,-0.32026 -6.67293,-2.60406 -12.30012,-5.0751 -5.6272,-2.47103 -12.57397,-5.23113 -15.43725,-6.13353 -7.83186,-2.46831 -9.54629,-1.99377 -23.90475,6.61678 -9.58865,5.75018 -14.89737,8.03672 -25.12082,10.81994 -3.65974,0.99633 -9.67776,3.10422 -13.37339,4.68421 -16.61966,7.10539 -30.18222,7.82644 -46.1826,2.45529 -12.67968,-4.25643 -34.121444,-17.60206 -34.121444,-21.23761 0,-1.58067 3.704765,-4.72268 7.593546,-6.44011 1.97781,-0.87346 9.31176,-3.09062 16.297665,-4.92699 6.985913,-1.83638 14.908513,-4.19748 17.605783,-5.24689 7.20006,-2.80127 15.08357,-6.77466 15.08357,-7.6023 0,-0.39661 -0.44336,-1.35409 -0.98524,-2.12773 -1.25389,-1.79019 -0.76426,-2.30106 1.08563,-1.13277 0.79042,0.49919 2.05982,1.09346 2.82089,1.3206 1.86413,0.55635 1.86413,-1.05493 0,-2.29101 -0.76107,-0.50466 -4.84317,-4.12457 -9.07134,-8.04426 -4.22817,-3.91968 -8.04063,-7.1364 -8.47213,-7.14825 -1.22473,-0.0337 0.48984,2.79849 4.19263,6.92544 1.75896,1.96047 2.99909,3.75936 2.75583,3.99754 -0.74907,0.73346 -5.83141,-5.35545 -10.83801,-12.98452 -2.62314,-3.99714 -7.183728,-12.02297 -10.13464,-17.83518 -2.95092,-5.8122 -7.22616,-13.47355 -9.500535,-17.02521 -2.274368,-3.55166 -5.151698,-8.3738 -6.39405,-10.71585 l -2.258835,-4.2583 1.266817,-1.26683 c 5.479845,-5.47983 36.029673,8.40669 58.294673,26.49805 9.98187,8.11074 13.80311,12.93806 21.64405,27.34266 5.35822,9.84357 6.71661,11.08574 19.80799,18.11323 4.17691,2.24218 11.25453,6.52918 15.72804,9.52666 9.70147,6.50049 12.36875,7.89825 20.97892,10.99365 15.45361,5.55567 27.21843,10.89482 34.51983,15.66591 3.2048,2.09418 5.55579,2.80255 5.55579,1.67403 0,-0.2875 -0.82274,-1.60208 -1.8283,-2.92128 -1.00557,-1.3192 -3.98066,-5.21358 -6.61132,-8.65416 -2.63066,-3.44058 -6.41031,-9.25239 -8.39923,-12.91512 -5.99868,-11.04699 -8.53602,-14.32668 -21.30366,-27.53651 -13.16246,-13.61831 -17.02082,-18.44956 -19.38923,-24.27828 -2.63202,-6.47743 -2.06833,-9.18196 3.08121,-14.78337 2.30837,-2.51094 3.40502,-4.21913 3.40502,-5.30382 0,-3.09085 -2.54516,-14.12747 -3.99092,-17.30597 -2.84986,-6.26536 -6.40872,-7.27197 -31.06443,-8.78647 -17.91123,-1.10021 -23.36883,-2.74562 -30.25727,-9.12228 -6.35193,-5.88001 -23.06092,-26.10085 -28.44416,-34.42251 -3.64636,-5.63669 -12.024278,-22.72296 -12.024278,-24.52279 0,-3.30882 6.161578,-3.41107 15.783648,-0.26192 17.40416,5.6961 36.84533,14.70344 46.29473,21.44891 7.03056,5.01879 19.45482,16.839 23.16589,22.03958 1.4876,2.0847 4.93773,8.0439 7.66693,13.24266 2.72921,5.19877 5.49603,9.99813 6.14849,10.66524 1.17849,1.20492 1.18632,1.20223 1.18632,-0.407 0,-1.2363 -4.29496,-22.3201 -6.43136,-31.57129 -0.15814,-0.68479 -2.61016,-4.74507 -5.44894,-9.02285 -7.48311,-11.27635 -10.6278,-20.66371 -11.29557,-33.71889 -0.42755,-8.35893 0.65291,-14.88244 3.66471,-22.12636 2.83656,-6.822488 5.29498,-10.89714 13.35815,-22.140218 9.11884,-12.715074 15.45879,-22.62608 21.0418,-32.89385 4.44288,-8.170948 6.27614,-10.771587 7.59316,-10.771587 1.46353,0 4.54249,3.931047 6.92427,8.840527 3.02379,6.232858 6.68966,17.489544 7.48355,22.979579 0.9129,6.313076 0.75481,18.651707 -0.30471,23.781199 -1.33377,6.457177 -9.17505,31.60023 -11.35322,36.40408 -5.1416,11.33956 -13.33744,23.01626 -20.78185,29.60815 -6.8261,6.04438 -7.91967,9.53971 -6.0454,19.32252 1.61522,8.43073 10.94819,46.94519 11.52385,47.5556 1.42555,1.51161 9.17427,-4.17907 24.79885,-18.21239 2.87198,-2.57948 6.26553,-5.19332 7.54121,-5.80852 3.3054,-1.59403 9.28595,-1.87155 13.14326,-0.60988 3.01601,0.98648 8.20472,3.96996 7.72999,4.44469 -0.12588,0.12588 -2.17053,-0.59738 -4.54368,-1.60723 -5.07222,-2.15843 -8.49807,-2.80607 -10.62192,-2.00805 -1.47333,0.55359 -1.40284,0.64048 1.84501,2.27428 3.67562,1.84897 9.43346,5.84314 9.0197,6.2569 -0.14165,0.14165 -1.60761,-0.58076 -3.25769,-1.60534 -3.55411,-2.20685 -9.35386,-4.33989 -11.74862,-4.32094 -2.11079,0.0167 -6.93419,2.14482 -6.93419,3.05941 0,0.37017 -0.65712,1.33016 -1.46028,2.13331 l -1.46026,1.46027 4.16907,0.94149 c 4.56358,1.03059 14.3868,4.63697 13.91513,5.10864 -0.1622,0.1622 -2.22514,-0.40135 -4.58431,-1.25235 -5.98824,-2.16007 -10.81719,-2.61567 -14.9495,-1.41043 -3.94858,1.15165 -7.9818,4.23535 -6.94072,5.30671 0.37497,0.38588 3.55762,1.12137 7.07257,1.63443 7.51178,1.09646 12.62111,3.02985 30.52115,11.54936 6.84486,3.2578 13.27936,6.09012 14.29889,6.29402 1.67812,0.33562 1.85369,0.22056 1.85369,-1.21485 0,-0.94944 -1.84944,-4.3536 -4.60969,-8.4848 -4.60041,-6.88532 -5.78242,-9.44591 -2.31991,-5.02562 1.00582,1.28405 2.87725,3.92596 4.15875,5.87091 3.36112,5.10127 5.03326,4.5075 3.03091,-1.07625 -0.32665,-0.91089 -0.25671,-1.06115 0.26955,-0.57915 0.94563,0.86611 3.16043,7.23692 3.16043,9.09093 0,2.43931 -2.14731,4.51315 -5.50776,5.3193 -4.88586,1.17211 -8.25619,0.0936 -19.09249,-6.10947 -12.67014,-7.25284 -17.00236,-9.46634 -17.69256,-9.03977 -0.34729,0.21464 -0.22879,2.72675 0.30055,6.37131 1.14482,7.88226 0.72527,14.91729 -1.97155,33.05899 -1.18891,7.99788 -2.16166,16.18615 -2.16166,18.19616 0,3.56968 0.12055,3.83225 5.18973,11.30432 13.60383,20.05224 28.9718,37.91343 34.31504,39.88207 1.54644,0.56977 2.02072,-0.70477 3.49837,-9.40121 1.40991,-8.29781 2.26029,-23.66673 2.99334,-54.09877 l 0.43649,-18.12089 1.9783,-0.56614 c 1.37108,-0.39236 2.5566,-0.32659 3.86242,0.21431 5.18138,2.1462 22.63092,25.07688 29.48462,38.74615 5.84054,11.64858 10.12021,26.83009 11.70251,41.51291 0.36452,3.38254 0.9076,16.38992 1.20684,28.9053 0.59631,24.93969 0.83137,26.61727 4.35247,31.06303 2.02857,2.56126 10.7079,9.89192 19.24562,16.25502 2.63841,1.96639 9.00372,7.01779 14.14514,11.22532 7.73615,6.33097 14.64318,11.32741 22.95446,16.60495 2.39193,1.51884 -0.25683,0.68508 -4.99634,-1.57272 z M 222.01722,385.00492 c 10.0381,-3.38037 16.52428,-8.6822 20.4362,-16.70465 1.51867,-3.11443 3.5517,-9.54184 6.03007,-19.06398 2.05642,-7.90099 4.55347,-17.20792 5.54901,-20.68207 1.93038,-6.73652 2.19845,-8.75103 1.16451,-8.75103 -1.20181,0 -4.16622,1.81606 -7.07772,4.33595 -2.04948,1.7738 -3.09017,2.31679 -3.55313,1.85383 -1.04777,-1.04778 -2.47737,-0.76855 -4.74803,0.92737 -2.94036,2.19611 -4.27077,2.87989 -4.27077,2.19501 0,-0.31417 1.93727,-1.8949 4.30504,-3.51273 2.36777,-1.61782 4.30504,-3.1694 4.30504,-3.44795 0,-0.87065 -3.35514,-0.55542 -6.83637,0.64229 -7.7354,2.66137 -9.40674,3.9663 -26.00101,20.30072 -18.4961,18.20649 -21.54818,20.84959 -29.67812,25.70115 -3.27208,1.95262 -6.90876,4.45516 -8.08149,5.56119 -1.98948,1.87632 -2.07183,2.10195 -1.23008,3.36971 1.22046,1.83811 7.28603,5.16097 12.18212,6.67364 5.75775,1.7789 12.44149,2.38688 23.66709,2.15286 8.12387,-0.16935 10.53732,-0.43992 13.83764,-1.55131 z m 100.5032,-4.07441 c 1.20554,-0.46261 1.28863,-2.08672 0.10676,-2.08672 -1.75653,0 -20.48978,-9.93185 -24.63849,-13.06264 -7.38927,-5.57623 -13.23725,-14.28911 -16.41241,-24.45274 -1.2286,-3.93271 -1.44097,-5.90651 -1.44097,-13.3919 0,-7.47236 -0.13734,-8.75306 -0.92252,-8.60272 -0.74287,0.14224 -0.9565,1.53599 -1.09705,7.15729 -0.40171,16.06626 3.92442,27.6534 14.53617,38.93376 7.38032,7.84531 15.42651,12.85861 23.95844,14.92765 4.18701,1.01536 4.65189,1.06083 5.91007,0.57802 z m 7.12257,-3.16298 c -1.7e-4,-0.2537 -0.55022,-1.90807 -1.22232,-3.67638 -2.00422,-5.27317 -2.37643,-10.29956 -2.76761,-37.37528 -0.48745,-33.73844 -0.91867,-37.67609 -5.21965,-47.66298 -4.39752,-10.21107 -22.1623,-37.96118 -28.41937,-44.39349 -3.10122,-3.18807 -5.83322,-4.64095 -6.83782,-3.63636 -0.34907,0.34906 -0.81292,9.71205 -1.10562,22.31684 -0.27733,11.94351 -0.98813,29.04942 -1.57954,38.01313 -1.51169,22.91222 -1.42289,32.64794 0.36184,39.6679 1.71974,6.76439 4.08803,11.37151 8.6031,16.73591 4.81283,5.71819 10.73957,10.05174 20.04461,14.65633 8.46554,4.18917 11.37762,5.21246 11.37762,3.99803 0,-0.39651 -2.46949,-3.1554 -5.48775,-6.13085 -6.22495,-6.13665 -8.82389,-9.90357 -13.02627,-18.88039 -5.71552,-12.2091 -8.65467,-23.27378 -8.46275,-31.85887 l 0.0835,-3.73541 0.53426,4.30504 c 1.78953,14.42005 2.57049,17.31972 7.90182,29.33909 3.76749,8.49375 12.54677,20.74926 13.89674,19.39929 0.20485,-0.20485 -1.5665,-4.47434 -3.93631,-9.48777 -6.78364,-14.351 -7.62218,-18.04164 -8.7085,-38.3281 -0.8879,-16.58083 -1.98351,-29.57668 -2.87111,-34.05603 -0.55167,-2.78409 0.76873,-1.38566 1.51449,1.604 0.66728,2.67497 1.19758,8.25499 2.90806,30.59946 1.51916,19.84511 3.85931,30.64695 8.72081,40.25413 2.00239,3.95707 9.27538,15.63249 10.84539,17.41024 1.17746,1.33326 2.85301,1.87517 2.85237,0.92252 z m -0.75882,-39.23129 c 0.31256,-10.40943 0.0557,-13.37103 -1.06032,-12.22457 -0.56326,0.57865 -0.98671,12.32394 -0.74095,20.55179 0.1098,3.6759 0.27428,4.37754 0.81001,3.45522 0.37654,-0.64825 0.81257,-5.83113 0.99126,-11.78244 z m -85.64924,-18.76373 c 6.12485,-0.88397 9.03108,-1.74817 8.54172,-2.53996 -0.53327,-0.86286 -8.88488,-0.29604 -12.18469,0.82695 -2.55449,0.86935 -3.69677,2.36713 -1.78958,2.34652 0.62013,-0.007 3.06478,-0.29178 5.43255,-0.63351 z m -121.11312,-2.35962 c -0.18536,-0.29991 -1.36148,-0.73748 -2.61362,-0.97238 -4.76971,-0.8948 -19.585818,-5.42231 -25.056265,-7.65668 -6.747765,-2.7561 -8.96607,-3.38238 -8.96607,-2.53132 0,1.04737 13.523497,7.2726 19.372695,8.91777 7.31269,2.05681 18.00703,3.44607 17.26326,2.24261 z m 13.8942,-3.4121 c 6.08833,-1.19037 10.61091,-2.83566 16.66256,-6.06174 2.78878,-1.48667 7.97641,-4.24891 11.52807,-6.13832 7.81961,-4.15989 17.55757,-8.17872 27.06027,-11.16772 9.14888,-2.8777 9.40577,-3.05269 7.17518,-4.88733 -2.12426,-1.74717 -17.11767,-9.84365 -24.69609,-13.33593 -8.58036,-3.95402 -13.32774,-4.98455 -23.377,-5.07454 -10.5147,-0.0942 -12.40387,0.37477 -27.27832,6.77108 -13.58158,5.84037 -16.68003,6.90255 -31.147258,10.67768 -18.381522,4.79655 -22.970584,7.79971 -18.135473,11.86819 7.641256,6.42969 30.809981,15.51634 44.803681,17.57175 5.56077,0.81677 12.5436,0.72726 17.40438,-0.22312 z m 34.75294,-9.63297 c 6.79467,-2.38393 13.21356,-5.7093 15.76941,-8.16951 1.88626,-1.8157 1.90917,-1.89561 0.6007,-2.09621 -1.58556,-0.2431 -19.43206,6.67241 -22.42612,8.69011 -1.11941,0.75437 -2.1267,1.84617 -2.2384,2.42622 -0.30553,1.58646 2.03133,1.34681 8.29441,-0.85061 z m 6.20844,-33.30386 c -0.34385,-1.07073 -5.59392,-3.8815 -10.00322,-5.3555 -3.9652,-1.32555 -17.52805,-2.48784 -17.5272,-1.50203 2.6e-4,0.30455 3.4262,1.19669 7.6132,1.98255 4.18699,0.78586 10.20615,2.34637 13.3759,3.46781 6.74398,2.38599 6.86394,2.41179 6.54132,1.40717 z m -36.66999,-7.12279 c 4.75378,-2.05201 4.77532,-1.96784 -2.84827,-11.1275 -2.53979,-3.05154 -4.6178,-5.76054 -4.6178,-6.02001 0,-0.25947 2.83671,2.46271 6.30381,6.04929 8.08135,8.35988 9.36621,9.14712 14.9139,9.13795 2.36778,-0.004 4.65271,-0.22784 5.07764,-0.49762 0.93186,-0.59162 -1.27944,-3.88281 -14.17344,-21.0951 -13.10651,-17.49597 -21.46142,-25.41614 -34.04978,-32.27806 -10.14651,-5.53087 -23.067985,-10.29225 -27.04552,-9.96589 -2.266868,0.186 -2.375138,0.29173 -2.284883,2.23136 0.0624,1.34149 1.8687,5.0131 5.294753,10.7626 2.860005,4.79958 7.357447,12.60104 9.994312,17.3366 2.636865,4.73554 6.204408,10.6765 7.927888,13.20213 4.05045,5.93568 16.63388,18.67425 22.3605,22.63618 l 4.46679,3.09033 2.91329,-1.11526 c 1.6023,-0.61339 4.19737,-1.66954 5.76681,-2.347 z m 92.41389,0.97273 c 0.21583,-0.76107 1.4196,-5.81181 2.67504,-11.22387 2.20601,-9.50976 2.28065,-10.21173 2.22347,-20.91021 -0.0768,-14.37311 -0.89818,-20.41901 -3.02869,-22.29396 -1.32319,-1.16447 -2.28234,-1.38377 -6.05224,-1.38377 -4.25389,0 -13.75424,1.93091 -14.48402,2.94384 -0.18712,0.25971 -2.00073,0.98427 -4.03025,1.61012 -8.00942,2.46991 -12.56172,7.34655 -11.64275,12.47227 0.66075,3.68538 3.16029,8.4883 7.25227,13.93539 4.61816,6.14751 24.30324,26.25649 25.69022,26.24342 0.55248,-0.005 1.18111,-0.63216 1.39695,-1.39323 z m -77.12632,-15.53308 c -1.23386,-3.24531 -2.75513,-5.6955 -6.48871,-10.45093 -5.58835,-7.11782 -12.79054,-14.68827 -13.68888,-14.38882 -1.18156,0.39385 18.82819,26.38144 20.313,26.38144 0.24791,0 0.18697,-0.69376 -0.13541,-1.54169 z m 118.96221,-23.60388 c 0.18536,-0.29993 -0.006,-0.8187 -0.42496,-1.15284 -1.03127,-0.8222 -25.58138,-12.19999 -27.51475,-12.75175 -1.53308,-0.43751 -1.53396,-0.43534 -0.30751,0.75473 1.88198,1.82613 14.83046,9.94513 19.02741,11.93064 3.66418,1.73346 8.50625,2.37378 9.21981,1.21922 z m -80.83025,-42.14559 c 0,-0.47877 -2.15753,-4.14574 -4.79452,-8.14883 -2.63699,-4.00308 -6.15161,-9.49236 -7.81028,-12.19839 -4.97392,-8.11468 -9.47841,-13.73915 -13.77477,-17.19966 -5.16001,-4.15615 -15.65469,-10.12237 -33.58353,-19.09221 -15.46819,-7.73878 -23.19433,-10.37484 -29.36656,-10.01948 -3.0212,0.17394 -3.24139,0.29589 -3.42527,1.89693 -0.51963,4.52445 19.22936,33.84932 30.33181,45.0391 5.61818,5.66236 11.22754,8.91901 20.68922,12.01164 10.1314,3.31153 30.69834,6.94771 33.41061,5.90692 1.54421,-0.59257 0.30663,-2.29953 -4.5846,-6.32339 -4.05042,-3.33215 -5.3386,-4.95271 -2.55512,-3.2144 1.62474,1.01466 2.42039,0.21901 1.40573,-1.40573 -0.43344,-0.69406 -0.6597,-1.39032 -0.50277,-1.54725 0.15693,-0.15693 2.18256,2.14877 4.50141,5.12377 6.77824,8.69623 10.05864,11.68715 10.05864,9.17098 z m -24.68833,-0.29206 c 1.19275,-0.75576 0.83558,-0.88867 -10.05951,-3.74342 -5.41205,-1.41807 -12.00371,-3.41248 -14.64811,-4.43201 -2.64441,-1.01954 -4.99681,-1.66098 -5.22755,-1.42542 -0.69762,0.71215 3.61773,3.94526 8.19054,6.13645 5.60286,2.68478 19.48459,4.89644 21.74463,3.4644 z m 26.78624,-37.49446 c 0.17901,-0.28966 -0.55297,-3.40313 -1.62663,-6.91882 -1.87121,-6.12727 -1.95125,-6.8255 -1.93117,-16.84729 0.02,-9.9851 0.12018,-10.83481 2.22831,-18.90153 2.13065,-8.152835 5.03571,-15.782255 5.7409,-15.077053 0.18786,0.187853 -0.22666,1.45536 -0.92116,2.816678 -3.44254,6.747945 -6.29736,21.625845 -6.33345,33.006925 -0.0242,7.64172 0.86932,12.10196 2.01455,10.0556 0.31227,-0.55798 0.81131,-2.91038 1.10897,-5.22755 0.52055,-4.05219 0.54455,-3.91952 0.62843,3.47453 0.10064,8.87147 0.40076,9.80069 2.6053,8.06659 3.41691,-2.68773 18.92448,-24.01806 23.74946,-32.66683 2.39699,-4.29662 5.33734,-12.664965 6.74956,-19.209473 1.37648,-6.378952 1.56575,-32.154603 0.29698,-40.446127 -1.9379,-12.664322 -5.94008,-22.140222 -9.351,-22.140222 -0.60452,0 -1.87412,1.512964 -3.12158,3.719945 -7.19772,12.733986 -12.57102,21.766316 -18.0925,30.412897 -10.73831,16.816065 -13.85397,23.03934 -16.27629,32.51055 -1.51763,5.93388 -2.7258,18.07278 -2.29868,23.09573 0.66856,7.86251 6.71545,22.93649 11.39625,28.40915 2.0631,2.41212 2.83659,2.83252 3.43375,1.8663 z m 13.11023,-10.08222 c 0.70257,-0.76107 2.96484,-4.00492 5.02725,-7.20856 3.49895,-5.43506 4.52497,-8.01284 3.18931,-8.01284 -1.15459,0 -11.12457,14.16288 -11.12457,15.80306 0,1.24619 1.49708,0.94675 2.90801,-0.58166 z m -26.39802,-5.84739 c -0.87234,-3.17184 -3.09333,-7.38623 -3.40703,-6.46493 -0.3138,0.9216 1.55321,7.55576 2.42461,8.61551 1.11237,1.3528 1.6327,0.21378 0.98242,-2.15058 z m -2.9366,-22.48109 c 0.35686,-4.33373 1.2031,-10.957618 1.88053,-14.719738 0.67743,-3.76212 1.14202,-7.411905 1.03242,-8.110642 -0.17553,-1.11906 -0.32124,-1.043963 -1.22301,0.630292 -1.79993,3.341753 -4.74911,14.328143 -5.15596,19.207098 -0.3812,4.5714 0.15315,8.90523 1.79553,14.56255 l 0.71418,2.46002 0.15374,-3.07503 c 0.0846,-1.69126 0.44571,-6.62081 0.80257,-10.95455 z m 55.3118,-42.858484 c -0.001,-9.27105 -0.9414,-15.745857 -2.74005,-18.871788 -0.98945,-1.719609 -0.99378,-1.708817 -0.66248,1.651615 0.18341,1.860394 0.629,8.502461 0.99021,14.760148 0.36121,6.257688 0.7944,11.784987 0.96266,12.282887 0.84191,2.491387 1.45082,-1.634557 1.44966,-9.822862 z"
     id="path14" />
</svg>
