<?xml version="1.0" encoding="UTF-8" standalone="no"?>
<!DOCTYPE svg PUBLIC "-//W3C//DTD SVG 1.1//EN" 
  "http://www.w3.org/Graphics/SVG/1.1/DTD/svg11.dtd">
<svg
   version="1.0"
   width="500.000000pt"
   height="500.000000pt"
   viewBox="0 0 500.000000 500.000000"
   preserveAspectRatio="xMidYMid meet"
   id="svg11"
   sodipodi:docname="Logotipo-confeitaria-caseira-bege-marrom.svg"
   inkscape:export-filename="Logotipo-confeitaria-caseira-bege-marrom.svg"
   inkscape:export-xdpi="96"
   inkscape:export-ydpi="96"
   inkscape:version="1.3 (0e150ed6c4, 2023-07-21)"
   xmlns:inkscape="http://www.inkscape.org/namespaces/inkscape"
   xmlns:sodipodi="http://sodipodi.sourceforge.net/DTD/sodipodi-0.dtd"
   xmlns="http://www.w3.org/2000/svg"
   xmlns:svg="http://www.w3.org/2000/svg">
  <defs
     id="defs11" />
  <sodipodi:namedview
     id="namedview11"
     pagecolor="#ffffff"
     bordercolor="#000000"
     borderopacity="0.25"
     inkscape:showpageshadow="2"
     inkscape:pageopacity="0.0"
     inkscape:pagecheckerboard="0"
     inkscape:deskcolor="#d1d1d1"
     inkscape:document-units="pt"
     showgrid="false"
     inkscape:zoom="1.7246334"
     inkscape:cx="241.21068"
     inkscape:cy="410.81193"
     inkscape:window-width="1920"
     inkscape:window-height="1009"
     inkscape:window-x="-8"
     inkscape:window-y="-8"
     inkscape:window-maximized="1"
     inkscape:current-layer="svg11" />
  <g
     transform="translate(0.000000,500.000000) scale(0.100000,-0.100000)"
     fill="#000000"
     stroke="none"
     id="g11">
    <path
       d="M2952 4533 c-27 -53 -91 -261 -114 -368 -43 -203 -49 -243 -49 -315 1 -90 30 -212 71 -297 17 -34 66 -106 108 -161 106 -134 133 -179 199 -323 41 -92 56 -136 56 -169 0 -119 -222 -604 -395 -861 -140 -209 -149 -210 -62 -5 62 144 111 322 120 431 9 105 -24 272 -111 565 -41 140 -80 272 -85 292 -14 50 -56 98 -85 98 -37 0 -91 -72 -156 -205 -86 -179 -112 -261 -117 -380 -6 -137 10 -191 124 -425 l94 -195 14 -120 c8 -66 22 -166 31 -222 10 -56 15 -112 11 -125 -8 -34 -306 -333 -416 -417 -52 -41 -134 -100 -182 -132 -99 -67 -276 -164 -285 -156 -3 3 11 38 31 78 20 39 36 79 36 88 0 39 26 56 88 56 137 1 289 127 376 310 61 127 76 194 76 336 0 167 -38 269 -135 358 -60 56 -100 71 -182 71 -57 0 -76 -5 -120 -30 -28 -16 -68 -46 -88 -67 -23 -24 -39 -33 -45 -27 -9 9 -99 261 -166 462 -53 162 -94 203 -144 150 -110 -116 -210 -440 -210 -678 0 -228 40 -337 223 -620 133 -204 181 -298 197 -387 11 -58 10 -78 -1 -114 l-14 -44 -155 -63 c-236 -97 -654 -273 -660 -278 -2 -3 2 -9 9 -13 15 -10 81 3 122 24 16 9 137 60 269 115 332 138 365 141 520 37 25 -17 144 -130 265 -252 202 -205 226 -226 295 -258 103 -49 189 -60 401 -55 189 5 265 19 359 66 29 15 67 44 83 64 25 32 29 41 20 61 -6 12 -74 67 -153 122 -78 54 -175 128 -216 164 -210 185 -264 222 -380 262 -94 33 -234 54 -309 46 -27 -3 -104 -24 -170 -46 -141 -48 -257 -73 -291 -65 -13 3 -24 9 -24 13 0 3 84 51 187 106 249 133 423 250 558 375 153 142 138 134 230 115 96 -19 133 -38 253 -128 279 -210 330 -241 457 -280 148 -46 229 -59 298 -47 110 20 489 177 590 244 66 44 127 109 127 134 0 42 -62 73 -214 107 -164 37 -289 82 -484 176 -195 94 -280 119 -401 119 -205 -1 -389 -25 -495 -66 -30 -11 -18 9 86 153 52 72 113 166 135 209 23 44 54 91 70 106 36 34 142 98 163 98 9 0 32 -24 51 -52 43 -65 138 -139 214 -167 99 -37 182 -47 277 -32 114 18 264 67 318 104 79 54 156 141 195 221 35 70 38 81 38 168 1 109 -12 146 -73 212 -92 99 -186 136 -349 136 -94 0 -117 -4 -203 -34 -188 -64 -369 -200 -428 -319 -17 -34 -34 -87 -39 -117 -13 -79 -18 -88 -66 -115 -45 -27 -65 -31 -65 -14 0 6 40 101 89 212 48 111 101 234 116 272 18 47 42 85 73 118 90 92 254 191 397 237 147 48 257 120 362 237 155 174 225 297 269 470 26 105 29 144 14 174 -15 26 -46 24 -121 -10 -67 -30 -165 -60 -260 -80 -65 -14 -169 -62 -284 -131 -98 -59 -161 -114 -211 -181 -20 -27 -41 -48 -48 -46 -6 2 -17 30 -24 63 -7 32 -55 147 -107 255 -70 145 -100 219 -116 288 -22 96 -105 289 -142 329 -14 15 -32 22 -59 22 -34 0 -40 -4 -56 -37z m95 -78 c31 -54 140 -303 174 -395 15 -42 53 -168 84 -280 51 -184 57 -218 62 -330 5 -111 2 -140 -22 -255 -25 -119 -52 -210 -73 -243 -14 -22 -25 2 -86 183 -66 194 -70 203 -177 377 -114 185 -138 252 -152 415 -12 147 -17 117 69 388 65 203 77 217 121 140z m1305 -485 c-6 -92 -21 -140 -81 -265 -53 -109 -68 -130 -157 -221 -140 -144 -179 -171 -345 -238 -148 -60 -249 -110 -307 -154 -18 -13 -36 -21 -39 -18 -11 11 50 91 116 153 36 34 63 65 59 69 -4 4 -35 -19 -68 -50 -34 -31 -68 -56 -75 -56 -8 0 -31 -31 -50 -70 -19 -38 -40 -70 -45 -70 -5 0 8 49 29 108 22 60 49 153 60 207 24 108 64 188 158 312 98 130 188 183 405 237 75 19 170 52 218 74 47 22 94 40 105 39 18 -2 20 -8 17 -57z m-1508 -157 c21 -103 61 -190 154 -337 88 -139 111 -204 46 -131 -116 130 -183 250 -209 374 -14 66 -21 180 -11 170 3 -2 11 -37 20 -76z m514 -20 c66 -157 87 -330 57 -456 -20 -86 -28 -83 -20 8 8 93 -15 293 -44 377 -38 112 -33 165 7 71z m-691 -540 c24 -64 100 -324 132 -448 60 -239 17 -608 -98 -833 -27 -52 -42 -55 -30 -4 12 52 11 212 -1 212 -6 0 -10 -30 -10 -70 0 -38 -4 -70 -9 -70 -22 0 -61 260 -49 325 5 31 -3 163 -13 205 -1 3 -6 -15 -11 -40 -12 -56 -13 -94 -3 -194 11 -113 -5 -93 -59 72 -101 311 -130 518 -90 653 24 80 98 221 139 265 l37 39 21 -27 c12 -15 32 -53 44 -85z m1380 -388 c122 -46 183 -125 183 -240 0 -39 -8 -76 -21 -105 -67 -148 -270 -313 -401 -326 l-53 -5 70 34 c76 38 113 62 105 71 -3 3 -53 -18 -110 -47 -104 -52 -105 -52 -200 -52 -88 0 -101 3 -179 38 -83 36 -124 65 -142 100 -15 26 4 21 47 -14 120 -97 320 -113 452 -38 69 39 73 70 5 35 -62 -31 -147 -56 -192 -56 -65 0 -173 28 -195 50 l-21 21 61 -7 c41 -4 64 -3 68 5 5 7 -4 11 -26 11 -18 1 -46 7 -63 15 l-30 13 40 1 c30 1 36 4 27 13 -9 9 -25 9 -62 2 -40 -8 -55 -8 -70 3 -34 24 -24 79 23 130 11 13 18 25 15 28 -12 12 -69 -30 -94 -70 -16 -24 -32 -41 -36 -39 -8 5 28 106 61 173 12 23 38 59 57 81 46 50 170 129 259 165 130 51 302 56 422 10z m-1663 3 c3 -13 6 -39 6 -58 0 -20 11 -85 25 -145 28 -125 28 -125 16 -125 -31 0 -90 242 -77 315 8 40 21 46 30 13z m-867 -90 c15 -19 59 -149 88 -263 15 -55 60 -199 100 -320 41 -121 76 -242 80 -270 3 -27 11 -80 16 -118 11 -71 7 -121 -32 -372 -11 -71 -22 -145 -25 -163 -6 -39 -24 -43 -25 -4 0 15 -4 36 -9 47 -6 14 -9 3 -9 -40 -1 -81 -15 -58 -30 50 -12 91 -57 245 -71 245 -5 0 -10 -6 -13 -12 -2 -7 -6 -11 -9 -8 -19 19 -197 321 -243 413 -51 101 -57 120 -62 192 -4 70 0 98 32 220 51 198 93 305 152 383 25 34 44 40 60 20z m2653 -404 c0 -17 -74 -94 -122 -127 -59 -40 -128 -72 -128 -59 0 5 23 21 51 37 29 15 81 56 118 91 62 59 81 73 81 58z m-2321 -162 c-57 -63 -69 -71 -69 -48 0 20 98 118 111 110 5 -3 -14 -31 -42 -62z m274 55 c45 -20 104 -89 140 -165 26 -56 31 -78 31 -147 0 -44 -4 -88 -10 -98 -8 -14 -13 0 -22 68 -11 86 -55 198 -87 225 -29 24 -28 1 3 -47 55 -87 67 -129 67 -238 -1 -112 -15 -166 -74 -280 -43 -83 -147 -195 -182 -195 -18 0 -20 3 -11 12 24 24 11 29 -24 9 -59 -35 -61 -24 -3 28 61 54 116 127 104 139 -4 4 -24 -12 -44 -35 -35 -41 -61 -55 -61 -33 0 22 -16 7 -45 -40 -50 -86 -52 -75 -24 122 10 70 10 107 -1 198 -11 100 -11 114 4 148 14 30 15 46 7 80 -7 34 -6 44 4 49 19 7 115 133 115 150 0 18 -65 -28 -102 -72 -36 -43 -60 -93 -48 -100 13 -8 13 -52 -1 -61 -16 -9 -26 5 -40 57 -16 60 -3 94 65 163 70 71 161 95 239 63z m502 -282 c9 -41 15 -89 13 -107 l-4 -33 -13 30 c-13 30 -28 185 -18 185 3 0 12 -34 22 -75z m-1274 -117 c29 -51 76 -129 104 -173 75 -115 145 -252 145 -283 0 -23 -2 -24 -14 -12 -35 36 -228 350 -255 414 -29 69 -49 146 -38 146 3 0 29 -42 58 -92z m496 -65 c15 -87 7 -232 -17 -331 -12 -52 -26 -90 -30 -85 -5 4 -2 51 7 103 8 52 15 155 16 227 1 73 5 133 9 133 4 0 10 -21 15 -47z m1548 -9 c56 -14 98 -35 88 -45 -5 -5 -46 1 -103 17 -133 36 -130 35 -125 44 4 7 86 -2 140 -16z m-170 -21 c33 -8 98 -24 145 -34 117 -26 324 -89 450 -137 58 -22 171 -59 253 -81 146 -40 207 -64 207 -80 0 -18 -46 -65 -96 -97 -95 -61 -261 -122 -484 -179 -105 -27 -148 -30 -295 -21 -90 5 -108 10 -180 45 -44 22 -116 70 -160 106 -124 102 -234 183 -307 226 -38 22 -68 45 -68 51 0 16 123 3 200 -21 34 -11 89 -36 122 -56 33 -21 62 -34 65 -31 18 18 -123 90 -231 119 -102 27 -103 38 -2 26 50 -6 112 -27 230 -78 164 -70 253 -103 316 -116 57 -12 23 10 -55 35 -38 12 -126 48 -195 80 -105 48 -201 86 -269 106 -8 3 -11 7 -9 10 9 9 179 -27 243 -51 33 -12 101 -43 150 -67 98 -50 169 -74 163 -56 -5 13 -303 144 -388 170 -69 21 -260 30 -312 15 -16 -4 -28 -3 -28 2 0 13 132 79 223 112 74 26 91 28 167 23 47 -3 112 -12 145 -21z m-981 -145 c-17 -56 -58 -119 -68 -107 -6 8 55 129 65 129 6 0 8 -9 3 -22z m-179 -248 c-31 -33 -92 -64 -142 -75 -55 -11 -38 12 20 29 30 9 71 29 92 46 49 39 67 39 30 0z m227 -430 c66 -25 236 -133 353 -225 55 -43 159 -116 230 -163 203 -133 206 -135 221 -156 12 -18 12 -23 -4 -38 -44 -44 -302 -76 -470 -58 -143 15 -199 27 -247 50 -68 33 -195 141 -309 263 -149 161 -139 164 53 20 90 -68 124 -76 53 -13 -52 47 -202 150 -261 179 -31 17 -40 26 -32 34 8 8 25 7 62 -1 67 -16 78 -15 54 4 -19 15 -17 16 26 12 25 -3 76 -20 113 -37 37 -18 70 -30 74 -26 17 17 -151 83 -240 95 -67 9 -74 8 -87 -10 -10 -16 -25 -20 -67 -20 -91 0 -68 22 65 64 187 58 307 66 413 26z m192 -25 c39 -19 103 -61 142 -92 110 -90 220 -191 213 -197 -3 -3 -70 43 -150 102 -80 59 -180 130 -222 157 -42 28 -77 53 -77 58 0 14 23 7 94 -28z m-530 -224 c32 -31 76 -78 98 -106 22 -27 81 -86 131 -129 140 -120 218 -165 291 -167 17 0 40 -5 51 -10 14 -6 -3 -8 -55 -5 -59 4 -90 13 -150 42 -67 32 -95 56 -268 231 -105 107 -189 199 -186 204 7 13 20 4 88 -60z"
       id="path1" />
    <path
       d="M3094 3610 c6 -64 33 -179 35 -150 2 38 -22 196 -31 205 -7 7 -9 -10 -4 -55z"
       id="path2" />
    <path
       d="M3130 3414 c0 -9 24 -77 53 -153 30 -75 60 -157 67 -183 14 -53 30 -64 29 -20 -1 43 -46 250 -48 220 0 -16 -5 -28 -10 -28 -10 0 -43 73 -62 138 -12 42 -29 57 -29 26z"
       id="path3" />
    <path
       d="M3827 2871 c-37 -14 -15 -23 56 -25 62 -1 80 -5 115 -28 41 -27 80 -74 70 -84 -3 -2 -40 12 -83 33 -100 47 -167 54 -262 25 -82 -25 -176 -80 -181 -105 -4 -18 -2 -18 22 -2 14 9 33 14 43 11 21 -6 37 2 45 25 9 24 112 59 174 59 57 0 138 -26 128 -41 -3 -5 -53 -10 -112 -10 l-107 -2 115 -7 c66 -5 134 -15 160 -25 25 -9 58 -18 75 -20 16 -2 31 -8 33 -14 2 -6 8 -9 13 -6 12 8 -46 122 -79 157 -46 50 -168 82 -225 59z"
       id="path4" />
    <path
       d="M3576 2794 c-57 -20 -136 -74 -136 -91 0 -8 4 -12 8 -9 5 3 32 21 60 40 28 19 74 42 102 51 27 9 50 18 50 21 0 8 -46 2 -84 -12z"
       id="path5" />
    <path
       d="M3674 2389 c-45 -5 -99 -13 -120 -18 -37 -9 -36 -9 26 -10 76 -1 179 14 194 29 7 7 5 10 -4 9 -8 -1 -51 -5 -96 -10z"
       id="path6"
       style="fill:#000040" />
    <path
       d="M2193 1878 c-2 -97 9 -103 21 -11 7 52 0 103 -13 103 -4 0 -7 -42 -8 -92z"
       id="path7" />
    <path
       d="M2179 1765 c-4 -5 -12 -28 -19 -50 -7 -22 -23 -66 -36 -97 -28 -67 -29 -75 -9 -58 20 16 77 167 73 194 -2 11 -6 17 -9 11z"
       id="path8" />
    <path
       d="M3110 1440 c31 -24 138 -65 147 -56 10 9 0 15 -77 47 -83 34 -105 37 -70 9z"
       id="path9" />
    <path
       d="M2100 796 c0 -8 208 -116 224 -116 27 0 18 17 -31 59 -44 37 -83 55 -68 31 10 -16 -23 -11 -65 10 -37 19 -60 25 -60 16z"
       id="path10" />
    <path
       d="M2245 554 c26 -21 145 -84 160 -84 17 0 0 20 -25 30 -17 7 -56 28 -87 46 -65 40 -91 44 -48 8z"
       id="path11" />
  </g>
  <path
     style="fill:#000040;stroke-width:0.820008"
     d="m 329.23329,632.95683 c -10.96736,-1.58161 -24.36101,-7.03808 -31.53236,-12.84605 -2.05039,-1.66059 -16.46453,-15.57985 -32.03142,-30.93169 -29.2212,-28.81754 -35.28834,-33.89351 -45.38757,-37.97278 -6.61748,-2.67291 -14.74584,-2.6153 -24.36667,0.17271 -7.90022,2.28939 -28.57841,10.53349 -55.69387,22.20436 -14.63067,6.29724 -19.51116,8.03496 -23.57523,8.39409 -3.18183,0.28117 -5.12505,0.14098 -5.12505,-0.36973 0,-0.8362 34.43577,-15.61106 81.18081,-34.83107 14.20664,-5.84129 26.25172,-11.05272 26.76684,-11.58093 1.72173,-1.7655 3.69919,-11.84268 3.13097,-15.95542 -2.09967,-15.19699 -6.23942,-23.87128 -27.23867,-57.07492 -18.68871,-29.55026 -25.45815,-44.02569 -28.22801,-60.36138 -1.704,-10.04961 -1.29532,-33.80358 0.79004,-45.92046 4.73991,-27.541 15.29232,-54.72978 25.292,-65.16602 7.97584,-8.32405 10.61927,-4.61102 23.7572,33.37001 14.1216,40.82478 16.68613,47.37616 18.54533,47.37616 0.88924,0 3.76334,-1.93726 6.38688,-4.30504 5.24771,-4.7361 12.22131,-9.21614 16.99988,-10.9212 7.00178,-2.49835 21.06607,-0.83968 26.86847,3.16873 7.59714,5.24825 14.70973,13.24634 18.266,20.54004 4.81651,9.87837 5.48955,13.91009 5.49685,32.92789 0.008,19.60036 -0.56531,22.8062 -6.6104,36.99421 -6.23118,14.62479 -12.55892,24.0419 -22.33316,33.2368 -9.83425,9.25136 -21.43149,14.63984 -31.50828,14.63984 -2.17475,0 -5.21201,0.52559 -6.74948,1.16798 -2.2827,0.95378 -2.95768,1.81853 -3.68034,4.71505 -0.48673,1.95088 -2.39257,6.86809 -4.23519,10.92714 -4.11104,9.05602 -5.27698,12.52305 -4.4796,13.32042 0.80028,0.80028 18.25115,-8.18521 29.13513,-15.00174 11.70088,-7.32816 24.39169,-16.31191 34.63196,-24.51578 10.16243,-8.14153 34.57177,-31.66269 45.91569,-44.24499 l 8.06144,-8.94147 v -5.08408 c 0,-2.79624 -0.72646,-9.8427 -1.61435,-15.65878 -0.8879,-5.81608 -2.5541,-17.99925 -3.70267,-27.07372 l -2.08831,-16.49902 -10.94248,-22.86137 c -17.32698,-36.20007 -18.20257,-39.13779 -17.51045,-58.7503 0.60738,-17.21104 3.04791,-25.55178 14.4635,-49.43028 8.40098,-17.57272 16.42453,-28.45693 20.97768,-28.45693 2.35224,0 6.14267,3.16344 8.59718,7.17508 1.59735,2.61069 15.76182,50.40118 21.26596,71.75071 5.52525,21.43141 6.98559,30.28927 6.96227,42.23043 -0.0334,17.11736 -4.34104,33.98868 -16.36141,64.08168 -7.02135,17.57794 -7.92214,20.61053 -5.76101,19.3949 2.84986,-1.60305 18.50793,-24.77822 28.39769,-42.0308 14.04678,-24.50446 32.09646,-64.04062 37.30679,-81.71708 3.86825,-13.12337 2.95795,-18.05966 -7.39678,-40.11038 -6.19005,-13.18192 -10.09385,-19.49731 -21.08678,-34.11327 -13.90854,-18.49248 -17.92883,-25.20265 -21.38935,-35.70042 -4.12132,-12.50236 -5.87248,-23.93367 -5.24662,-34.24909 1.40839,-23.21289 17.72917,-83.890661 23.95404,-89.056844 1.80867,-1.50106 8.04444,-1.334323 10.4721,0.280011 4.07148,2.707442 13.60606,22.771051 18.58524,39.108947 5.28373,17.337116 7.68828,23.592236 15.73617,40.935526 10.24875,22.08618 13.48274,29.77786 16.23053,38.60244 1.41653,4.54922 2.62513,7.055 3.48241,7.2201 0.814,0.15676 3.50332,-2.3696 7.07678,-6.64794 10.61596,-12.71006 20.59678,-20.212 40.77809,-30.65027 13.76702,-7.12064 14.88461,-7.53868 32.74572,-12.24844 7.66707,-2.02172 18.40278,-5.45982 23.85713,-7.64022 13.52647,-5.40727 14.55089,-5.58787 17.12041,-3.01834 2.73381,2.7338 2.72257,6.82778 -0.0529,19.26887 -4.77129,21.38764 -12.6325,37.17714 -27.93286,56.10405 -18.16558,22.47127 -32.95313,33.40097 -56.45225,41.72471 -27.12564,9.60831 -53.79391,28.00692 -60.40144,41.67137 -3.42897,7.09112 -29.28084,67.7524 -29.86388,70.07543 -0.47059,1.87498 -0.28332,2.08529 1.85682,2.08529 2.84755,0 10.58244,-4.49917 12.7147,-7.39579 0.83635,-1.13617 2.42106,-6.05065 3.52158,-10.92109 3.10455,-13.73948 6.443,-19.81322 16.32593,-29.70222 12.8592,-12.86708 28.2054,-22.18797 47.26037,-28.70472 18.72943,-6.40541 43.656,-5.06964 58.07981,3.1124 5.89679,3.34501 14.45646,11.44873 18.223,17.25232 3.93389,6.06143 5.20812,12.81789 4.69143,24.87557 -0.34635,8.08278 -0.65943,9.52836 -3.28833,15.18332 -4.32794,9.3097 -9.06338,15.87321 -17.38063,24.09029 -5.19444,5.13187 -9.27354,8.32736 -13.39031,10.48971 -7.77635,4.08455 -23.08493,9.06168 -34.74105,11.29501 -25.53738,4.89299 -49.08205,-2.67654 -65.11538,-20.93437 -2.7023,-3.07722 -6.26992,-7.03449 -7.92803,-8.7939 l -3.01476,-3.19895 -3.13531,1.30282 c -6.2724,2.6064 -14.71786,8.19481 -19.12547,12.65545 -2.5589,2.58968 -6.27567,7.75708 -8.59125,11.94437 -4.71496,8.52606 -13.37868,21.76437 -24.02991,36.71809 -7.17392,10.07176 -9.02719,13.33781 -8.09649,14.26851 0.23787,0.23787 2.76234,-0.33576 5.60992,-1.27474 13.16421,-4.34082 29.74285,-6.60908 52.73791,-7.2155 25.647,-0.67636 31.81182,0.79502 61.44937,14.66628 28.92565,13.53809 41.19044,18.06479 64.22931,23.70583 20.20018,4.94598 28.07556,8.26512 29.67989,12.50882 1.18856,3.1439 -2.62803,8.30959 -11.38519,15.40967 -9.53928,7.7342 -38.82642,21.36198 -68.65283,31.94529 -12.09569,4.29191 -12.24797,4.3219 -22.02002,4.33659 -8.1585,0.0123 -11.31148,-0.3728 -18.45018,-2.25336 -26.75329,-7.04768 -32.87786,-10.32464 -67.92343,-36.34255 -8.7191,-6.47308 -18.31319,-13.224 -21.32021,-15.00204 -5.4203,-3.20502 -15.91505,-6.73435 -23.3328,-7.84671 -7.82916,-1.17406 -8.40642,-0.82884 -27.27897,16.31362 -19.74881,17.93839 -40.59504,31.7713 -80.34183,53.31234 -8.13185,4.40711 -15.69642,8.72597 -16.81017,9.59747 -2.00749,1.57086 -2.01082,1.59568 -0.38496,2.87394 3.09476,2.43312 17.13138,-0.20013 39.77039,-7.46087 19.19708,-6.15685 24.61466,-7.23042 33.21034,-6.58104 15.75888,1.19052 32.48253,5.57468 43.64987,11.44295 7.20128,3.78416 17.40293,11.46918 32.24098,24.28746 11.34837,9.80362 20.39967,16.81425 39.41725,30.53038 12.91502,9.31476 16.68001,12.92642 16.05012,15.39645 -1.30588,5.12084 -9.8482,12.0721 -19.47883,15.8508 -7.72576,3.03131 -13.99824,4.43211 -24.13852,5.39076 -10.59676,1.0018 -42.93792,0.96599 -50.0205,-0.0554 z m 8.05062,-4.89801 c -0.48811,-0.48811 -3.79069,-1.23933 -7.33907,-1.66937 -4.35605,-0.52792 -8.31604,-1.66393 -12.19166,-3.49747 -10.32215,-4.88335 -32.44293,-22.82234 -42.19992,-34.2223 -14.51397,-16.95796 -27.09078,-27.82187 -27.09078,-23.40114 0,2.66913 44.86292,48.41745 52.70229,53.74241 4.86108,3.30192 13.36995,7.32206 18.46946,8.72616 4.89224,1.34702 18.93089,1.60291 17.64968,0.32171 z m 53.45,-3.60707 c 14.57814,-2.20372 23.37023,-5.73803 23.37023,-9.39453 0,-2.97622 -3.86894,-6.1168 -24.40729,-19.81243 -11.54329,-7.69743 -27.98161,-19.18561 -36.5296,-25.52928 -41.43786,-30.75207 -55.01789,-36.24251 -79.69452,-32.22076 -16.23417,2.64582 -38.95038,10.22533 -38.95038,12.99622 0,1.5172 6.24312,2.5225 10.93357,1.7606 1.95882,-0.31819 4.38356,-1.46372 5.68292,-2.68481 2.26136,-2.12513 2.28219,-2.1278 9.4301,-1.21184 3.94006,0.5049 10.30027,1.90899 14.13381,3.12022 8.07386,2.55096 19.68544,7.79309 18.37642,8.29616 -0.49158,0.18891 -3.35569,-0.76112 -6.36471,-2.11117 -7.51744,-3.37285 -15.65803,-5.79461 -19.47817,-5.79461 -3.52771,0 -3.9041,0.47345 -1.75864,2.21214 1.28804,1.04382 1.14105,1.11842 -1.43501,0.72829 -1.57852,-0.23905 -5.3608,-0.68296 -8.40508,-0.98646 -5.20164,-0.51858 -5.53506,-0.45125 -5.53506,1.11766 0,1.25121 2.10578,2.90018 8.40509,6.58178 14.41685,8.42588 36.2076,24.80819 32.96118,24.78026 -0.42672,-0.004 -4.0969,-2.47097 -8.15594,-5.4829 -10.05063,-7.45784 -19.98657,-14.19062 -20.94188,-14.19062 -2.90606,0 1.35024,5.34314 17.23832,21.64008 14.24079,14.60727 28.63953,26.61878 36.50389,30.45174 14.01457,6.83049 49.38723,9.54872 74.62075,5.73426 z m -11.89012,-42.94903 c 0,-1.02566 -13.0569,-13.40853 -22.55023,-21.38611 -13.51264,-11.35517 -30.34753,-21.37122 -35.92055,-21.37122 -3.42839,0 -2.4749,1.50321 3.5915,5.66208 2.89783,1.98663 12.27985,8.61648 20.84894,14.73299 32.67874,23.32569 34.03034,24.21387 34.03034,22.36226 z m 117.26117,-70.42864 c 36.62653,-9.57161 61.09773,-20.12185 70.84635,-30.54392 7.049,-7.53595 5.62122,-8.56328 -23.86635,-17.17241 -10.86754,-3.17287 -25.79161,-7.94544 -33.16458,-10.60572 -28.92312,-10.43588 -68.58005,-21.37794 -89.45389,-24.68194 -9.03355,-1.42987 -21.66278,-1.24841 -27.27256,0.39187 -11.04739,3.2302 -34.85035,14.6892 -34.85035,16.77733 0,0.40374 5.32806,0.51822 12.09512,0.25987 13.64412,-0.52087 26.24078,0.63568 34.41207,3.15954 10.55281,3.25943 50.85106,20.88205 49.90807,21.82505 -0.7202,0.72019 -6.88261,-1.72362 -22.20451,-8.8056 -16.94773,-7.83344 -24.24998,-10.40464 -37.05806,-13.04847 -8.7396,-1.80403 -14.19246,-2.20317 -14.19246,-1.03886 0,0.37749 4.3358,2.26744 9.6351,4.1999 5.2993,1.93245 17.01517,6.74299 26.03526,10.69008 9.02009,3.94709 20.0902,8.52808 24.60025,10.17998 4.51004,1.6519 8.93809,3.3341 9.84009,3.73823 1.52948,0.68525 1.53649,0.73851 0.10386,0.79026 -2.66327,0.0962 -17.78801,-5.32975 -38.40858,-13.77903 -23.65309,-9.69185 -28.53653,-11.25935 -37.51888,-12.04288 -10.00678,-0.87291 -8.37137,0.89189 4.64009,5.00718 13.72865,4.34211 30.31725,12.39933 28.75167,13.96491 -0.27044,0.27044 -3.13037,-1.04936 -6.35541,-2.93289 -8.43954,-4.92895 -16.38159,-7.99936 -25.49583,-9.85673 -9.57295,-1.95084 -18.78785,-2.19135 -18.78785,-0.49035 0,0.62419 6.36532,5.39868 14.14514,10.60997 7.77983,5.21129 20.04921,14.16059 27.26528,19.88732 15.27923,12.12573 22.39696,17.05967 30.3403,21.0316 10.99057,5.49565 16.54789,6.35471 38.95039,6.021 13.7936,-0.20547 14.84308,-0.34257 27.06027,-3.53529 z M 227.24075,496.67157 c 0.1058,-6.33538 0.13372,-6.28959 2.02919,3.32843 0.43669,2.21588 1.62497,2.38633 2.69518,0.38663 1.27444,-2.38131 8.3763,-51.49349 8.86027,-61.27224 0.33718,-6.813 0.0236,-11.88449 -1.28181,-20.72655 -2.0121,-13.6293 -3.31574,-18.49001 -12.80496,-47.74413 -3.87677,-11.95162 -9.40766,-29.8483 -12.2909,-39.7704 -5.78095,-19.8941 -9.74888,-31.65929 -11.66229,-34.57953 -3.19114,-4.87028 -9.08539,0.35804 -15.73384,13.95622 -4.83778,9.89481 -7.09006,16.40689 -12.42869,35.93557 -5.18623,18.97116 -6.18191,26.04542 -5.0332,35.76059 1.0407,8.80178 3.42947,14.95337 11.69139,30.10796 6.26962,11.50016 26.03205,44.87609 28.16135,47.56048 1.22111,1.53945 1.35362,1.55203 2.16103,0.205 0.47308,-0.78926 1.1843,-1.43502 1.58049,-1.43502 1.81893,0 7.18166,18.99854 9.49002,33.62034 0.74761,4.73555 1.70832,9.26617 2.13493,10.06807 1.40564,2.64222 2.33186,0.58496 2.43184,-5.40142 z m 32.87962,-4.65455 c 8.77721,-2.711 18.73162,-10.1146 17.71204,-13.17335 -0.17726,-0.53176 -2.18031,0.34917 -4.79214,2.10756 -5.9022,3.97361 -8.27543,5.18735 -15.1418,7.74399 -3.65031,1.35917 -5.83265,2.6465 -6.00518,3.54239 -0.36033,1.87102 1.62782,1.81772 8.22708,-0.22059 z M 242.7234,476.63856 c 3.26717,-10.57785 4.40706,-19.55307 4.45327,-35.06414 0.0291,-9.76168 -0.31183,-15.94035 -1.00672,-18.24519 -2.27459,-7.54445 -3.02822,-3.58052 -3.85857,20.29521 -0.25879,7.44157 -1.00712,17.58917 -1.66295,22.55022 -2.12864,16.10231 -1.16599,20.95691 2.07497,10.4639 z m -28.98644,3.44666 c 1.27435,-3.32091 -5.86727,-17.80789 -21.00578,-42.61085 -5.23016,-8.56908 -11.71214,-19.24665 -14.40441,-23.72793 -5.60696,-9.33279 -7.44828,-10.82092 -6.5272,-5.27522 1.09638,6.60117 5.83452,18.354 11.04975,27.40859 13.0022,22.5742 27.89627,45.465 29.58214,45.465 0.45218,0 1.03965,-0.56682 1.3055,-1.25959 z m 46.61564,-0.81182 c 3.88702,-2.39408 5.29246,-2.61231 3.40713,-0.52905 -1.97071,2.17761 -1.70668,2.60046 1.62374,2.60046 2.65497,0 3.76382,-0.78438 10.14311,-7.17507 18.07996,-18.11228 25.66128,-38.66249 23.67182,-64.16564 -0.72576,-9.30359 -1.89849,-12.85812 -7.38885,-22.39553 -4.03421,-7.00791 -4.76925,-10.47262 -1.33757,-6.30476 4.57136,5.55202 9.2701,19.04901 11.34751,32.59533 0.61797,4.02959 1.27217,5.94506 2.03048,5.94506 1.69302,0 2.21448,-4.54241 1.8544,-16.15339 -0.29932,-9.65172 -0.5296,-10.93509 -2.86008,-15.93944 -5.69286,-12.22452 -14.90152,-22.50267 -21.92233,-24.46838 -2.26003,-0.63276 -6.14295,-0.89875 -9.70793,-0.66501 -7.60494,0.49864 -13.10599,3.22286 -20.14491,9.97615 -9.49131,9.10614 -11.43389,14.89159 -8.15579,24.28984 1.61945,4.64295 2.12339,5.33005 3.90914,5.33005 1.83128,0 2.07724,-0.37833 2.30513,-3.54563 0.14031,-1.9501 -0.12007,-3.99771 -0.57864,-4.55025 -1.36756,-1.64781 2.63927,-9.07493 7.83376,-14.52081 4.5146,-4.73308 9.8118,-8.71509 10.57641,-7.95049 0.57241,0.57241 -7.12686,11.20834 -11.87215,16.40043 l -4.25193,4.6523 0.91251,5.03223 c 0.82048,4.5247 0.72614,5.5519 -0.93544,10.18492 -1.82144,5.07875 -1.83189,5.33369 -0.72813,17.76517 1.41631,15.95187 1.31241,21.05962 -0.75189,36.96535 -1.57284,12.1188 -1.58224,15.41754 -0.0439,15.41754 0.35761,0 2.5244,-2.95203 4.81509,-6.56006 3.99115,-6.28643 5.83936,-7.97344 5.83936,-5.33006 0,2.5679 3.51997,0.54719 8.33466,-4.78466 2.10354,-2.32948 4.06801,-3.99297 4.3655,-3.69663 1.12455,1.12019 -2.37609,5.93724 -10.27281,14.1359 -4.49207,4.66383 -8.16741,8.71275 -8.16741,8.99761 0,1.12958 3.04104,0.36142 6.15006,-1.55348 z m 33.99855,-18.51504 c 4.59507,-6.3433 7.3806,-16.89041 3.6412,-13.78697 -1.30619,1.08404 -7.01085,11.90976 -8.06673,15.30823 -0.97303,3.13178 1.7273,2.20355 4.42553,-1.52126 z m 170.42001,-27.99903 c -1.25991,-4.16382 -30.98682,-10.75194 -30.98682,-6.86734 0,0.74129 3.16119,1.98853 9.22509,3.63972 5.0738,1.38159 10.51661,2.87035 12.09512,3.30836 4.34586,1.20587 10.04153,1.1583 9.66661,-0.0807 z M 351.72435,413.89914 c -0.0654,-7.47172 -3.00305,-21.17927 -4.65714,-21.73064 -1.27565,-0.42521 -1.31454,2.58283 -0.16169,12.50555 0.92243,7.93947 3.02205,15.99016 4.17024,15.99016 0.38927,0 0.68113,-3.04428 0.64859,-6.76507 z m 9.67697,-12.04306 c 6.00394,-11.97115 10.96953,-29.27959 13.89472,-48.43255 1.04517,-6.84333 1.43951,-14.37868 1.43758,-27.47027 -0.003,-22.67506 -0.73275,-26.69506 -11.53082,-63.55064 -8.1316,-27.7545 -11.2407,-35.94633 -16.10547,-42.43458 l -1.99755,-2.66419 -4.04958,4.3042 c -2.22727,2.36732 -5.42018,6.57178 -7.09535,9.34324 -4.76549,7.88422 -11.80251,23.12626 -13.38486,28.99131 -1.96655,7.2891 -1.96322,25.20152 0.007,37.31037 3.29486,20.25061 17.47555,67.65068 20.23909,67.65068 1.48184,0 1.58293,-2.01811 0.65555,-13.08677 -0.77673,-9.27061 -0.75454,-12.9567 0.11261,-18.70478 0.95499,-6.33025 1.16528,-6.87411 1.81681,-4.69882 0.40526,1.35302 0.85786,10.76261 1.00579,20.91021 0.26929,18.47423 2.0984,34.38021 4.87619,42.40367 2.20021,6.35516 3.75134,3.68863 3.7694,-6.47991 0.007,-3.76839 0.38179,-6.53571 0.93199,-6.87575 0.98508,-0.60883 0.50333,22.81852 -0.58047,28.22788 -0.47862,2.38888 -0.3501,2.70807 0.98982,2.45816 0.98826,-0.18431 2.78211,-2.76405 5.00762,-7.20146 z M 244.96964,374.12874 c 7.71247,-8.75467 9.21631,-11.75113 5.26875,-10.49824 -2.44912,0.77733 -13.25602,12.51338 -13.25602,14.39575 0,3.19312 3.05328,1.70322 7.98727,-3.89751 z m 269.85163,-1.09428 c 16.78013,-5.43458 38.3778,-24.75221 46.22062,-41.34114 2.58158,-5.46051 2.71375,-6.19932 2.71375,-15.17015 0,-8.53504 -0.21044,-9.87918 -2.21714,-14.16148 -4.17354,-8.90637 -14.24038,-16.25888 -27.30316,-19.94138 -8.03784,-2.26593 -28.37944,-2.52157 -38.29609,-0.48129 -21.85331,4.49619 -47.03964,21.29868 -54.9903,36.68552 -2.91033,5.63234 -7.19034,16.50569 -8.29124,21.06386 -0.92755,3.84043 1.51783,2.68771 5.62703,-2.6525 3.81171,-4.9536 8.38726,-9.03262 10.13214,-9.03262 1.43853,0 1.19326,0.59667 -1.92264,4.67745 -5.14836,6.74261 -5.53531,12.73178 -1.03944,16.08843 1.99911,1.49255 2.56802,1.52842 8.81857,0.55607 4.97629,-0.77412 6.91864,-0.80234 7.61042,-0.11057 0.69178,0.69179 -0.26409,0.92884 -3.74521,0.92884 -2.57072,0 -4.67405,0.31709 -4.67405,0.70464 0,0.96648 10.1253,4.21541 13.13736,4.21541 1.34354,0 2.4428,0.41654 2.4428,0.92564 0,0.66604 -2.35577,0.75863 -8.39944,0.33015 l -8.39944,-0.59549 1.63437,1.80713 c 3.47711,3.84463 13.62115,7.13434 24.5473,7.96069 6.90803,0.52245 15.30495,-1.39281 25.79934,-5.88459 3.73099,-1.59694 7.17712,-2.90351 7.65805,-2.90351 1.82777,0 -2.44917,3.5601 -7.09933,5.90942 -7.52113,3.79979 -11.64369,4.81988 -21.39071,5.29296 -14.58417,0.70785 -25.15109,-2.35545 -36.39057,-10.54945 -4.77905,-3.48412 -8.29987,-4.93265 -8.29987,-3.41475 0,0.28502 0.7964,1.80683 1.76978,3.38179 2.22411,3.59868 9.01175,8.01594 19.14908,12.46182 9.22434,4.04548 18.58233,5.34713 30.50583,4.24322 6.60779,-0.61177 8.2469,-1.16257 19.74779,-6.63595 12.60434,-5.99853 17.21996,-7.27713 9.05975,-2.50969 -2.40981,1.40788 -7.6067,4.11025 -11.54864,6.00529 -3.94194,1.89503 -7.17072,3.65174 -7.17507,3.90379 -0.012,0.69762 11.18838,-0.64992 14.60836,-1.75756 z m 14.6658,0.52438 c 6.96436,-3.2425 14.20225,-8.52583 20.53343,-14.9885 5.52364,-5.63835 7.4255,-9.24685 4.87355,-9.24685 -0.58932,0 -4.55611,3.16054 -8.81508,7.02341 -4.25897,3.86287 -11.34137,9.41522 -15.73867,12.33854 -4.39729,2.92332 -7.99508,5.66684 -7.99508,6.09672 0,1.31787 2.6638,0.8616 7.14185,-1.22332 z M 325.52975,326.56827 c -0.007,-0.78926 -1.11642,-6.41657 -2.46445,-12.50513 -1.34802,-6.08856 -2.85039,-14.20664 -3.3386,-18.04018 -1.71795,-13.48976 -1.91091,-14.31562 -3.4122,-14.60475 -3.19483,-0.61527 -3.94623,7.68381 -1.81375,20.03239 2.581,14.94584 6.76249,26.55268 9.56589,26.55268 0.86477,0 1.47102,-0.5946 1.46311,-1.43501 z m 113.88664,-59.44566 c 2.24096,-6.13206 6.09604,-21.53696 8.36343,-33.42027 1.60711,-8.42282 1.74661,-11.09429 1.306,-25.01025 -0.5506,-17.38996 -1.13875,-20.94323 -7.02511,-42.44131 -9.66193,-35.28714 -12.76287,-44.13781 -25.63941,-73.179849 -6.92943,-15.628808 -11.31025,-24.106485 -13.31803,-25.772793 -3.6862,-3.059272 -6.56023,2.405891 -14.68754,27.929371 -8.58496,26.960651 -9.0238,29.049351 -8.41898,40.070531 0.70476,12.84235 2.65981,25.45549 5.05697,32.62552 2.75692,8.24608 6.36129,15.16586 17.80663,34.18573 11.98133,19.91056 12.10094,20.17151 21.53564,46.98349 4.16886,11.84729 8.20879,22.50054 8.97761,23.67391 1.36147,2.07786 1.4359,2.09347 2.85967,0.59971 0.80399,-0.84352 2.2364,-3.65323 3.18312,-6.24379 z m 14.76984,-15.68974 c 3.53098,-6.11973 5.51535,-8.63235 8.31326,-10.52631 2.02135,-1.36828 5.94591,-4.4715 8.72124,-6.89602 2.77534,-2.42454 5.31872,-4.40824 5.65196,-4.40824 0.33325,0 -2.54658,3.2702 -6.39961,7.2671 -8.13226,8.43592 -14.54852,16.84335 -14.54852,19.06337 0,0.85239 0.20283,1.5498 0.45072,1.5498 0.81129,0 4.83549,-2.25529 9.41003,-5.27369 6.94029,-4.57938 16.83612,-9.40029 36.17643,-17.62392 10.28078,-4.37145 20.45761,-9.31647 24.19024,-11.75426 8.2471,-5.38619 30.43624,-27.44936 35.83561,-35.63216 4.86625,-7.37487 12.1812,-22.78273 15.45423,-32.55205 2.08093,-6.21115 2.50167,-8.80889 2.59848,-16.04319 l 0.1155,-8.632 -2.21952,-0.25604 c -1.30185,-0.15018 -6.2179,1.42291 -11.89012,3.80472 -11.77115,4.94282 -21.12512,8.10586 -35.44487,11.98565 -22.12615,5.99487 -30.74728,10.4557 -41.91844,21.68984 -8.66789,8.71676 -18.50697,22.69239 -23.33969,33.15219 -1.62057,3.5075 -4.5647,12.53944 -6.54253,20.07098 -1.97782,7.53154 -5.27906,18.78234 -7.3361,25.00179 -5.71162,17.26916 -4.85944,19.1517 2.7217,6.01244 z m 0.43104,-25.10618 c 4.43796,-14.94424 3.509,-35.11537 -2.50873,-54.47436 -2.87074,-9.23509 -6.83804,-17.69079 -8.3003,-17.69079 -1.56548,0 -1.00307,3.84731 2.27755,15.58016 4.6308,16.56161 7.05341,37.14086 6.1014,51.8294 -0.63837,9.84955 0.34553,11.77502 2.43008,4.75559 z m -44.04416,-3.89947 c -0.53259,-2.6338 -4.47224,-9.84944 -12.87181,-23.57523 -9.47351,-15.48073 -14.36953,-26.40709 -17.77033,-39.65774 -1.63641,-6.37603 -3.28849,-11.59277 -3.67126,-11.59277 -1.77533,0 -0.064,18.5571 2.64668,28.70028 3.33801,12.49043 12.01426,27.46798 24.53772,42.35873 5.37081,6.38605 7.93235,7.73949 7.129,3.76673 z"
     id="path12"
     transform="scale(0.75)" />
  <path
     style="fill:#000040;stroke-width:0.820008"
     d="m 549.36513,311.80341 c -0.65814,-1.81797 -22.9642,-7.35967 -30.70994,-7.62956 -2.87083,-0.10003 -3.02428,-0.19619 -1.23002,-0.77082 1.12752,-0.36109 3.52604,-0.69896 5.33006,-0.75082 6.16556,-0.17725 6.51595,-2.24053 0.79127,-4.65937 -4.37304,-1.84772 -16.95457,-2.48133 -22.62401,-1.13934 -6.91942,1.63786 -12.5874,4.46217 -14.58506,7.26763 -1.54427,2.16873 -2.35058,2.56241 -5.25346,2.565 -1.97043,0.002 -4.56288,0.69429 -6.09422,1.62797 -1.46576,0.89369 -2.66503,1.3337 -2.66503,0.9778 0,-1.25664 5.3874,-5.74408 9.93981,-8.27939 7.99816,-4.45428 17.69936,-7.57923 25.00374,-8.05418 8.29773,-0.53955 12.77652,0.48506 24.66574,5.64279 5.04833,2.19005 9.56862,3.98191 10.0451,3.98191 2.10477,0 0.53927,-3.68518 -3.11998,-7.34443 -6.10883,-6.10883 -9.6493,-7.57885 -20.11248,-8.35077 -11.10243,-0.81908 -12.52368,-1.66054 -5.47839,-3.24351 2.41597,-0.54283 5.12199,-0.38885 9.69895,0.55192 8.47161,1.74128 15.09097,5.34078 18.59187,10.10995 3.73862,5.09302 8.84132,15.40671 8.47532,17.13049 -0.192,0.90429 -0.42788,1.03354 -0.66927,0.36673 z"
     id="path13"
     transform="scale(0.75)" />
  <path
     style="fill:#000040;stroke-width:0.205002"
     d="m 435.78752,262.04387 c -0.50263,-0.57174 -1.09368,-1.87074 -1.65565,-3.63879 -2.49759,-7.85785 -4.36462,-13.08334 -8.24011,-23.06273 -2.67724,-6.89387 -5.50906,-14.57343 -7.03026,-19.06519 -1.46513,-4.3262 -1.72196,-5.99328 -1.02996,-6.68528 0.31404,-0.31404 0.37434,-0.30172 0.84963,0.17357 0.81905,0.81904 1.33564,2.02674 2.91691,6.81922 1.93322,5.85916 3.06421,8.73764 4.91339,12.50512 1.47197,2.99895 2.52319,4.52159 3.0097,4.35942 0.51391,-0.1713 1.00267,-1.14604 1.26231,-2.51744 l 0.27111,-1.43197 0.52244,1.64001 c 1.09512,3.43774 3.40052,13.96566 4.69112,21.42272 1.18386,6.84023 0.96652,11.12747 -0.48063,9.48134 z"
     id="path14"
     transform="scale(0.75)" />
  <path
     style="fill:#000040;stroke-width:0.205002"
     d="m 416.295,204.05267 c -2.13452,-6.78601 -4.4704,-21.6787 -3.94734,-25.16672 0.27413,-1.828 0.84961,-0.92649 1.62959,2.5528 1.14808,5.12129 2.58346,15.04086 3.01227,20.81709 0.27012,3.63871 0.0577,4.18827 -0.69452,1.79683 z"
     id="path15"
     transform="scale(0.75)" />
  <path
     style="fill:#000040;stroke-width:0.205002"
     d="m 458.96918,307.00569 c -0.3727,-0.81798 -0.0288,-1.5146 1.47036,-2.97849 3.28586,-3.20857 10.57485,-7.58526 16.05351,-9.63937 3.66751,-1.37506 9.07012,-2.47563 10.67482,-2.17459 1.41428,0.26532 0.55616,0.72347 -5.20805,2.78061 -6.36854,2.2728 -9.79813,4.07397 -17.42764,9.15272 -2.77325,1.84608 -5.10845,3.35651 -5.18933,3.35651 -0.0809,0 -0.24903,-0.22383 -0.37367,-0.49739 z"
     id="path16"
     transform="scale(0.75)" />
  <path
     style="fill:#000040;stroke-width:0.205002"
     d="m 280.2378,459.34555 c 0,-0.50624 1.18544,-3.7286 3.33245,-9.05855 1.18087,-2.93153 3.04652,-7.9592 4.14588,-11.17261 1.98519,-5.8027 2.85495,-7.99508 3.1718,-7.99508 0.32539,0 0.727,1.35118 0.70071,2.35753 -0.0815,3.11847 -3.60103,13.56143 -6.84006,20.2952 -1.59361,3.31304 -2.25188,4.33397 -3.3602,5.21154 -0.86831,0.68752 -1.15058,0.77632 -1.15058,0.36197 z"
     id="path17"
     transform="scale(0.75)" />
  <path
     style="fill:#000040;stroke-width:0.205002"
     d="m 292.84656,425.74639 c -0.0845,-0.2583 -0.1981,-2.9788 -0.2525,-6.04557 -0.13959,-7.86782 0.39095,-15.79663 1.04283,-15.58499 0.48426,0.15723 1.1499,1.76494 1.45493,3.5141 0.60343,3.46036 0.34929,8.75729 -0.69922,14.57352 -0.62128,3.44634 -1.16796,4.69911 -1.54604,3.54294 z"
     id="path18"
     transform="scale(0.75)" />
  <path
     style="fill:#000040;stroke-width:0.205002"
     d="m 307.81058,575.18291 c -2.26103,-0.90106 -14.47246,-7.01412 -19.5777,-9.80063 -6.96309,-3.80054 -8.73771,-5.0458 -7.52388,-5.27957 0.6696,-0.12895 3.27244,0.80312 6.55974,2.34904 5.18022,2.4361 8.52543,3.38045 9.46772,2.67274 0.39253,-0.29481 0.39423,-0.32962 0.0512,-1.04885 -0.47844,-1.0033 -0.45122,-1.34595 0.10651,-1.34051 1.08083,0.0105 4.30289,1.94913 7.63633,4.59446 2.67132,2.11989 6.49326,5.94573 6.96275,6.96984 0.36673,0.79997 0.36603,0.80908 -0.0905,1.17876 -0.66491,0.53842 -1.71731,0.45191 -3.59221,-0.29528 z"
     id="path19"
     transform="scale(0.75)" />
  <path
     style="fill:#000040;stroke-width:0.205002"
     d="m 319.4957,603.57086 c -2.74069,-0.90877 -14.8794,-7.33704 -18.6157,-9.85827 -2.40074,-1.62001 -4.52943,-3.70263 -4.16106,-4.071 0.31896,-0.31896 3.78041,1.34671 9.05041,4.3551 3.22874,1.84313 7.74364,4.28115 10.03313,5.41783 3.19125,1.58438 4.33516,2.25758 4.90172,2.88469 0.80231,0.88806 0.92032,1.31839 0.41474,1.5124 -0.41665,0.15988 -0.41372,0.16031 -1.62324,-0.24075 z"
     id="path20"
     transform="scale(0.75)" />
</svg>
